<svg width="64" height="64" viewBox="0 0 64 64" fill="none" xmlns="http://www.w3.org/2000/svg">
<path d="M54 22.696C56.3573 23.4533 58 25.704 58 28.288V39.7173C58 42.7467 55.7413 45.3173 52.72 45.5653C51.8133 45.6373 50.9067 45.704 50 45.7573V54L42 46C38.3893 46 34.816 45.8533 31.28 45.5653C30.5102 45.5031 29.7614 45.2835 29.08 44.92M54 22.696C53.5879 22.5634 53.1621 22.4784 52.7307 22.4427C45.5892 21.8498 38.4108 21.8498 31.2693 22.4427C28.2533 22.6933 26 25.2613 26 28.288V39.7173C26 41.9493 27.2267 43.9307 29.08 44.92M54 22.696V17.6987C54 13.376 50.928 9.62934 46.64 9.072C41.1222 8.35678 35.564 7.9987 30 8C24.36 8 18.8053 8.36534 13.36 9.072C9.072 9.62934 6 13.376 6 17.6987V34.3013C6 38.624 9.072 42.3707 13.36 42.928C14.8987 43.128 16.4453 43.3013 18 43.4453V56L29.08 44.92" stroke="#487D78" stroke-width="3" stroke-linecap="round" stroke-linejoin="round"/>
</svg>
