<svg width="36" height="36" viewBox="0 0 36 36" fill="none" xmlns="http://www.w3.org/2000/svg">
<path d="M16.5385 4.49976C9.76695 5.2482 4.5 10.9883 4.5 17.9584C4.5 25.4371 10.5636 31.4997 18.0434 31.4997C25.002 31.4997 30.7347 26.2527 31.5 19.4997" stroke="white" stroke-width="2.25" stroke-linecap="round"/>
<path d="M31.4993 9.03769L30 9.0339C24.3951 9.01972 21.5927 9.01263 19.6226 10.4287C18.9678 10.8993 18.3933 11.4724 17.9211 12.1259C16.5 14.0925 16.5 16.8949 16.5 22.4997M31.4993 9.03769C31.5093 8.79375 31.4221 8.54833 31.2376 8.32975C30.0898 6.97005 27.1067 4.49976 27.1067 4.49976M31.4993 9.03769C31.4901 9.25644 31.4028 9.474 31.2373 9.66997C30.0894 11.0294 27.1067 13.4998 27.1067 13.4998" stroke="white" stroke-width="2.25" stroke-linecap="round" stroke-linejoin="round"/>
</svg>
