<svg width="64" height="64" viewBox="0 0 64 64" fill="none" xmlns="http://www.w3.org/2000/svg">
<path d="M40 28C40 30.1217 39.1571 32.1566 37.6569 33.6569C36.1566 35.1571 34.1217 36 32 36C29.8783 36 27.8434 35.1571 26.3431 33.6569C24.8429 32.1566 24 30.1217 24 28C24 25.8783 24.8429 23.8434 26.3431 22.3431C27.8434 20.8429 29.8783 20 32 20C34.1217 20 36.1566 20.8429 37.6569 22.3431C39.1571 23.8434 40 25.8783 40 28Z" stroke="#487D78" stroke-width="3" stroke-linecap="round" stroke-linejoin="round"/>
<path d="M52 28C52 47.0453 32 58 32 58C32 58 12 47.0453 12 28C12 22.6957 14.1071 17.6086 17.8579 13.8579C21.6086 10.1071 26.6957 8 32 8C37.3043 8 42.3914 10.1071 46.1421 13.8579C49.8929 17.6086 52 22.6957 52 28Z" stroke="#487D78" stroke-width="3" stroke-linecap="round" stroke-linejoin="round"/>
</svg>
