<svg width="36" height="36" viewBox="0 0 36 36" fill="none" xmlns="http://www.w3.org/2000/svg">
<path d="M16.5385 4.49976C9.76695 5.2482 4.5 10.9883 4.5 17.9584C4.5 25.4371 10.5636 31.4997 18.0434 31.4997C25.002 31.4997 30.7347 26.2527 31.5 19.4997" stroke="white" stroke-width="2.25" stroke-linecap="round"/>
<path d="M19.5379 20.999L19.5341 19.4998C19.52 13.8949 19.5129 11.0924 20.929 9.12231C21.3996 8.46756 21.9727 7.89306 22.6262 7.42086C24.5927 5.99976 27.3952 5.99976 32.9999 5.99976M19.5379 20.999C19.294 21.0091 19.0486 20.9219 18.83 20.7374C17.4703 19.5896 15 16.6064 15 16.6064M19.5379 20.999C19.7567 20.9899 19.9742 20.9026 20.1702 20.7371C21.5297 19.5892 24 16.6064 24 16.6064" stroke="white" stroke-width="2.25" stroke-linecap="round" stroke-linejoin="round"/>
</svg>
