<svg width="64" height="64" viewBox="0 0 64 64" fill="none" xmlns="http://www.w3.org/2000/svg">
<path d="M58.6668 45.1199V53.1199C58.6698 53.8626 58.5177 54.5977 58.2202 55.2782C57.9226 55.9587 57.4863 56.5695 56.939 57.0716C56.3918 57.5736 55.7457 57.9559 55.0421 58.1938C54.3386 58.4317 53.5931 58.5201 52.8535 58.4533C44.6477 57.5616 36.7655 54.7577 29.8401 50.2666C23.397 46.1724 17.9344 40.7097 13.8401 34.2666C9.33342 27.3098 6.5288 19.3893 5.65348 11.1466C5.58684 10.4092 5.67448 9.66596 5.91081 8.96426C6.14715 8.26257 6.527 7.61777 7.02619 7.07092C7.52538 6.52407 8.13296 6.08716 8.81026 5.78799C9.48755 5.48883 10.2197 5.33396 10.9601 5.33327H18.9601C20.2543 5.32053 21.5089 5.77881 22.4902 6.62269C23.4714 7.46656 24.1124 8.63846 24.2935 9.91993C24.6311 12.4801 25.2573 14.9939 26.1601 17.4133C26.5189 18.3677 26.5966 19.405 26.3839 20.4023C26.1712 21.3995 25.6771 22.3149 24.9601 23.0399L21.5735 26.4266C25.3696 33.1027 30.8974 38.6305 37.5735 42.4266L40.9601 39.0399C41.6852 38.323 42.6006 37.8289 43.5978 37.6162C44.595 37.4035 45.6324 37.4812 46.5868 37.8399C49.0062 38.7427 51.52 39.3689 54.0802 39.7066C55.3755 39.8893 56.5586 40.5418 57.4042 41.5399C58.2499 42.538 58.6993 43.8121 58.6668 45.1199Z" stroke="#487D78" stroke-width="4" stroke-linecap="round" stroke-linejoin="round"/>
</svg>
