<svg width="124" height="75" viewBox="0 0 124 75" fill="none" xmlns="http://www.w3.org/2000/svg">
<g clip-path="url(#clip0_435_30)">
<path d="M69.4438 8.01053C70.3248 7.31503 74.1964 3.86076 76.1205 1.49608C76.2596 1.31062 76.1669 1.05561 75.9583 0.986058C65.8273 -1.95819 35.1561 0.893326 20.5971 22.9404C20.3885 23.2418 20.4348 23.3345 20.6667 23.52C25.7438 15.29 37.2657 8.82193 51.1988 7.47732C56.925 6.92092 62.7671 7.38458 68.5165 8.38146C69.0729 8.42782 69.0497 8.33509 69.4438 8.01053Z" fill="#FF0000"/>
<path d="M55.2557 46.3555H59.3128L52.1492 28.9682H46.8635L39.6999 46.3555H43.641L44.8002 43.3417H54.0734L55.2557 46.3555ZM46.2143 40.096L49.4368 31.6806L52.6592 40.096H46.2143ZM29.3371 44.5008L33.765 37.1054C33.9273 36.8272 34.7851 35.3435 35.0633 34.7639H35.1096C35.0633 35.4131 35.0633 36.5722 35.0633 37.1054V46.3555H38.7726V28.9682H35.2256L29.5921 38.2877L23.9586 28.9682H19.7625V46.3555H23.4717V37.1054C23.4717 36.5722 23.4486 35.4362 23.4254 34.7639H23.4717C23.7499 35.3203 24.6077 36.8272 24.77 37.1054L29.198 44.5008H29.3371ZM113.839 44.5008L118.36 37.1054C118.522 36.8272 119.403 35.3435 119.681 34.7639H119.728C119.681 35.4131 119.681 36.5722 119.681 37.1054V46.3555H123.391V28.9682H119.612L113.978 38.2877L108.345 28.9682H104.149V46.3555H107.858V37.1054C107.858 36.5722 107.835 35.4362 107.812 34.7639H107.858C108.136 35.3203 109.017 36.8272 109.18 37.1054L113.7 44.5008H113.839ZM17.676 41.2552H13.7349V41.3711C13.7349 42.7853 12.9698 43.1098 11.2774 43.1098H7.52179C4.67028 43.1098 4.2298 42.7621 4.2298 39.4469V35.6449C4.2298 32.5615 4.64709 32.2138 7.45224 32.2138H11.1384C12.8075 32.2138 13.5494 32.5152 13.5494 33.8366H17.931C17.931 30.0346 16.4241 28.7363 11.6947 28.7363H6.77994C2.28242 28.7363 0.520508 30.4287 0.520508 34.8103V40.351C0.520508 44.6399 2.25924 46.3323 6.6872 46.3323H11.5325C16.2154 46.3323 17.676 45.0572 17.676 41.3247V41.2552ZM81.8931 41.2552H77.9519V41.3711C77.9519 42.7853 77.1869 43.1098 75.4945 43.1098H71.7389C68.8874 43.1098 68.4469 42.7621 68.4469 39.4469V35.6449C68.4469 32.5615 68.8642 32.2138 71.6693 32.2138H75.3554C77.0246 32.2138 77.7665 32.5152 77.7665 33.8366H82.1481C82.1481 30.0346 80.6412 28.7363 75.9118 28.7363H70.997C66.4995 28.7363 64.7376 30.4519 64.7376 34.8335V40.3742C64.7376 44.6631 66.4763 46.3323 70.9043 46.3323H75.7496C80.4325 46.3323 81.8931 45.0572 81.8931 41.3479V41.2552ZM97.8894 39.6324V41.4638C97.8894 42.8085 97.1475 43.1098 95.4552 43.1098H90.9576C88.1293 43.1098 87.712 42.7853 87.712 39.6324V35.6449C87.712 32.5615 88.1293 32.2138 90.9345 32.2138H95.2233C96.8925 32.2138 97.6344 32.5152 97.6344 33.8366H102.016C102.016 30.0346 100.509 28.7363 95.7797 28.7363H90.2853C85.7878 28.7363 84.0259 30.4519 84.0259 34.8335V40.2815C84.0259 44.6399 85.7646 46.3555 90.1462 46.3555H95.5247C100.185 46.3555 101.622 45.0572 101.622 41.2784V36.6186H92.8123V39.6324H97.8894Z" fill="#051039"/>
<path d="M54.3747 66.9897C53.4937 67.6852 49.6222 71.1395 47.698 73.5041C47.5589 73.6896 47.6516 73.9446 47.8603 74.0142C57.9913 76.9584 88.6625 74.0837 103.221 52.0366C103.43 51.7352 103.384 51.6425 103.152 51.457C98.0748 59.687 86.5528 66.1551 72.6198 67.4997C66.8936 68.0561 61.0514 67.5924 55.302 66.5956C54.7456 66.5492 54.7688 66.6419 54.3747 66.9897Z" fill="#FF0000"/>
</g>
<defs>
<clipPath id="clip0_435_30">
<rect width="122.87" height="75" fill="white" transform="translate(0.520508)"/>
</clipPath>
</defs>
</svg>
