<svg width="550" height="599" viewBox="0 0 550 599" fill="none" xmlns="http://www.w3.org/2000/svg">
<path d="M524.219 193.422L543.926 204.8L546.941 203.047L527.234 191.669L524.219 193.422Z" fill="#DCCEAC"/>
<path d="M543.158 474.393L546.174 472.64L546.938 203.048L543.922 204.8L543.158 474.393Z" fill="#C5B99A"/>
<path d="M523.452 463.015L543.159 474.394L543.923 204.8L524.216 193.423L523.452 463.015Z" fill="#89806B"/>
<path d="M545.795 469.137L544.23 470.039L544.236 471.836L544.252 477.383L545.816 476.48L545.8 470.933L545.795 469.137Z" fill="#C5B99A"/>
<path d="M544.231 470.04L61.207 189.437L61.2117 191.233L61.2272 196.78L544.253 477.384L544.236 471.838L544.231 470.04Z" fill="#88806A"/>
<path d="M61.207 189.436L544.231 470.04L545.795 469.138L62.7705 188.533L61.207 189.436Z" fill="#DBCDAB"/>
<path d="M546.914 205.476L545.351 206.379L545.355 208.176L545.371 213.722L546.935 212.82L546.919 207.273L546.914 205.476Z" fill="#C5B99A"/>
<path d="M545.644 208.626L217.489 17.8018L217.493 19.0239L217.503 22.7957L545.658 213.62L545.647 209.848L545.644 208.626Z" fill="#88806A"/>
<path d="M217.489 17.6427L546.143 208.975L547.206 208.359L218.554 17.0273L217.489 17.6427Z" fill="#DBCDAB"/>
<path d="M9.51562 397.876L18.2949 402.945L19.0557 134.851L10.2757 129.782L9.51562 397.876Z" fill="#896B4E"/>
<path d="M18.2939 402.946L25.9866 403.264L26.7459 135.171L19.0548 134.852L18.2939 402.946Z" fill="#AE8763"/>
<path d="M25.9873 403.264L33.231 407.447L33.9911 139.353L26.7466 135.171L25.9873 403.264Z" fill="#896B4E"/>
<path d="M33.2295 407.447L33.8061 411.902L34.5662 143.808L33.9895 139.353L33.2295 407.447Z" fill="#806449"/>
<path d="M33.8076 411.903L43.1001 417.267L43.8601 149.173L34.5677 143.809L33.8076 411.903Z" fill="#896B4E"/>
<path d="M43.0996 417.267L50.7899 417.586L51.55 149.492L43.8597 149.173L43.0996 417.267Z" fill="#AE8763"/>
<path d="M50.7891 417.586L58.0343 421.77L58.7952 153.676L51.5491 149.492L50.7891 417.586Z" fill="#896B4E"/>
<path d="M58.0342 421.768L58.6116 426.221L59.3716 158.128L58.795 153.674L58.0342 421.768Z" fill="#806449"/>
<path d="M58.6123 426.222L67.9032 431.587L68.6632 163.493L59.3724 158.129L58.6123 426.222Z" fill="#896B4E"/>
<path d="M67.9033 431.587L75.5944 431.907L76.3544 163.813L68.6634 163.493L67.9033 431.587Z" fill="#AE8763"/>
<path d="M75.5947 431.907L82.84 436.09L83.5993 167.996L76.3548 163.813L75.5947 431.907Z" fill="#896B4E"/>
<path d="M82.8408 436.091L83.4174 440.545L84.1767 172.451L83.6001 167.997L82.8408 436.091Z" fill="#806449"/>
<path d="M83.417 440.544L92.7079 445.909L93.4679 177.815L84.1763 172.45L83.417 440.544Z" fill="#896B4E"/>
<path d="M92.708 445.907L100.4 446.226L101.16 178.132L93.4681 177.813L92.708 445.907Z" fill="#AE8763"/>
<path d="M100.399 446.227L107.643 450.409L108.403 182.315L101.159 178.133L100.399 446.227Z" fill="#896B4E"/>
<path d="M107.643 450.41L108.22 454.865L108.98 186.771L108.403 182.316L107.643 450.41Z" fill="#806449"/>
<path d="M108.22 454.864L117.511 460.228L118.27 192.134L108.98 186.77L108.22 454.864Z" fill="#896B4E"/>
<path d="M117.512 460.23L125.203 460.549L125.963 192.455L118.271 192.136L117.512 460.23Z" fill="#AE8763"/>
<path d="M125.203 460.548L132.448 464.73L133.208 196.637L125.963 192.454L125.203 460.548Z" fill="#896B4E"/>
<path d="M132.445 464.73L133.022 469.184L133.782 201.09L133.205 196.637L132.445 464.73Z" fill="#806449"/>
<path d="M47.0215 419.123L54.7133 419.443L55.4726 151.349L47.7815 151.029L47.0215 419.123Z" fill="#AE8763"/>
<path d="M54.7139 419.443L61.9576 423.625L62.7176 155.531L55.4731 151.349L54.7139 419.443Z" fill="#896B4E"/>
<path d="M61.9561 423.626L62.5327 428.081L63.2927 159.987L62.7161 155.532L61.9561 423.626Z" fill="#806449"/>
<path d="M62.5332 428.08L71.8249 433.445L72.5842 165.351L63.2933 159.986L62.5332 428.08Z" fill="#896B4E"/>
<path d="M71.8252 433.446L79.5163 433.764L80.2763 165.671L72.5845 165.352L71.8252 433.446Z" fill="#AE8763"/>
<path d="M79.5156 433.765L86.7601 437.948L87.5202 169.854L80.2757 165.672L79.5156 433.765Z" fill="#896B4E"/>
<path d="M86.7598 437.945L87.3364 442.4L88.0965 174.305L87.5198 169.851L86.7598 437.945Z" fill="#806449"/>
<path d="M87.3369 442.403L96.6278 447.767L97.3879 179.673L88.097 174.309L87.3369 442.403Z" fill="#896B4E"/>
<path d="M96.6289 447.765L104.321 448.085L105.081 179.991L97.389 179.671L96.6289 447.765Z" fill="#AE8763"/>
<path d="M104.319 448.085L111.565 452.269L112.325 184.175L105.079 179.991L104.319 448.085Z" fill="#896B4E"/>
<path d="M111.565 452.269L112.141 456.722L112.901 188.628L112.325 184.175L111.565 452.269Z" fill="#806449"/>
<path d="M112.141 456.721L121.433 462.086L122.193 193.992L112.901 188.628L112.141 456.721Z" fill="#896B4E"/>
<path d="M121.435 462.085L129.126 462.405L129.886 194.311L122.195 193.991L121.435 462.085Z" fill="#AE8763"/>
<path d="M129.126 462.406L136.37 466.588L137.13 198.494L129.886 194.312L129.126 462.406Z" fill="#896B4E"/>
<path d="M136.369 466.589L136.945 471.043L137.706 202.949L137.129 198.495L136.369 466.589Z" fill="#806449"/>
<path d="M136.946 471.043L146.238 476.408L146.997 208.313L137.707 202.949L136.946 471.043Z" fill="#896B4E"/>
<path d="M146.238 476.405L153.93 476.724L154.69 208.63L146.998 208.311L146.238 476.405Z" fill="#AE8763"/>
<path d="M153.93 476.726L161.173 480.908L161.933 212.814L154.69 208.632L153.93 476.726Z" fill="#896B4E"/>
<path d="M161.174 480.908L161.75 485.363L162.511 217.269L161.934 212.814L161.174 480.908Z" fill="#806449"/>
<path d="M161.75 485.363L171.041 490.727L171.801 222.633L162.51 217.269L161.75 485.363Z" fill="#896B4E"/>
<path d="M171.041 490.727L178.733 491.046L179.493 222.952L171.801 222.633L171.041 490.727Z" fill="#AE8763"/>
<path d="M178.732 491.046L185.977 495.229L186.737 227.136L179.492 222.952L178.732 491.046Z" fill="#896B4E"/>
<path d="M185.975 495.229L186.551 499.683L187.311 231.59L186.735 227.136L185.975 495.229Z" fill="#806449"/>
<path d="M186.554 499.682L195.845 505.047L196.605 236.953L187.314 231.589L186.554 499.682Z" fill="#896B4E"/>
<path d="M195.845 505.048L203.537 505.368L204.297 237.274L196.605 236.954L195.845 505.048Z" fill="#AE8763"/>
<path d="M203.536 505.368L210.781 509.55L211.541 241.457L204.296 237.274L203.536 505.368Z" fill="#896B4E"/>
<path d="M210.779 509.549L211.357 514.004L212.117 245.91L211.539 241.456L210.779 509.549Z" fill="#806449"/>
<path d="M211.357 514.006L220.649 519.371L221.409 251.277L212.117 245.912L211.357 514.006Z" fill="#896B4E"/>
<path d="M220.649 519.367L228.341 519.687L229.101 251.593L221.409 251.273L220.649 519.367Z" fill="#AE8763"/>
<path d="M228.342 519.689L235.586 523.871L236.346 255.777L229.102 251.595L228.342 519.689Z" fill="#896B4E"/>
<path d="M235.585 523.871L236.162 528.326L236.922 260.232L236.344 255.777L235.585 523.871Z" fill="#806449"/>
<path d="M236.162 528.325L245.453 533.689L246.213 265.595L236.922 260.231L236.162 528.325Z" fill="#896B4E"/>
<path d="M245.454 533.69L253.146 534.009L253.906 265.915L246.214 265.596L245.454 533.69Z" fill="#AE8763"/>
<path d="M253.146 534.009L260.39 538.192L261.15 270.098L253.907 265.915L253.146 534.009Z" fill="#896B4E"/>
<path d="M260.39 538.191L260.966 542.645L261.726 274.551L261.15 270.097L260.39 538.191Z" fill="#806449"/>
<path d="M260.965 542.646L270.256 548.01L271.016 279.915L261.725 274.552L260.965 542.646Z" fill="#896B4E"/>
<path d="M270.256 548.011L277.948 548.33L278.708 280.236L271.016 279.916L270.256 548.011Z" fill="#AE8763"/>
<path d="M277.949 548.329L285.194 552.511L285.954 284.417L278.709 280.235L277.949 548.329Z" fill="#896B4E"/>
<path d="M285.194 552.512L285.771 556.966L286.531 288.872L285.954 284.418L285.194 552.512Z" fill="#806449"/>
<path d="M285.769 556.965L295.059 562.33L295.82 294.236L286.529 288.871L285.769 556.965Z" fill="#896B4E"/>
<path d="M295.061 562.329L302.752 562.648L303.512 294.554L295.821 294.235L295.061 562.329Z" fill="#AE8763"/>
<path d="M302.755 562.648L309.999 566.831L310.759 298.736L303.515 294.554L302.755 562.648Z" fill="#896B4E"/>
<path d="M309.996 566.833L310.573 571.287L311.333 303.193L310.756 298.738L309.996 566.833Z" fill="#806449"/>
<path d="M310.573 571.287L319.866 576.652L320.626 308.558L311.333 303.193L310.573 571.287Z" fill="#896B4E"/>
<path d="M319.867 576.651L327.559 576.97L328.318 308.876L320.627 308.557L319.867 576.651Z" fill="#AE8763"/>
<path d="M327.56 576.97L334.803 581.153L335.563 313.059L328.319 308.876L327.56 576.97Z" fill="#896B4E"/>
<path d="M334.801 581.153L335.378 585.606L336.137 317.513L335.561 313.059L334.801 581.153Z" fill="#806449"/>
<path d="M344.158 590.676L346.885 589.091L347.645 320.998L344.918 322.582L344.158 590.676Z" fill="#C59970"/>
<path d="M335.379 585.607L344.158 590.676L344.918 322.582L336.138 317.514L335.379 585.607Z" fill="#896B4E"/>
<path d="M343.574 317.816L337.214 314.144L331.949 313.925L326.99 311.062L326.595 308.013L320.235 304.341L314.97 304.122L310.011 301.26L309.617 298.211L303.256 294.538L297.991 294.32L293.031 291.457L292.637 288.408L286.277 284.736L281.012 284.517L276.053 281.654L275.658 278.605L269.298 274.933L264.033 274.714L259.074 271.851L258.68 268.802L252.32 265.13L247.055 264.912L242.096 262.049L241.701 259L235.341 255.328L230.076 255.109L225.116 252.245L224.722 249.197L218.361 245.525L213.096 245.306L208.138 242.443L207.743 239.394L201.383 235.722L196.118 235.503L191.159 232.64L190.764 229.591L184.404 225.919L179.139 225.701L174.18 222.838L173.786 219.789L167.426 216.117L162.161 215.898L157.2 213.035L156.807 209.986L150.446 206.313L145.181 206.095L140.222 203.232L139.828 200.183L133.467 196.511L128.203 196.292L123.243 193.429L122.849 190.38L116.489 186.709L111.224 186.49L106.265 183.627L105.87 180.578L99.5103 176.905L94.245 176.687L89.286 173.824L88.8913 170.775L82.5305 167.102L77.2663 166.884L72.3068 164.021L71.9121 160.972L65.5517 157.3L60.287 157.081L55.328 154.219L54.9333 151.169L48.573 147.497L43.3083 147.279L38.3493 144.416L37.9546 141.367L31.5948 137.695L26.3296 137.476L21.0198 134.41L19.1533 135.495L25.1635 138.965L30.4282 139.184L35.3871 142.046L35.7819 145.096L42.1427 148.768L47.4069 148.986L52.3669 151.85L52.7616 154.899L59.1215 158.57L64.3861 158.789L69.3451 161.652L69.7399 164.701L76.1002 168.373L81.3654 168.592L86.3239 171.455L86.7191 174.504L93.0784 178.176L98.3436 178.395L103.303 181.258L103.697 184.306L110.058 187.979L115.322 188.197L120.282 191.061L120.676 194.109L127.037 197.782L132.302 198L137.261 200.863L137.656 203.912L144.016 207.584L149.28 207.803L154.239 210.666L154.634 213.715L160.994 217.387L166.259 217.606L171.218 220.468L171.613 223.517L177.973 227.19L183.238 227.408L188.198 230.272L188.592 233.32L194.952 236.993L200.218 237.211L205.177 240.074L205.571 243.123L211.931 246.795L217.196 247.014L222.155 249.877L222.55 252.926L228.909 256.598L234.175 256.816L239.134 259.68L239.528 262.729L245.888 266.401L251.153 266.619L256.112 269.482L256.508 272.531L262.868 276.204L268.133 276.422L273.092 279.285L273.487 282.335L279.847 286.006L285.112 286.225L290.07 289.088L290.465 292.137L296.825 295.809L302.09 296.028L307.049 298.89L307.444 301.939L313.804 305.612L319.069 305.83L324.028 308.693L324.422 311.743L330.783 315.415L336.048 315.633L341.007 318.497L341.402 321.546L347.412 325.015L349.278 323.931L343.968 320.865L343.574 317.816Z" fill="#DCAB7D"/>
<path d="M10.3867 126.536L56.3714 153.085L255.775 37.5082L209.79 10.959L10.3867 126.536Z" fill="#DCAB7D"/>
<path d="M56.3721 153.085L60.4943 159.587L259.898 44.0102L255.776 37.5088L56.3721 153.085Z" fill="#F7C08D"/>
<path d="M60.4951 159.587L67.7412 163.771L267.144 48.1941L259.899 44.0107L60.4951 159.587Z" fill="#DCAB7D"/>
<path d="M67.7412 163.77L71.8859 162.041L271.289 46.4648L267.144 48.1932L67.7412 163.77Z" fill="#84674B"/>
<path d="M71.8857 162.041L81.1774 167.406L280.581 51.8293L271.289 46.4648L71.8857 162.041Z" fill="#DCAB7D"/>
<path d="M81.1777 167.405L85.3008 173.906L284.704 58.3296L280.581 51.8281L81.1777 167.405Z" fill="#F7C08D"/>
<path d="M85.3008 173.908L92.5453 178.09L291.948 62.5137L284.704 58.3311L85.3008 173.908Z" fill="#DCAB7D"/>
<path d="M92.543 178.091L96.6884 176.364L296.092 60.7871L291.946 62.5146L92.543 178.091Z" fill="#84674B"/>
<path d="M96.6914 176.364L105.982 181.728L305.386 66.1508L296.095 60.7871L96.6914 176.364Z" fill="#DCAB7D"/>
<path d="M105.98 181.727L110.103 188.228L309.506 72.6509L305.384 66.1494L105.98 181.727Z" fill="#F7C08D"/>
<path d="M110.104 188.227L117.349 192.41L316.752 76.833L309.507 72.6504L110.104 188.227Z" fill="#DCAB7D"/>
<path d="M117.347 192.411L121.492 190.683L320.896 75.1064L316.75 76.834L117.347 192.411Z" fill="#84674B"/>
<path d="M121.493 190.683L130.784 196.048L330.188 80.4702L320.897 75.1064L121.493 190.683Z" fill="#DCAB7D"/>
<path d="M46.8594 151.307L51.0056 149.58L250.409 34.0029L246.262 35.7305L46.8594 151.307Z" fill="#84674B"/>
<path d="M51.0059 149.58L60.296 154.943L259.7 39.3667L250.409 34.0029L51.0059 149.58Z" fill="#DCAB7D"/>
<path d="M60.2949 154.943L64.418 161.445L263.821 45.8677L259.699 39.3662L60.2949 154.943Z" fill="#F7C08D"/>
<path d="M64.417 161.444L71.6607 165.625L271.064 50.0488L263.82 45.8662L64.417 161.444Z" fill="#DCAB7D"/>
<path d="M71.6621 165.626L75.8083 163.899L275.212 48.3223L271.066 50.0498L71.6621 165.626Z" fill="#84674B"/>
<path d="M75.8096 163.899L85.1005 169.263L284.504 53.6867L275.213 48.3223L75.8096 163.899Z" fill="#DCAB7D"/>
<path d="M85.1006 169.265L89.2236 175.767L288.627 60.1899L284.504 53.6885L85.1006 169.265Z" fill="#F7C08D"/>
<path d="M89.2207 175.766L96.4644 179.948L295.868 64.3713L288.624 60.1895L89.2207 175.766Z" fill="#DCAB7D"/>
<path d="M96.4658 179.946L100.612 178.219L300.016 62.6416L295.87 64.3692L96.4658 179.946Z" fill="#84674B"/>
<path d="M100.612 178.219L109.903 183.583L309.307 68.0061L300.016 62.6416L100.612 178.219Z" fill="#DCAB7D"/>
<path d="M109.901 183.584L114.024 190.086L313.427 74.5093L309.305 68.0078L109.901 183.584Z" fill="#F7C08D"/>
<path d="M114.024 190.085L121.269 194.268L320.673 78.6914L313.428 74.5088L114.024 190.085Z" fill="#DCAB7D"/>
<path d="M121.27 194.267L125.416 192.539L324.819 76.9619L320.673 78.6902L121.27 194.267Z" fill="#84674B"/>
<path d="M125.414 192.539L134.706 197.904L334.109 82.3272L324.817 76.9619L125.414 192.539Z" fill="#DCAB7D"/>
<path d="M134.706 197.905L138.827 204.405L338.23 88.8288L334.109 82.3281L134.706 197.905Z" fill="#F7C08D"/>
<path d="M138.828 204.406L146.074 208.589L345.477 93.0125L338.232 88.8291L138.828 204.406Z" fill="#DCAB7D"/>
<path d="M146.075 208.588L150.221 206.861L349.624 91.2842L345.478 93.0117L146.075 208.588Z" fill="#84674B"/>
<path d="M150.22 206.861L159.511 212.225L358.914 96.6479L349.623 91.2842L150.22 206.861Z" fill="#DCAB7D"/>
<path d="M159.51 212.227L163.633 218.728L363.036 103.151L358.913 96.6494L159.51 212.227Z" fill="#F7C08D"/>
<path d="M163.635 218.725L170.879 222.908L370.282 107.331L363.038 103.148L163.635 218.725Z" fill="#DCAB7D"/>
<path d="M170.879 222.91L175.024 221.182L374.428 105.605L370.282 107.333L170.879 222.91Z" fill="#84674B"/>
<path d="M175.024 221.182L184.315 226.546L383.719 110.969L374.428 105.605L175.024 221.182Z" fill="#DCAB7D"/>
<path d="M184.315 226.545L188.438 233.047L387.841 117.471L383.719 110.969L184.315 226.545Z" fill="#F7C08D"/>
<path d="M188.438 233.047L195.681 237.23L395.085 121.653L387.84 117.471L188.438 233.047Z" fill="#DCAB7D"/>
<path d="M195.682 237.231L199.828 235.502L399.232 119.926L395.085 121.654L195.682 237.231Z" fill="#84674B"/>
<path d="M199.828 235.502L209.119 240.867L408.523 125.29L399.232 119.926L199.828 235.502Z" fill="#DCAB7D"/>
<path d="M209.117 240.866L213.239 247.367L412.643 131.791L408.521 125.289L209.117 240.866Z" fill="#F7C08D"/>
<path d="M213.241 247.369L220.486 251.551L419.889 135.974L412.645 131.792L213.241 247.369Z" fill="#DCAB7D"/>
<path d="M220.485 251.552L224.631 249.824L424.034 134.247L419.888 135.975L220.485 251.552Z" fill="#84674B"/>
<path d="M224.631 249.825L233.922 255.188L433.325 139.612L424.034 134.247L224.631 249.825Z" fill="#DCAB7D"/>
<path d="M233.921 255.186L238.044 261.687L437.447 146.111L433.325 139.609L233.921 255.186Z" fill="#F7C08D"/>
<path d="M238.045 261.688L245.29 265.871L444.694 150.295L437.448 146.111L238.045 261.688Z" fill="#DCAB7D"/>
<path d="M245.291 265.871L249.436 264.144L448.84 148.566L444.695 150.295L245.291 265.871Z" fill="#84674B"/>
<path d="M249.436 264.144L258.726 269.508L458.13 153.931L448.839 148.566L249.436 264.144Z" fill="#DCAB7D"/>
<path d="M258.727 269.508L262.85 276.01L462.253 160.433L458.13 153.932L258.727 269.508Z" fill="#F7C08D"/>
<path d="M262.85 276.008L270.094 280.191L469.497 164.614L462.253 160.432L262.85 276.008Z" fill="#DCAB7D"/>
<path d="M270.095 280.192L274.24 278.464L473.644 162.888L469.498 164.615L270.095 280.192Z" fill="#84674B"/>
<path d="M274.24 278.464L283.531 283.829L482.935 168.252L473.644 162.888L274.24 278.464Z" fill="#DCAB7D"/>
<path d="M283.53 283.829L287.653 290.33L487.056 174.753L482.934 168.252L283.53 283.829Z" fill="#F7C08D"/>
<path d="M287.654 290.33L294.898 294.512L494.302 178.936L487.057 174.753L287.654 290.33Z" fill="#DCAB7D"/>
<path d="M294.899 294.511L299.046 292.784L498.449 177.207L494.303 178.935L294.899 294.511Z" fill="#84674B"/>
<path d="M299.045 292.784L345.03 319.334L544.434 203.757L498.448 177.207L299.045 292.784Z" fill="#DCAB7D"/>
<path d="M313.169 305.8L308.21 302.937L305.388 298.487L299.028 294.815L296.191 295.997L291.232 293.134L288.409 288.684L282.05 285.012L279.212 286.195L274.252 283.331L271.43 278.881L265.07 275.209L262.233 276.392L257.273 273.528L254.451 269.078L248.092 265.406L245.253 266.589L240.295 263.725L237.473 259.275L231.113 255.603L228.275 256.786L223.316 253.923L220.494 249.473L214.134 245.801L211.296 246.984L206.336 244.12L203.516 239.67L197.155 235.997L194.317 237.18L189.358 234.317L186.536 229.867L180.176 226.195L177.338 227.377L172.379 224.515L169.557 220.065L163.197 216.392L160.359 217.575L155.401 214.712L152.578 210.262L146.219 206.59L143.381 207.772L138.422 204.909L135.6 200.459L129.239 196.787L126.402 197.97L121.442 195.106L118.62 190.656L112.261 186.984L109.422 188.167L104.463 185.304L101.642 180.853L95.2819 177.181L92.4442 178.364L87.4852 175.501L84.6629 171.051L78.3031 167.379L75.4655 168.561L70.5065 165.698L67.6842 161.248L61.3239 157.575L58.4868 158.759L53.5267 155.895L50.7049 151.445L19.2275 133.271L19.2217 135.432L49.9987 153.201L52.821 157.65L59.1808 161.322L62.0184 160.14L66.9774 163.003L69.7992 167.453L76.1595 171.125L78.9972 169.943L83.9562 172.806L86.7785 177.255L93.1388 180.928L95.9759 179.746L100.935 182.609L103.758 187.058L110.118 190.73L112.955 189.549L117.914 192.411L120.736 196.861L127.096 200.533L129.934 199.351L134.893 202.214L137.715 206.664L144.075 210.335L146.913 209.154L151.872 212.017L154.693 216.466L161.054 220.138L163.891 218.956L168.851 221.82L171.673 226.27L178.033 229.941L180.871 228.759L185.83 231.623L188.651 236.072L195.012 239.744L197.849 238.562L202.808 241.425L205.63 245.875L211.99 249.547L214.828 248.365L219.787 251.228L222.609 255.677L228.969 259.349L231.807 258.167L236.766 261.031L239.588 265.48L245.948 269.152L248.787 267.971L253.745 270.833L256.567 275.283L262.927 278.955L265.765 277.773L270.724 280.636L273.546 285.086L279.905 288.758L282.744 287.576L287.703 290.439L290.525 294.888L296.884 298.56L299.722 297.378L304.681 300.241L307.503 304.691L313.864 308.363L316.702 307.181L347.479 324.95L347.485 322.791L316.007 304.617L313.169 305.8Z" fill="#896B4E"/>
<path d="M345.021 322.489L544.425 206.913L544.434 203.758L345.03 319.334L345.021 322.489Z" fill="#C59970"/>
<path d="M445.618 534.717L544.2 477.428L544.344 426.611L445.763 483.901L445.618 534.717Z" fill="#C59970"/>
<path d="M442.712 480.365L446.636 479.305L545.217 422.016L541.293 423.076L442.712 480.365Z" fill="#8A6B4F"/>
<path d="M445.907 432.318L449.811 437.897L548.393 380.608L544.489 375.029L445.907 432.318Z" fill="#F7C08D"/>
<path d="M449.684 482.838L548.265 425.549L548.393 380.609L449.811 437.898L449.684 482.838Z" fill="#C59970"/>
<path d="M445.907 432.32L544.489 375.031L544.701 300.196L446.12 357.486L445.907 432.32Z" fill="#C59970"/>
<path d="M443.071 353.953L446.995 352.892L545.576 295.604L541.653 296.663L443.071 353.953Z" fill="#8A6B4F"/>
<path d="M446.267 305.906L450.17 311.485L548.751 254.196L544.847 248.616L446.267 305.906Z" fill="#F7C08D"/>
<path d="M450.043 356.425L548.624 299.135L548.752 254.196L450.171 311.485L450.043 356.425Z" fill="#C59970"/>
<path d="M443.33 262.439L446.384 264.202L544.966 206.913L541.912 205.149L443.33 262.439Z" fill="#DCAB7D"/>
<path d="M446.267 305.906L544.847 248.616L544.966 206.913L446.384 264.202L446.267 305.906Z" fill="#C59970"/>
<path d="M446.386 264.202L443.332 262.438L443.209 305.913L447.113 311.493L446.996 352.892L443.072 353.952L442.85 432.328L446.755 437.908L446.638 479.306L442.714 480.366L442.565 532.952L445.619 534.715L445.764 483.899L449.685 482.838L449.813 437.898L445.909 432.319L446.122 357.485L450.044 356.424L450.171 311.484L446.268 305.905L446.386 264.202Z" fill="#896B4E"/>
<path d="M346.844 592.176L445.424 534.886L445.569 484.07L346.988 541.36L346.844 592.176Z" fill="#C59970"/>
<path d="M343.94 537.826L347.864 536.765L446.445 479.477L442.521 480.537L343.94 537.826Z" fill="#8A6B4F"/>
<path d="M347.136 489.78L351.04 495.359L449.62 438.069L445.717 432.49L347.136 489.78Z" fill="#F7C08D"/>
<path d="M350.909 540.299L449.491 483.009L449.618 438.069L351.038 495.359L350.909 540.299Z" fill="#C59970"/>
<path d="M347.136 489.781L445.717 432.491L445.929 357.657L347.348 414.947L347.136 489.781Z" fill="#C59970"/>
<path d="M344.298 411.413L348.221 410.353L446.803 353.063L442.879 354.124L344.298 411.413Z" fill="#8A6B4F"/>
<path d="M347.492 363.366L351.395 368.946L449.977 311.656L446.074 306.077L347.492 363.366Z" fill="#F7C08D"/>
<path d="M351.269 413.888L449.85 356.598L449.977 311.658L351.395 368.948L351.269 413.888Z" fill="#C59970"/>
<path d="M344.558 319.899L347.612 321.662L446.193 264.373L443.138 262.609L344.558 319.899Z" fill="#DCAB7D"/>
<path d="M347.492 363.365L446.074 306.076L446.191 264.373L347.611 321.662L347.492 363.365Z" fill="#C59970"/>
<path d="M347.611 321.663L344.557 319.899L344.434 363.374L348.338 368.954L348.221 410.353L344.298 411.413L344.075 489.788L347.98 495.368L347.863 536.767L343.939 537.827L343.79 590.413L346.844 592.176L346.988 541.36L350.91 540.299L351.038 495.359L347.134 489.78L347.346 414.946L351.269 413.885L351.396 368.945L347.493 363.366L347.611 321.663Z" fill="#896B4E"/>
<path d="M446.778 539.101L447.473 537.577L447.764 266.772L447.069 268.296L446.778 539.101Z" fill="#837B66"/>
<path d="M443.202 266.067L442.505 267.591L444.438 268.707L447.068 268.298L447.763 266.774L445.831 265.658L443.202 266.067Z" fill="#AA9F85"/>
<path d="M444.147 539.51L446.777 539.102L447.068 268.298L444.438 268.707L444.147 539.51Z" fill="#928972"/>
<path d="M442.215 538.394L444.147 539.51L444.438 268.706L442.504 267.59L442.215 538.394Z" fill="#6A6353"/>
<path d="M452.773 535.587L453.468 534.063L453.758 263.259L453.063 264.783L452.773 535.587Z" fill="#837B66"/>
<path d="M449.198 262.549L448.501 264.074L450.434 265.19L453.064 264.782L453.759 263.258L451.826 262.142L449.198 262.549Z" fill="#AA9F85"/>
<path d="M450.144 535.995L452.774 535.587L453.064 264.782L450.434 265.191L450.144 535.995Z" fill="#928972"/>
<path d="M448.21 534.88L450.143 535.995L450.433 265.191L448.5 264.075L448.21 534.88Z" fill="#6A6353"/>
<path d="M216.216 14.5655L545.131 205.53L546.223 204.9L217.309 13.9346L216.216 14.5655Z" fill="#DBCDAB"/>
<path d="M544.553 202.673L539.602 205.532L539.606 207.375L544.558 204.516L546.162 203.591L546.157 201.747L544.553 202.673Z" fill="#C5B99A"/>
<path d="M212.842 16.5117L212.845 17.7673L541.76 208.733L541.757 207.477L212.842 16.5117Z" fill="#88806A"/>
<path d="M212.842 16.5121L541.757 207.477L545.129 205.53L216.214 14.5654L212.842 16.5121Z" fill="#DBCDAB"/>
<path d="M17.8047 134.422L17.8153 138.219L348.455 330.298L348.445 326.501L17.8047 134.422Z" fill="#88806A"/>
<path d="M18.8721 132.575L349.512 324.655L352.817 322.747L22.1765 130.668L18.8721 132.575Z" fill="#DBCDAB"/>
<path d="M352.816 319.266L347.988 322.053L346.425 322.956L346.43 324.752L346.446 330.299L348.009 329.396L347.994 323.849L352.821 321.063L352.816 319.266Z" fill="#C5B99A"/>
<path d="M17.7998 133.192L17.8035 134.422L348.444 326.502L348.44 325.272L17.7998 133.192Z" fill="#88806A"/>
<path d="M17.7998 133.192L348.44 325.272L349.51 324.654L18.87 132.574L17.7998 133.192Z" fill="#DBCDAB"/>
<path d="M346.817 584.841L345.254 585.744L345.259 587.541L345.275 593.088L346.838 592.184L346.823 586.638L346.817 584.841Z" fill="#C5B99A"/>
<path d="M345.181 587.76L8.5127 392.411L8.51647 393.662L8.5278 397.524L345.196 592.873L345.184 589.012L345.181 587.76Z" fill="#88806A"/>
<path d="M8.5127 391.496L345.652 588.229L346.743 587.596L9.60448 390.863L8.5127 391.496Z" fill="#DBCDAB"/>
<path d="M5.29883 128.166L25.006 139.545L28.0214 137.792L8.31427 126.414L5.29883 128.166Z" fill="#DCCEAC"/>
<path d="M24.2432 409.138L27.2586 407.386L28.0225 137.793L25.0071 139.546L24.2432 409.138Z" fill="#C5B99A"/>
<path d="M4.53613 397.759L24.2433 409.137L25.0072 139.544L5.30005 128.166L4.53613 397.759Z" fill="#89806B"/>
<path d="M323.332 311.668L343.185 323.13L346.223 321.364L326.369 309.902L323.332 311.668Z" fill="#DCCEAC"/>
<path d="M342.416 594.716L345.454 592.95L346.224 321.364L343.186 323.13L342.416 594.716Z" fill="#C5B99A"/>
<path d="M322.562 583.255L342.414 594.717L343.184 323.131L323.332 311.669L322.562 583.255Z" fill="#89806B"/>
<path d="M323.932 313.274L342.975 324.269L342.986 320.898L323.941 309.902L323.932 313.274Z" fill="#89806B"/>
<path d="M342.976 324.268L546.93 205.743L546.94 202.371L342.986 320.897L342.976 324.268Z" fill="#C5B99A"/>
<path d="M323.941 309.902L342.986 320.897L546.94 202.371L527.896 191.377L323.941 309.902Z" fill="#DCCEAC"/>
<path d="M5.31055 128.012L24.4953 139.09L24.5046 135.693L5.31984 124.616L5.31055 128.012Z" fill="#89806B"/>
<path d="M24.4961 139.089L229.959 19.6861L229.969 16.2891L24.5054 135.692L24.4961 139.089Z" fill="#C5B99A"/>
<path d="M5.31934 124.615L24.5041 135.692L229.967 16.2894L210.783 5.21289L5.31934 124.615Z" fill="#DCCEAC"/>
<path d="M343.004 320.894L346.081 322.67L359.906 314.837L356.83 313.061L343.004 320.894Z" fill="#DCCEAC"/>
<path d="M345.303 595.899L359.128 588.066L359.903 314.838L346.077 322.671L345.303 595.899Z" fill="#C5B99A"/>
<path d="M342.227 594.123L345.303 595.9L346.078 322.672L343.001 320.896L342.227 594.123Z" fill="#89806B"/>
<path d="M533.074 210.42L536.15 212.196L549.899 204.146L546.822 202.37L533.074 210.42Z" fill="#DCCEAC"/>
<path d="M535.375 485.425L549.123 477.375L549.898 204.146L536.149 212.196L535.375 485.425Z" fill="#C5B99A"/>
<path d="M532.3 483.648L535.376 485.425L536.15 212.196L533.075 210.42L532.3 483.648Z" fill="#89806B"/>
<mask id="mask0_359_1629" style="mask-type:luminance" maskUnits="userSpaceOnUse" x="9" y="395" width="11" height="4">
<path d="M19.382 395.665L14.8635 398.291C13.5825 399.035 11.8086 398.931 9.84961 397.8L14.3681 395.174C16.3271 396.304 18.1003 396.408 19.382 395.665Z" fill="white"/>
</mask>
<g mask="url(#mask0_359_1629)">
<path d="M9.84961 397.799C10.071 397.927 10.2892 398.041 10.506 398.144L15.0245 395.518C14.8085 395.416 14.5903 395.302 14.3689 395.174L9.84961 397.799Z" fill="#CEC1A1"/>
<path d="M10.5059 398.143C10.7458 398.256 10.9819 398.353 11.214 398.436L15.7326 395.809C15.5004 395.727 15.2643 395.631 15.0244 395.518L10.5059 398.143Z" fill="#C2B697"/>
<path d="M11.2139 398.435C11.4584 398.521 11.6976 398.589 11.9321 398.641L16.4506 396.015C16.2161 395.963 15.9762 395.895 15.7324 395.809L11.2139 398.435Z" fill="#B6AB8E"/>
<path d="M11.9326 398.643C12.195 398.701 12.4504 398.738 12.6981 398.755L17.2166 396.129C16.9689 396.111 16.7127 396.074 16.4511 396.016L11.9326 398.643Z" fill="#A99E84"/>
<path d="M12.6973 398.755C13.003 398.775 13.2979 398.766 13.5788 398.727L18.0974 396.101C17.8164 396.14 17.5215 396.149 17.2158 396.128L12.6973 398.755Z" fill="#9D937A"/>
<path d="M13.5791 398.728C14.0466 398.663 14.4769 398.515 14.8624 398.291L19.3809 395.665C18.9947 395.889 18.5643 396.037 18.0976 396.102L13.5791 398.728Z" fill="#918871"/>
</g>
<mask id="mask1_359_1629" style="mask-type:luminance" maskUnits="userSpaceOnUse" x="2" y="378" width="13" height="20">
<path d="M4.87801 381.11L9.39653 378.483C8.13184 379.219 7.34701 380.782 7.34082 383.003C7.32766 387.476 10.4716 392.924 14.3647 395.172L9.84621 397.798C5.95307 395.551 2.80915 390.103 2.82231 385.63C2.8285 383.408 3.61332 381.845 4.87801 381.11Z" fill="white"/>
</mask>
<g mask="url(#mask1_359_1629)">
<path d="M3.30371 382.982L7.82223 380.356C8.17826 379.51 8.71927 378.877 9.39806 378.483L4.87954 381.11C4.20075 381.504 3.65974 382.137 3.30371 382.982Z" fill="#918871"/>
<path d="M3.00684 383.916L7.52612 381.29C7.60275 380.955 7.70259 380.643 7.82256 380.356L3.30405 382.983C3.18331 383.27 3.08346 383.581 3.00684 383.916Z" fill="#9D937A"/>
<path d="M2.86914 384.765L7.38765 382.139C7.41861 381.841 7.46505 381.558 7.52697 381.289L3.00768 383.915C2.94654 384.184 2.9001 384.467 2.86914 384.765Z" fill="#A99E84"/>
<path d="M2.82422 385.61L7.34273 382.984C7.34428 382.691 7.35899 382.41 7.38685 382.14L2.86834 384.766C2.84047 385.035 2.82577 385.317 2.82422 385.61Z" fill="#B6AB8E"/>
<path d="M7.34287 382.983L2.82436 385.61C2.82436 385.616 2.82436 385.623 2.82436 385.63C2.82281 385.904 2.83442 386.181 2.85686 386.46L7.37538 383.834C7.35293 383.554 7.3421 383.277 7.34287 383.004C7.34287 382.997 7.34287 382.99 7.34287 382.983Z" fill="#C2B697"/>
<path d="M2.85645 386.46C2.87966 386.75 2.9145 387.042 2.96093 387.336L7.47945 384.71C7.43301 384.416 7.39818 384.123 7.37496 383.834L2.85645 386.46Z" fill="#CEC1A1"/>
<path d="M2.95996 387.335C3.00872 387.645 3.07064 387.957 3.14417 388.269L7.66268 385.643C7.58915 385.33 7.52724 385.019 7.47847 384.709L2.95996 387.335Z" fill="#DACCAA"/>
<path d="M3.14551 388.27C3.22832 388.623 3.32662 388.976 3.43962 389.329L7.95814 386.703C7.84514 386.35 7.74761 385.996 7.66402 385.644L3.14551 388.27Z" fill="#E7D9B4"/>
<path d="M3.43945 389.331C3.58032 389.772 3.74286 390.213 3.92629 390.648L8.44481 388.022C8.26215 387.586 8.09884 387.146 7.95875 386.705L3.43945 389.331Z" fill="#F3E4BE"/>
<path d="M3.92578 390.647C4.70983 392.512 5.86461 394.291 7.23378 395.712L11.7523 393.086C10.3831 391.665 9.22757 389.886 8.44352 388.021L3.92578 390.647Z" fill="white"/>
<path d="M7.23438 395.713C7.54939 396.04 7.87523 396.348 8.21037 396.634L12.7289 394.007C12.3938 393.722 12.0671 393.414 11.7529 393.088L7.23438 395.713Z" fill="#F3E4BE"/>
<path d="M8.21094 396.633C8.47564 396.858 8.74576 397.07 9.0213 397.266L13.5398 394.64C13.2643 394.444 12.9934 394.233 12.7295 394.007L8.21094 396.633Z" fill="#E7D9B4"/>
<path d="M9.01953 397.266C9.26798 397.442 9.52108 397.607 9.77726 397.758L14.2966 395.132C14.0404 394.981 13.7873 394.816 13.5388 394.64L9.01953 397.266Z" fill="#DACCAA"/>
<path d="M9.77734 397.756C9.80056 397.769 9.82378 397.783 9.847 397.796L14.3655 395.17C14.3423 395.156 14.3191 395.143 14.2959 395.13L9.77734 397.756Z" fill="#CEC1A1"/>
</g>
<path d="M0 400.39L19.6491 411.734L19.725 384.847L0.0758501 373.503L0 400.39ZM9.89384 381.604C13.787 383.852 16.9309 389.299 16.9177 393.77C16.9046 398.243 13.7413 400.049 9.84817 397.801C5.95503 395.554 2.81111 390.106 2.82427 385.633C2.83665 381.163 6.0007 379.357 9.89384 381.604Z" fill="#8E856F"/>
<path d="M0.0751953 373.501L19.7243 384.845L24.2436 382.219L4.59449 370.875L0.0751953 373.501Z" fill="#DDCFAC"/>
<path d="M19.6504 411.732L24.1689 409.105L24.2455 382.219L19.7262 384.845L19.6504 411.732Z" fill="#C7BB9B"/>
<mask id="mask2_359_1629" style="mask-type:luminance" maskUnits="userSpaceOnUse" x="330" y="581" width="11" height="5">
<path d="M340.443 582.328L335.924 584.955C334.643 585.699 332.869 585.594 330.91 584.463L335.429 581.837C337.388 582.968 339.162 583.073 340.443 582.328Z" fill="white"/>
</mask>
<g mask="url(#mask2_359_1629)">
<path d="M330.91 584.462C331.132 584.59 331.351 584.705 331.567 584.807L336.085 582.181C335.869 582.079 335.65 581.965 335.429 581.837L330.91 584.462Z" fill="#CEC1A1"/>
<path d="M331.565 584.807C331.805 584.92 332.042 585.017 332.274 585.099L336.794 582.472C336.561 582.39 336.325 582.294 336.085 582.181L331.565 584.807Z" fill="#C2B697"/>
<path d="M332.274 585.098C332.519 585.184 332.758 585.253 332.993 585.304L337.511 582.678C337.277 582.626 337.037 582.558 336.793 582.472L332.274 585.098Z" fill="#B6AB8E"/>
<path d="M332.993 585.306C333.256 585.365 333.511 585.402 333.759 585.419L338.277 582.793C338.029 582.776 337.774 582.739 337.512 582.68L332.993 585.306Z" fill="#A99E84"/>
<path d="M333.758 585.419C334.064 585.44 334.358 585.43 334.639 585.391L339.158 582.765C338.876 582.804 338.582 582.813 338.276 582.793L333.758 585.419Z" fill="#9D937A"/>
<path d="M334.64 585.39C335.106 585.325 335.537 585.178 335.923 584.953L340.441 582.327C340.055 582.552 339.625 582.699 339.158 582.764L334.64 585.39Z" fill="#918871"/>
</g>
<mask id="mask3_359_1629" style="mask-type:luminance" maskUnits="userSpaceOnUse" x="323" y="565" width="13" height="20">
<path d="M325.94 567.775L330.459 565.148C329.194 565.884 328.409 567.447 328.403 569.669C328.39 574.142 331.535 579.589 335.427 581.837L330.908 584.463C327.015 582.216 323.871 576.768 323.884 572.295C323.891 570.073 324.675 568.509 325.94 567.775Z" fill="white"/>
</mask>
<g mask="url(#mask3_359_1629)">
<path d="M324.364 569.647L328.883 567.021C329.239 566.176 329.779 565.543 330.458 565.148L325.939 567.775C325.261 568.169 324.72 568.802 324.364 569.647Z" fill="#918871"/>
<path d="M324.067 570.581L328.587 567.955C328.663 567.62 328.762 567.309 328.884 567.021L324.365 569.648C324.244 569.934 324.144 570.246 324.067 570.581Z" fill="#9D937A"/>
<path d="M323.929 571.43L328.447 568.804C328.478 568.506 328.525 568.223 328.587 567.954L324.067 570.58C324.006 570.849 323.96 571.131 323.929 571.43Z" fill="#A99E84"/>
<path d="M323.885 572.275L328.403 569.649C328.405 569.356 328.42 569.074 328.447 568.805L323.929 571.431C323.901 571.701 323.886 571.983 323.885 572.275Z" fill="#B6AB8E"/>
<path d="M328.403 569.648L323.885 572.275C323.885 572.282 323.885 572.289 323.885 572.295C323.884 572.569 323.895 572.845 323.917 573.125L328.436 570.499C328.413 570.219 328.403 569.942 328.403 569.668C328.403 569.662 328.403 569.655 328.403 569.648Z" fill="#C2B697"/>
<path d="M323.917 573.125C323.94 573.415 323.975 573.707 324.021 574.001L328.54 571.375C328.494 571.081 328.458 570.788 328.436 570.499L323.917 573.125Z" fill="#CEC1A1"/>
<path d="M324.021 574.001C324.069 574.311 324.131 574.623 324.205 574.935L328.723 572.309C328.65 571.996 328.588 571.685 328.539 571.375L324.021 574.001Z" fill="#DACCAA"/>
<path d="M324.206 574.936C324.289 575.289 324.387 575.642 324.5 575.995L329.019 573.369C328.906 573.016 328.807 572.663 328.725 572.31L324.206 574.936Z" fill="#E7D9B4"/>
<path d="M324.501 575.996C324.642 576.437 324.804 576.877 324.987 577.313L329.506 574.687C329.323 574.251 329.16 573.811 329.019 573.37L324.501 575.996Z" fill="#F3E4BE"/>
<path d="M324.986 577.312C325.771 579.177 326.926 580.956 328.295 582.377L332.814 579.751C331.444 578.329 330.29 576.55 329.506 574.686L324.986 577.312Z" fill="white"/>
<path d="M328.296 582.378C328.61 582.705 328.936 583.013 329.272 583.297L333.79 580.671C333.455 580.386 333.129 580.078 332.814 579.751L328.296 582.378Z" fill="#F3E4BE"/>
<path d="M329.271 583.297C329.536 583.523 329.807 583.734 330.082 583.93L334.6 581.304C334.325 581.108 334.054 580.896 333.79 580.671L329.271 583.297Z" fill="#E7D9B4"/>
<path d="M330.081 583.931C330.33 584.108 330.583 584.272 330.839 584.423L335.357 581.797C335.101 581.646 334.849 581.481 334.6 581.305L330.081 583.931Z" fill="#DACCAA"/>
<path d="M330.84 584.423C330.863 584.437 330.886 584.45 330.909 584.463L335.428 581.837C335.405 581.823 335.382 581.81 335.358 581.797L330.84 584.423Z" fill="#CEC1A1"/>
</g>
<path d="M321.062 587.053L340.712 598.397L340.787 571.51L321.138 560.166L321.062 587.053ZM330.956 568.268C334.849 570.516 337.993 575.963 337.98 580.434C337.967 584.908 334.803 586.714 330.91 584.465C327.017 582.218 323.874 576.77 323.886 572.297C323.899 567.826 327.063 566.02 330.956 568.268Z" fill="#8E856F"/>
<path d="M321.138 560.166L340.786 571.509L345.305 568.884L325.656 557.539L321.138 560.166Z" fill="#DDCFAC"/>
<path d="M340.712 598.395L345.23 595.769L345.307 568.883L340.788 571.508L340.712 598.395Z" fill="#C7BB9B"/>
<mask id="mask4_359_1629" style="mask-type:luminance" maskUnits="userSpaceOnUse" x="331" y="335" width="11" height="5">
<path d="M341.358 336.127L336.839 338.753C335.558 339.498 333.784 339.393 331.825 338.262L336.344 335.636C338.302 336.767 340.076 336.872 341.358 336.127Z" fill="white"/>
</mask>
<g mask="url(#mask4_359_1629)">
<path d="M331.825 338.263C332.047 338.391 332.265 338.505 332.481 338.607L336.999 335.981C336.783 335.88 336.564 335.765 336.343 335.638L331.825 338.263Z" fill="#CEC1A1"/>
<path d="M332.48 338.608C332.72 338.721 332.957 338.817 333.189 338.899L337.707 336.273C337.475 336.192 337.238 336.094 336.998 335.981L332.48 338.608Z" fill="#C2B697"/>
<path d="M333.189 338.899C333.434 338.985 333.673 339.054 333.908 339.106L338.426 336.48C338.192 336.428 337.952 336.359 337.708 336.272L333.189 338.899Z" fill="#B6AB8E"/>
<path d="M333.908 339.107C334.17 339.165 334.425 339.203 334.674 339.22L339.192 336.593C338.945 336.576 338.688 336.539 338.427 336.48L333.908 339.107Z" fill="#A99E84"/>
<path d="M334.673 339.219C334.979 339.24 335.273 339.231 335.554 339.192L340.073 336.565C339.791 336.605 339.497 336.614 339.191 336.593L334.673 339.219Z" fill="#9D937A"/>
<path d="M335.555 339.191C336.021 339.126 336.453 338.979 336.838 338.754L341.357 336.128C340.971 336.352 340.541 336.499 340.074 336.565L335.555 339.191Z" fill="#918871"/>
</g>
<mask id="mask5_359_1629" style="mask-type:luminance" maskUnits="userSpaceOnUse" x="324" y="318" width="13" height="21">
<path d="M326.858 321.572L331.377 318.946C330.112 319.682 329.327 321.245 329.321 323.466C329.308 327.939 332.452 333.387 336.345 335.635L331.827 338.261C327.934 336.013 324.79 330.566 324.803 326.092C324.809 323.871 325.593 322.308 326.858 321.572Z" fill="white"/>
</mask>
<g mask="url(#mask5_359_1629)">
<path d="M325.282 323.445L329.801 320.819C330.157 319.973 330.697 319.34 331.376 318.946L326.857 321.572C326.179 321.967 325.639 322.6 325.282 323.445Z" fill="#918871"/>
<path d="M324.984 324.379L329.503 321.753C329.579 321.418 329.679 321.106 329.8 320.819L325.282 323.445C325.161 323.733 325.061 324.045 324.984 324.379Z" fill="#9D937A"/>
<path d="M324.846 325.228L329.364 322.602C329.394 322.304 329.442 322.021 329.503 321.752L324.984 324.378C324.923 324.647 324.877 324.93 324.846 325.228Z" fill="#A99E84"/>
<path d="M324.802 326.073L329.321 323.447C329.322 323.154 329.337 322.872 329.365 322.603L324.847 325.229C324.818 325.499 324.803 325.78 324.802 326.073Z" fill="#B6AB8E"/>
<path d="M329.32 323.446L324.801 326.072C324.801 326.079 324.801 326.086 324.801 326.093C324.8 326.366 324.812 326.644 324.833 326.923L329.352 324.297C329.329 324.017 329.319 323.74 329.319 323.466C329.32 323.46 329.32 323.453 329.32 323.446Z" fill="#C2B697"/>
<path d="M324.834 326.923C324.856 327.213 324.892 327.505 324.938 327.799L329.457 325.174C329.411 324.88 329.376 324.587 329.353 324.298L324.834 326.923Z" fill="#CEC1A1"/>
<path d="M324.938 327.798C324.987 328.108 325.049 328.42 325.123 328.732L329.641 326.106C329.568 325.794 329.506 325.482 329.457 325.173L324.938 327.798Z" fill="#DACCAA"/>
<path d="M325.123 328.733C325.206 329.085 325.304 329.439 325.417 329.792L329.936 327.166C329.823 326.813 329.724 326.459 329.642 326.106L325.123 328.733Z" fill="#E7D9B4"/>
<path d="M325.417 329.794C325.558 330.235 325.72 330.675 325.903 331.111L330.422 328.485C330.239 328.049 330.076 327.609 329.935 327.168L325.417 329.794Z" fill="#F3E4BE"/>
<path d="M325.902 331.11C326.686 332.975 327.842 334.754 329.211 336.175L333.73 333.549C332.36 332.128 331.206 330.349 330.422 328.484L325.902 331.11Z" fill="white"/>
<path d="M329.211 336.176C329.525 336.503 329.852 336.811 330.187 337.096L334.705 334.47C334.37 334.184 334.044 333.876 333.729 333.55L329.211 336.176Z" fill="#F3E4BE"/>
<path d="M330.188 337.096C330.453 337.321 330.723 337.532 330.999 337.728L335.517 335.102C335.243 334.906 334.972 334.694 334.707 334.469L330.188 337.096Z" fill="#E7D9B4"/>
<path d="M330.998 337.728C331.246 337.905 331.5 338.069 331.756 338.22L336.274 335.594C336.018 335.444 335.766 335.279 335.517 335.102L330.998 337.728Z" fill="#DACCAA"/>
<path d="M331.757 338.22C331.78 338.234 331.803 338.247 331.827 338.26L336.345 335.634C336.322 335.62 336.299 335.607 336.275 335.593L331.757 338.22Z" fill="#CEC1A1"/>
</g>
<path d="M321.977 340.853L341.626 352.198L341.702 325.311L322.053 313.967L321.977 340.853ZM331.87 322.068C335.763 324.316 338.907 329.763 338.894 334.234C338.882 338.708 335.717 340.514 331.825 338.265C327.932 336.018 324.788 330.57 324.8 326.097C324.813 321.626 327.977 319.82 331.87 322.068Z" fill="#8E856F"/>
<path d="M322.052 313.964L341.7 325.308L346.219 322.682L326.57 311.338L322.052 313.964Z" fill="#DDCFAC"/>
<path d="M341.628 352.194L346.146 349.568L346.223 322.682L341.704 325.308L341.628 352.194Z" fill="#C7BB9B"/>
<mask id="mask6_359_1629" style="mask-type:luminance" maskUnits="userSpaceOnUse" x="10" y="148" width="11" height="5">
<path d="M20.1449 149.407L15.6264 152.033C14.3454 152.777 12.5715 152.672 10.6133 151.541L15.1318 148.915C17.09 150.047 18.8639 150.151 20.1449 149.407Z" fill="white"/>
</mask>
<g mask="url(#mask6_359_1629)">
<path d="M10.6133 151.54C10.8346 151.668 11.0529 151.783 11.2696 151.885L15.7881 149.259C15.5722 149.157 15.3532 149.042 15.1318 148.915L10.6133 151.54Z" fill="#CEC1A1"/>
<path d="M11.2695 151.884C11.5095 151.997 11.7455 152.094 11.9785 152.176L16.497 149.55C16.2648 149.468 16.028 149.371 15.7888 149.258L11.2695 151.884Z" fill="#C2B697"/>
<path d="M11.9775 152.176C12.2213 152.262 12.4613 152.331 12.6958 152.383L17.2151 149.756C16.9806 149.705 16.7406 149.636 16.4968 149.55L11.9775 152.176Z" fill="#B6AB8E"/>
<path d="M12.6963 152.383C12.9587 152.441 13.2141 152.479 13.4618 152.496L17.9803 149.87C17.7326 149.853 17.4772 149.816 17.2148 149.757L12.6963 152.383Z" fill="#A99E84"/>
<path d="M13.4609 152.495C13.7667 152.516 14.0615 152.506 14.3433 152.467L18.8618 149.841C18.5808 149.88 18.286 149.89 17.9802 149.869L13.4609 152.495Z" fill="#9D937A"/>
<path d="M14.3447 152.467C14.8114 152.401 15.2418 152.255 15.628 152.03L20.1465 149.404C19.7603 149.629 19.33 149.776 18.8632 149.841L14.3447 152.467Z" fill="#918871"/>
</g>
<mask id="mask7_359_1629" style="mask-type:luminance" maskUnits="userSpaceOnUse" x="3" y="132" width="13" height="20">
<path d="M5.64461 134.856L10.1631 132.229C8.89766 132.965 8.11361 134.528 8.10742 136.75C8.09426 141.223 11.239 146.67 15.1313 148.918L10.6128 151.544C6.71968 149.297 3.57575 143.849 3.58891 139.376C3.5951 137.154 4.37914 135.591 5.64461 134.856Z" fill="white"/>
</mask>
<g mask="url(#mask7_359_1629)">
<path d="M4.06836 136.728L8.58765 134.102C8.94368 133.257 9.48392 132.623 10.1627 132.229L5.64419 134.856C4.96463 135.25 4.42439 135.883 4.06836 136.728Z" fill="#918871"/>
<path d="M3.77246 137.662L8.29098 135.036C8.36761 134.701 8.46745 134.39 8.58819 134.103L4.0689 136.729C3.94816 137.016 3.84909 137.327 3.77246 137.662Z" fill="#9D937A"/>
<path d="M3.63281 138.511L8.15133 135.885C8.18152 135.587 8.22873 135.304 8.28988 135.035L3.77136 137.661C3.70944 137.93 3.663 138.213 3.63281 138.511Z" fill="#A99E84"/>
<path d="M3.58887 139.356L8.10738 136.73C8.10893 136.437 8.12364 136.155 8.15228 135.886L3.63376 138.512C3.60512 138.781 3.59042 139.063 3.58887 139.356Z" fill="#B6AB8E"/>
<path d="M8.10742 136.729L3.58891 139.356C3.58891 139.363 3.58891 139.37 3.58891 139.376C3.58813 139.649 3.59897 139.927 3.62141 140.206L8.13993 137.58C8.11748 137.3 8.10665 137.023 8.10742 136.749C8.10742 136.743 8.10742 136.736 8.10742 136.729Z" fill="#C2B697"/>
<path d="M3.62109 140.206C3.64431 140.496 3.67914 140.788 3.72558 141.082L8.2441 138.456C8.19766 138.162 8.16283 137.87 8.13961 137.58L3.62109 140.206Z" fill="#CEC1A1"/>
<path d="M3.72461 141.081C3.77337 141.391 3.83529 141.703 3.90882 142.016L8.4281 139.389C8.3538 139.077 8.29266 138.765 8.2439 138.456L3.72461 141.081Z" fill="#DACCAA"/>
<path d="M3.91016 142.016C3.99297 142.369 4.09204 142.722 4.20427 143.075L8.72279 140.449C8.60979 140.096 8.51226 139.742 8.42944 139.39L3.91016 142.016Z" fill="#E7D9B4"/>
<path d="M4.20508 143.077C4.34594 143.518 4.50848 143.958 4.69192 144.394L9.21043 141.768C9.027 141.333 8.86446 140.892 8.7236 140.451L4.20508 143.077Z" fill="#F3E4BE"/>
<path d="M4.69043 144.393C5.47448 146.258 6.63003 148.037 7.99843 149.458L12.517 146.832C11.1478 145.411 9.99299 143.632 9.20894 141.767L4.69043 144.393Z" fill="white"/>
<path d="M7.99805 149.459C8.31306 149.786 8.63891 150.094 8.97404 150.379L13.4926 147.753C13.1567 147.468 12.8316 147.16 12.5166 146.833L7.99805 149.459Z" fill="#F3E4BE"/>
<path d="M8.97559 150.379C9.24029 150.604 9.51041 150.816 9.78595 151.011L14.3045 148.385C14.0289 148.189 13.7588 147.978 13.4941 147.753L8.97559 150.379Z" fill="#E7D9B4"/>
<path d="M9.78516 151.011C10.0336 151.188 10.2867 151.352 10.5429 151.503L15.0614 148.877C14.8052 148.727 14.5529 148.562 14.3037 148.385L9.78516 151.011Z" fill="#DACCAA"/>
<path d="M10.5439 151.503C10.5672 151.517 10.5904 151.53 10.6136 151.543L15.1321 148.917C15.1089 148.903 15.0857 148.89 15.0625 148.876L10.5439 151.503Z" fill="#CEC1A1"/>
</g>
<path d="M0.765625 154.129L20.4148 165.473L20.4914 138.586L0.842255 127.242L0.765625 154.129ZM10.6595 135.343C14.5518 137.591 17.6957 143.038 17.6834 147.51C17.671 151.983 14.5062 153.788 10.6138 151.541C6.72066 149.293 3.57674 143.846 3.58989 139.372C3.6015 134.902 6.76632 133.097 10.6595 135.343Z" fill="#8E856F"/>
<path d="M0.842773 127.242L20.4919 138.587L25.0104 135.96L5.36129 124.616L0.842773 127.242Z" fill="#DDCFAC"/>
<path d="M20.4131 165.474L24.9316 162.848L25.0082 135.961L20.4897 138.587L20.4131 165.474Z" fill="#C7BB9B"/>
<mask id="mask8_359_1629" style="mask-type:luminance" maskUnits="userSpaceOnUse" x="9" y="116" width="21" height="12">
<path d="M29.3258 122.648L29.3111 127.803C29.3158 126.341 28.3506 124.876 26.418 123.76C22.5806 121.545 16.3748 121.545 12.5621 123.76C10.6666 124.862 9.71774 126.304 9.71387 127.747L9.72858 122.592C9.73245 121.149 10.6813 119.707 12.5768 118.606C16.3895 116.39 22.5953 116.39 26.4327 118.606C28.3653 119.722 29.3305 121.186 29.3258 122.648Z" fill="white"/>
</mask>
<g mask="url(#mask8_359_1629)">
<path d="M26.4325 118.606C25.5068 118.072 24.4433 117.667 23.3086 117.39L23.2939 122.544C24.4286 122.821 25.4913 123.226 26.4178 123.761C28.3504 124.876 29.3148 126.342 29.3109 127.804L29.3248 122.649C29.3295 121.187 28.3643 119.722 26.4325 118.606Z" fill="#9F957C"/>
<path d="M20.8691 122.156C21.6965 122.224 22.5123 122.353 23.294 122.543L23.3087 117.389C22.527 117.198 21.7112 117.068 20.8839 117L20.8691 122.156Z" fill="#A99E84"/>
<path d="M18.3819 116.981L18.3672 122.136C19.1977 122.081 20.039 122.088 20.8679 122.156L20.8826 117.001C20.0537 116.933 19.2124 116.926 18.3819 116.981Z" fill="#B4A98C"/>
<path d="M14.708 122.818C15.852 122.447 17.0981 122.22 18.3682 122.136L18.3829 116.981C17.1128 117.065 15.8667 117.292 14.7227 117.663L14.708 122.818Z" fill="#BFB395"/>
<path d="M12.4571 118.677L12.4424 123.832C12.4819 123.809 12.5221 123.785 12.5623 123.761C13.2156 123.382 13.9385 123.068 14.7078 122.818L14.7225 117.663C13.9524 117.912 13.2295 118.227 12.5763 118.607C12.536 118.63 12.4966 118.653 12.4571 118.677Z" fill="#C9BC9D"/>
<path d="M10.3897 120.547L10.375 125.703C10.8293 125.024 11.5182 124.386 12.4415 123.831L12.4562 118.676C11.5329 119.231 10.844 119.869 10.3897 120.547Z" fill="#BFB395"/>
<path d="M9.7793 127.099C9.8745 126.624 10.0734 126.155 10.376 125.703L10.3907 120.548C10.0889 120.999 9.88998 121.469 9.79478 121.943L9.7793 127.099Z" fill="#B4A98C"/>
<path d="M9.71387 127.748C9.71464 127.531 9.73631 127.314 9.77966 127.099L9.79436 121.944C9.75102 122.16 9.72935 122.376 9.72858 122.593L9.71387 127.748Z" fill="#A99E84"/>
</g>
<path d="M0.862305 122.241L20.2421 133.43L43.1683 120.107L23.7877 108.918L0.862305 122.241ZM26.4819 126.632C22.667 128.849 16.4619 128.849 12.6222 126.632C8.7848 124.416 8.7639 120.822 12.5789 118.605C16.3915 116.389 22.5973 116.389 26.4347 118.604C30.2745 120.822 30.2946 124.417 26.4819 126.632Z" fill="#E1D3B0"/>
<path d="M20.2275 138.586L43.1545 125.263L43.1692 120.108L20.2423 133.432L20.2275 138.586Z" fill="#CEC1A1"/>
<path d="M0.848633 127.396L20.2284 138.585L20.2431 133.43L0.863342 122.241L0.848633 127.396Z" fill="#9C927A"/>
<mask id="mask9_359_1629" style="mask-type:luminance" maskUnits="userSpaceOnUse" x="201" y="5" width="21" height="11">
<path d="M221.132 10.8002L221.117 15.9363C221.121 14.4805 220.16 13.0215 218.235 11.91C214.409 9.70109 208.23 9.70109 204.429 11.91C202.542 13.0076 201.597 14.4425 201.593 15.8806L201.607 10.7444C201.611 9.30637 202.556 7.87063 204.444 6.7739C208.245 4.56495 214.425 4.56495 218.25 6.7739C220.175 7.88534 221.136 9.34352 221.132 10.8002Z" fill="white"/>
</mask>
<g mask="url(#mask9_359_1629)">
<path d="M218.251 6.77436C217.328 6.24108 216.268 5.83706 215.137 5.56152L215.122 10.6977C216.253 10.9732 217.314 11.378 218.237 11.9105C220.161 13.0227 221.123 14.4809 221.119 15.9368L221.134 10.8006C221.137 9.34475 220.176 7.88657 218.251 6.77436Z" fill="#9F957C"/>
<path d="M212.706 10.3098C213.53 10.3779 214.342 10.5064 215.121 10.696L215.136 5.55984C214.357 5.36944 213.544 5.24096 212.72 5.17285L212.706 10.3098Z" fill="#A99E84"/>
<path d="M210.23 5.15383L210.215 10.29C211.042 10.2358 211.88 10.2428 212.705 10.3101L212.719 5.17396C211.894 5.10585 211.057 5.09888 210.23 5.15383Z" fill="#B4A98C"/>
<path d="M206.57 10.969C207.71 10.5998 208.951 10.3731 210.216 10.2895L210.23 5.15332C208.966 5.23691 207.724 5.46291 206.585 5.83288L206.57 10.969Z" fill="#BFB395"/>
<path d="M204.325 6.84363L204.311 11.9798C204.35 11.9558 204.39 11.9326 204.43 11.9094C205.081 11.5309 205.803 11.2174 206.57 10.9682L206.585 5.83203C205.817 6.08048 205.095 6.39472 204.444 6.7732C204.404 6.79719 204.364 6.82041 204.325 6.84363Z" fill="#C9BC9D"/>
<path d="M202.267 8.70925L202.252 13.8454C202.705 13.1697 203.391 12.5343 204.311 11.9809L204.325 6.84473C203.406 7.39812 202.72 8.03356 202.267 8.70925Z" fill="#BFB395"/>
<path d="M201.658 15.2352C201.753 14.7623 201.951 14.2948 202.252 13.8451L202.267 8.70898C201.965 9.15867 201.768 9.62616 201.673 10.0991L201.658 15.2352Z" fill="#B4A98C"/>
<path d="M201.593 15.882C201.594 15.6661 201.615 15.4502 201.659 15.2358L201.673 10.0996C201.63 10.314 201.608 10.5299 201.607 10.7459L201.593 15.882Z" fill="#A99E84"/>
</g>
<path d="M187.813 13.2754L207.124 24.4238L229.967 11.1485L210.657 0L187.813 13.2754ZM218.248 6.7739C222.074 8.98285 222.094 12.5618 218.293 14.7707C214.494 16.9789 208.313 16.9797 204.487 14.7707C200.662 12.5618 200.644 8.98208 204.443 6.7739C208.243 4.56495 214.422 4.56495 218.248 6.7739Z" fill="#E1D3B0"/>
<path d="M207.11 29.5609L229.954 16.2863L229.968 11.1494L207.125 24.4248L207.11 29.5609Z" fill="#CEC1A1"/>
<path d="M187.801 18.4115L207.111 29.56L207.126 24.4239L187.815 13.2754L187.801 18.4115Z" fill="#9C927A"/>
<mask id="mask10_359_1629" style="mask-type:luminance" maskUnits="userSpaceOnUse" x="330" y="303" width="21" height="12">
<path d="M350.505 309.332L350.49 314.487C350.494 313.025 349.529 311.561 347.597 310.445C343.759 308.229 337.553 308.229 333.741 310.445C331.845 311.546 330.896 312.988 330.893 314.431L330.907 309.276C330.911 307.832 331.86 306.39 333.756 305.29C337.568 303.074 343.774 303.074 347.611 305.29C349.544 306.406 350.508 307.87 350.505 309.332Z" fill="white"/>
</mask>
<g mask="url(#mask10_359_1629)">
<path d="M347.61 305.293C346.684 304.758 345.621 304.353 344.486 304.076L344.472 309.231C345.606 309.507 346.669 309.913 347.595 310.448C349.528 311.564 350.493 313.028 350.489 314.49L350.503 309.335C350.507 307.873 349.542 306.408 347.61 305.293Z" fill="#9F957C"/>
<path d="M342.049 308.843C342.876 308.911 343.691 309.041 344.474 309.231L344.488 304.076C343.707 303.886 342.891 303.756 342.064 303.688L342.049 308.843Z" fill="#A99E84"/>
<path d="M339.561 303.668L339.546 308.822C340.377 308.767 341.218 308.774 342.047 308.842L342.061 303.688C341.233 303.62 340.393 303.613 339.561 303.668Z" fill="#B4A98C"/>
<path d="M335.887 309.505C337.031 309.134 338.277 308.906 339.547 308.823L339.562 303.668C338.291 303.752 337.046 303.978 335.901 304.35L335.887 309.505Z" fill="#BFB395"/>
<path d="M333.636 305.364L333.621 310.518C333.661 310.494 333.7 310.471 333.741 310.448C334.394 310.068 335.117 309.754 335.887 309.504L335.901 304.35C335.132 304.599 334.408 304.914 333.755 305.293C333.715 305.316 333.675 305.34 333.636 305.364Z" fill="#C9BC9D"/>
<path d="M331.568 307.236L331.554 312.39C332.008 311.712 332.698 311.074 333.62 310.519L333.635 305.364C332.712 305.919 332.023 306.557 331.568 307.236Z" fill="#BFB395"/>
<path d="M330.958 313.786C331.053 313.31 331.252 312.841 331.554 312.39L331.569 307.235C331.266 307.687 331.068 308.156 330.973 308.631L330.958 313.786Z" fill="#B4A98C"/>
<path d="M330.893 314.434C330.893 314.218 330.915 314.001 330.958 313.786L330.973 308.631C330.93 308.846 330.908 309.063 330.907 309.279L330.893 314.434Z" fill="#A99E84"/>
</g>
<path d="M322.039 308.927L341.419 320.116L364.345 306.793L344.965 295.604L322.039 308.927ZM347.659 313.318C343.844 315.534 337.639 315.534 333.798 313.318C329.961 311.103 329.941 307.508 333.755 305.291C337.567 303.075 343.773 303.075 347.611 305.291C351.451 307.507 351.471 311.102 347.659 313.318Z" fill="#E1D3B0"/>
<path d="M341.404 325.272L364.33 311.949L364.345 306.794L341.419 320.117L341.404 325.272Z" fill="#CEC1A1"/>
<path d="M322.025 314.082L341.405 325.271L341.42 320.116L322.04 308.928L322.025 314.082Z" fill="#9C927A"/>
<mask id="mask11_359_1629" style="mask-type:luminance" maskUnits="userSpaceOnUse" x="521" y="192" width="21" height="12">
<path d="M541.162 197.917L541.148 203.054C541.151 201.597 540.19 200.139 538.265 199.027C534.439 196.818 528.26 196.818 524.46 199.027C522.572 200.124 521.627 201.56 521.623 202.998L521.638 197.862C521.642 196.424 522.587 194.988 524.474 193.891C528.275 191.682 534.455 191.682 538.28 193.891C540.205 195.003 541.167 196.461 541.162 197.917Z" fill="white"/>
</mask>
<g mask="url(#mask11_359_1629)">
<path d="M538.282 193.892C537.358 193.359 536.298 192.954 535.167 192.679L535.153 197.815C536.284 198.09 537.345 198.495 538.268 199.028C540.193 200.14 541.155 201.598 541.15 203.055L541.165 197.919C541.169 196.462 540.207 195.004 538.282 193.892Z" fill="#9F957C"/>
<path d="M532.736 197.428C533.561 197.496 534.373 197.625 535.151 197.815L535.165 192.679C534.386 192.489 533.574 192.36 532.75 192.292L532.736 197.428Z" fill="#A99E84"/>
<path d="M530.26 192.27L530.245 197.407C531.073 197.352 531.909 197.359 532.735 197.427L532.75 192.291C531.925 192.223 531.087 192.216 530.26 192.27Z" fill="#B4A98C"/>
<path d="M526.601 198.086C527.74 197.716 528.981 197.49 530.246 197.407L530.261 192.271C528.996 192.354 527.755 192.58 526.615 192.95L526.601 198.086Z" fill="#BFB395"/>
<path d="M524.356 193.961L524.341 199.097C524.38 199.073 524.42 199.05 524.46 199.027C525.112 198.648 525.833 198.334 526.601 198.085L526.616 192.949C525.848 193.198 525.126 193.512 524.475 193.89C524.434 193.914 524.394 193.938 524.356 193.961Z" fill="#C9BC9D"/>
<path d="M522.298 195.826L522.283 200.963C522.736 200.286 523.422 199.651 524.342 199.098L524.357 193.962C523.436 194.515 522.75 195.15 522.298 195.826Z" fill="#BFB395"/>
<path d="M521.688 202.353C521.784 201.88 521.982 201.412 522.283 200.963L522.298 195.827C521.997 196.276 521.798 196.744 521.704 197.216L521.688 202.353Z" fill="#B4A98C"/>
<path d="M521.623 202.997C521.624 202.781 521.645 202.566 521.688 202.351L521.703 197.215C521.659 197.429 521.639 197.645 521.638 197.861L521.623 202.997Z" fill="#A99E84"/>
</g>
<path d="M507.847 200.39L527.157 211.538L550 198.263L530.69 187.114L507.847 200.39ZM538.281 193.888C542.107 196.097 542.127 199.676 538.326 201.885C534.527 204.092 528.346 204.094 524.521 201.885C520.695 199.676 520.676 196.096 524.476 193.888C528.276 191.679 534.455 191.679 538.281 193.888Z" fill="#E1D3B0"/>
<path d="M527.142 216.676L549.986 203.401L550 198.265L527.156 211.54L527.142 216.676Z" fill="#CEC1A1"/>
<path d="M507.832 205.528L527.141 216.676L527.156 211.54L507.846 200.392L507.832 205.528Z" fill="#9C927A"/>
</svg>
