<svg width="900" height="807" viewBox="0 0 900 807" fill="none" xmlns="http://www.w3.org/2000/svg">
<path d="M873.788 394.614L893.822 406.181L896.888 404.399L876.854 392.832L873.788 394.614Z" fill="#DCCEAC"/>
<path d="M893.044 680.25L896.109 678.468L896.886 404.399L893.821 406.181L893.044 680.25Z" fill="#C5B99A"/>
<path d="M873.01 668.682L893.044 680.25L893.821 406.181L873.786 394.614L873.01 668.682Z" fill="#89806B"/>
<path d="M895.727 674.907L894.137 675.825L894.142 677.652L894.159 683.29L895.748 682.372L895.732 676.733L895.727 674.907Z" fill="#C5B99A"/>
<path d="M894.136 675.825L403.093 390.562L403.098 392.389L403.113 398.028L894.158 683.29L894.141 677.652L894.136 675.825Z" fill="#88806A"/>
<path d="M698.832 562.037L207.789 276.774L207.794 278.601L207.81 284.24L698.854 569.502L698.837 563.864L698.832 562.037Z" fill="#88806A"/>
<path d="M403.093 390.562L894.136 675.824L895.726 674.907L404.682 389.644L403.093 390.562Z" fill="#DBCDAB"/>
<path d="M207.789 276.774L698.832 562.036L700.422 561.119L209.378 275.855L207.789 276.774Z" fill="#DBCDAB"/>
<path d="M896.863 406.866L895.273 407.784L895.278 409.611L895.295 415.25L896.884 414.332L896.868 408.693L896.863 406.866Z" fill="#C5B99A"/>
<path d="M895.273 407.784L404.229 122.521L404.234 124.348L404.25 129.986L895.294 415.249L895.278 409.611L895.273 407.784Z" fill="#88806A"/>
<path d="M699.969 293.998L208.925 8.73438L208.93 10.5614L208.946 16.1999L699.99 301.463L699.974 295.825L699.969 293.998Z" fill="#88806A"/>
<path d="M404.229 122.521L895.273 407.784L896.862 406.866L405.819 121.604L404.229 122.521Z" fill="#DBCDAB"/>
<path d="M208.925 8.73288L699.969 293.996L701.559 293.078L210.515 7.81543L208.925 8.73288Z" fill="#DBCDAB"/>
<path d="M685.81 515.229L676.365 509.775L668.545 509.451L661.181 505.199L660.594 500.671L651.149 495.217L643.33 494.892L635.965 490.641L635.379 486.113L625.932 480.659L618.114 480.334L610.748 476.082L610.162 471.554L600.716 466.101L592.898 465.776L585.533 461.524L584.947 456.995L575.501 451.543L567.682 451.218L560.317 446.966L559.731 442.437L550.286 436.985L542.466 436.66L535.102 432.408L534.515 427.879L525.07 422.426L517.251 422.102L509.885 417.848L509.3 413.321L499.853 407.867L492.034 407.542L484.67 403.29L484.083 398.763L474.638 393.309L466.819 392.984L459.454 388.732L458.868 384.204L449.423 378.75L441.603 378.426L434.238 374.174L433.652 369.646L424.207 364.192L416.387 363.867L409.022 359.615L408.437 355.088L398.991 349.633L391.171 349.309L383.806 345.057L383.22 340.529L373.774 335.076L365.955 334.751L358.591 330.498L358.004 325.97L348.559 320.518L340.74 320.193L333.375 315.941L332.789 311.412L323.344 305.959L315.524 305.635L308.159 301.383L307.573 296.854L298.126 291.4L290.308 291.076L282.943 286.823L282.357 282.296L272.911 276.842L265.092 276.517L257.727 272.265L257.141 267.737L247.695 262.283L239.876 261.959L232.512 257.707L231.925 253.179L222.48 247.726L214.661 247.4L206.775 242.848L204.003 244.459L203.23 517.004L212.156 522.157L219.975 522.481L227.34 526.734L227.926 531.262L237.373 536.716L245.191 537.04L252.557 541.293L253.143 545.82L262.588 551.274L270.408 551.599L277.773 555.851L278.358 560.379L287.804 565.832L295.624 566.157L302.988 570.409L303.574 574.937L313.02 580.39L320.838 580.715L328.203 584.967L328.789 589.495L338.236 594.949L346.054 595.273L353.42 599.525L354.005 604.054L363.452 609.507L371.27 609.832L378.636 614.084L379.221 618.612L388.667 624.065L396.487 624.39L403.851 628.642L404.437 633.17L413.883 638.624L421.702 638.948L429.066 643.2L429.653 647.729L439.098 653.182L446.917 653.507L454.284 657.76L454.868 662.286L464.315 667.741L472.135 668.066L479.499 672.318L480.085 676.846L489.531 682.299L497.35 682.624L504.714 686.876L505.3 691.404L514.746 696.857L522.565 697.182L529.93 701.434L530.516 705.962L539.961 711.415L547.781 711.74L555.145 715.992L555.732 720.521L565.178 725.974L572.998 726.299L580.363 730.551L580.949 735.079L590.394 740.532L598.214 740.857L605.578 745.109L606.164 749.637L615.609 755.091L623.428 755.415L630.793 759.667L631.379 764.195L640.824 769.649L648.644 769.973L656.009 774.226L656.595 778.753L666.042 784.208L673.861 784.533L681.225 788.785L681.812 793.312L690.737 798.466L693.509 796.854L694.282 524.31L686.396 519.757L685.81 515.229Z" fill="#6A556F"/>
<path d="M490.505 401.44L481.06 395.986L473.241 395.662L465.876 391.41L465.29 386.882L455.844 381.428L448.025 381.103L440.66 376.852L440.074 372.324L430.627 366.869L422.809 366.545L415.443 362.293L414.858 357.765L405.412 352.311L397.593 351.987L390.228 347.734L389.642 343.206L380.196 337.753L372.377 337.429L365.013 333.176L364.426 328.648L354.981 323.196L347.162 322.871L339.797 318.618L339.211 314.09L329.766 308.637L321.946 308.313L314.581 304.059L313.995 299.531L304.548 294.078L296.729 293.753L289.365 289.501L288.779 284.973L279.334 279.52L271.514 279.195L264.149 274.943L263.563 270.415L254.118 264.961L246.298 264.637L238.934 260.385L238.347 255.857L228.902 250.403L221.083 250.078L213.717 245.826L213.132 241.299L203.686 235.844L195.866 235.519L188.502 231.268L187.915 226.74L178.469 221.286L170.651 220.961L163.286 216.709L162.7 212.181L153.255 206.728L145.435 206.404L138.07 202.151L137.484 197.623L128.039 192.17L120.219 191.846L112.855 187.593L112.268 183.065L102.822 177.611L95.0038 177.287L87.6383 173.034L87.0521 168.506L77.6061 163.053L69.7874 162.728L62.4226 158.476L61.8364 153.948L52.3905 148.494L44.5717 148.17L37.207 143.918L36.6208 139.39L27.1757 133.937L19.3561 133.611L11.4705 129.059L8.69845 130.67L7.92578 403.215L16.8508 408.368L24.6704 408.692L32.0351 412.945L32.6213 417.473L42.068 422.927L49.886 423.251L57.2523 427.504L57.8385 432.031L67.2837 437.485L75.1032 437.81L82.468 442.062L83.0534 446.59L92.4993 452.043L100.319 452.368L107.683 456.62L108.27 461.148L117.715 466.601L125.534 466.926L132.898 471.178L133.485 475.706L142.931 481.16L150.749 481.484L158.115 485.736L158.7 490.265L168.147 495.718L175.966 496.043L183.331 500.295L183.917 504.823L193.363 510.276L201.182 510.601L208.546 514.853L209.132 519.381L218.578 524.835L226.397 525.159L233.762 529.411L234.348 533.94L243.793 539.393L251.613 539.718L258.979 543.971L259.564 548.497L269.01 553.952L276.83 554.277L284.195 558.529L284.78 563.057L294.226 568.51L302.046 568.835L309.409 573.087L309.996 577.615L319.441 583.068L327.26 583.393L334.625 587.645L335.211 592.173L344.656 597.626L352.476 597.951L359.841 602.203L360.428 606.732L369.874 612.185L377.693 612.51L385.058 616.762L385.644 621.29L395.089 626.743L402.909 627.068L410.273 631.32L410.859 635.848L420.304 641.302L428.124 641.626L435.488 645.878L436.075 650.406L445.52 655.86L453.339 656.184L460.704 660.437L461.29 664.964L470.737 670.419L478.557 670.744L485.921 674.996L486.508 679.523L495.433 684.677L498.205 683.065L498.977 410.521L491.091 405.968L490.505 401.44Z" fill="#6A556F"/>
<path d="M203.23 517.004L212.156 522.157L212.929 249.612L204.003 244.459L203.23 517.004Z" fill="#896B4E"/>
<path d="M7.92676 403.216L16.8518 408.369L17.6253 135.824L8.69943 130.671L7.92676 403.216Z" fill="#896B4E"/>
<path d="M212.154 522.158L219.975 522.482L220.747 249.938L212.928 249.613L212.154 522.158Z" fill="#AE8763"/>
<path d="M16.8506 408.37L24.6709 408.694L25.4428 136.15L17.624 135.825L16.8506 408.37Z" fill="#AE8763"/>
<path d="M219.977 522.482L227.341 526.735L228.113 254.19L220.748 249.938L219.977 522.482Z" fill="#896B4E"/>
<path d="M24.6719 408.694L32.0358 412.947L32.8085 140.402L25.4438 136.15L24.6719 408.694Z" fill="#896B4E"/>
<path d="M227.34 526.734L227.926 531.262L228.699 258.717L228.113 254.188L227.34 526.734Z" fill="#806449"/>
<path d="M32.0352 412.946L32.6213 417.474L33.394 144.929L32.8078 140.4L32.0352 412.946Z" fill="#806449"/>
<path d="M227.927 531.263L237.373 536.716L238.146 264.171L228.699 258.718L227.927 531.263Z" fill="#896B4E"/>
<path d="M32.6221 417.475L42.0688 422.929L42.8415 150.384L33.3947 144.931L32.6221 417.475Z" fill="#896B4E"/>
<path d="M237.372 536.717L245.19 537.041L245.963 264.496L238.145 264.172L237.372 536.717Z" fill="#AE8763"/>
<path d="M42.0684 422.929L49.8863 423.253L50.659 150.708L42.841 150.384L42.0684 422.929Z" fill="#AE8763"/>
<path d="M245.19 537.04L252.556 541.293L253.329 268.748L245.963 264.495L245.19 537.04Z" fill="#896B4E"/>
<path d="M49.8857 423.253L57.2513 427.506L58.0248 154.961L50.6584 150.708L49.8857 423.253Z" fill="#896B4E"/>
<path d="M252.558 541.292L253.145 545.819L253.917 273.275L253.331 268.747L252.558 541.292Z" fill="#806449"/>
<path d="M57.2529 427.505L57.8399 432.032L58.6126 159.488L58.0264 154.96L57.2529 427.505Z" fill="#806449"/>
<path d="M253.144 545.821L262.589 551.275L263.361 278.73L253.916 273.277L253.144 545.821Z" fill="#896B4E"/>
<path d="M57.8398 432.031L67.285 437.485L68.0577 164.94L58.6125 159.487L57.8398 432.031Z" fill="#896B4E"/>
<path d="M262.588 551.273L270.407 551.598L271.179 279.053L263.361 278.729L262.588 551.273Z" fill="#AE8763"/>
<path d="M67.2871 437.485L75.1059 437.81L75.8785 165.265L68.0598 164.94L67.2871 437.485Z" fill="#AE8763"/>
<path d="M270.408 551.598L277.774 555.851L278.546 283.306L271.181 279.054L270.408 551.598Z" fill="#896B4E"/>
<path d="M75.1035 437.81L82.4691 442.062L83.2409 169.518L75.8762 165.266L75.1035 437.81Z" fill="#896B4E"/>
<path d="M277.773 555.851L278.36 560.38L279.132 287.835L278.545 283.307L277.773 555.851Z" fill="#806449"/>
<path d="M82.4678 442.062L83.054 446.591L83.8258 174.046L83.2396 169.518L82.4678 442.062Z" fill="#806449"/>
<path d="M278.359 560.38L287.805 565.833L288.577 293.288L279.131 287.835L278.359 560.38Z" fill="#896B4E"/>
<path d="M83.0566 446.591L92.5018 452.044L93.2744 179.499L83.8285 174.046L83.0566 446.591Z" fill="#896B4E"/>
<path d="M287.806 565.833L295.625 566.157L296.398 293.612L288.578 293.288L287.806 565.833Z" fill="#AE8763"/>
<path d="M92.5 452.045L100.32 452.369L101.092 179.824L93.2727 179.5L92.5 452.045Z" fill="#AE8763"/>
<path d="M295.623 566.157L302.987 570.409L303.76 297.864L296.396 293.612L295.623 566.157Z" fill="#896B4E"/>
<path d="M100.318 452.369L107.682 456.621L108.455 184.076L101.091 179.824L100.318 452.369Z" fill="#896B4E"/>
<path d="M302.987 570.409L303.574 574.937L304.347 302.392L303.76 297.864L302.987 570.409Z" fill="#806449"/>
<path d="M107.684 456.621L108.271 461.149L109.043 188.604L108.456 184.076L107.684 456.621Z" fill="#806449"/>
<path d="M303.575 574.937L313.02 580.391L313.792 307.846L304.348 302.393L303.575 574.937Z" fill="#896B4E"/>
<path d="M108.271 461.149L117.717 466.603L118.489 194.058L109.044 188.604L108.271 461.149Z" fill="#896B4E"/>
<path d="M313.02 580.391L320.838 580.716L321.611 308.172L313.791 307.847L313.02 580.391Z" fill="#AE8763"/>
<path d="M117.715 466.602L125.534 466.927L126.306 194.383L118.487 194.058L117.715 466.602Z" fill="#AE8763"/>
<path d="M320.839 580.717L328.204 584.968L328.976 312.424L321.612 308.172L320.839 580.717Z" fill="#896B4E"/>
<path d="M125.536 466.928L132.901 471.179L133.674 198.635L126.309 194.383L125.536 466.928Z" fill="#896B4E"/>
<path d="M328.205 584.968L328.791 589.496L329.564 316.951L328.978 312.424L328.205 584.968Z" fill="#806449"/>
<path d="M132.899 471.179L133.486 475.707L134.258 203.162L133.672 198.635L132.899 471.179Z" fill="#806449"/>
<path d="M328.791 589.496L338.238 594.95L339.01 322.406L329.564 316.951L328.791 589.496Z" fill="#896B4E"/>
<path d="M133.486 475.708L142.933 481.162L143.706 208.617L134.259 203.163L133.486 475.708Z" fill="#896B4E"/>
<path d="M338.235 594.949L346.053 595.273L346.826 322.728L339.008 322.404L338.235 594.949Z" fill="#AE8763"/>
<path d="M142.933 481.162L150.751 481.486L151.523 208.941L143.705 208.617L142.933 481.162Z" fill="#AE8763"/>
<path d="M346.055 595.273L353.421 599.525L354.193 326.981L346.827 322.729L346.055 595.273Z" fill="#896B4E"/>
<path d="M150.75 481.485L158.116 485.737L158.888 213.193L151.523 208.94L150.75 481.485Z" fill="#896B4E"/>
<path d="M353.421 599.526L354.006 604.055L354.778 331.51L354.193 326.982L353.421 599.526Z" fill="#806449"/>
<path d="M158.116 485.739L158.701 490.268L159.474 217.723L158.888 213.195L158.116 485.739Z" fill="#806449"/>
<path d="M354.007 604.054L363.454 609.507L364.226 336.963L354.78 331.509L354.007 604.054Z" fill="#896B4E"/>
<path d="M158.7 490.266L168.147 495.72L168.92 223.176L159.473 217.722L158.7 490.266Z" fill="#896B4E"/>
<path d="M363.452 609.508L371.271 609.833L372.044 337.288L364.225 336.964L363.452 609.508Z" fill="#AE8763"/>
<path d="M168.146 495.72L175.965 496.045L176.739 223.5L168.919 223.176L168.146 495.72Z" fill="#AE8763"/>
<path d="M371.271 609.833L378.637 614.085L379.41 341.54L372.045 337.288L371.271 609.833Z" fill="#896B4E"/>
<path d="M175.966 496.045L183.331 500.297L184.104 227.752L176.739 223.5L175.966 496.045Z" fill="#896B4E"/>
<path d="M378.637 614.084L379.222 618.612L379.996 346.067L379.409 341.539L378.637 614.084Z" fill="#806449"/>
<path d="M183.332 500.296L183.917 504.824L184.691 232.279L184.105 227.751L183.332 500.296Z" fill="#806449"/>
<path d="M379.222 618.614L388.668 624.067L389.44 351.522L379.995 346.069L379.222 618.614Z" fill="#896B4E"/>
<path d="M183.918 504.825L193.364 510.278L194.137 237.733L184.691 232.28L183.918 504.825Z" fill="#896B4E"/>
<path d="M388.668 624.064L396.488 624.389L397.259 351.844L389.441 351.52L388.668 624.064Z" fill="#AE8763"/>
<path d="M193.363 510.276L201.183 510.601L201.955 238.056L194.136 237.731L193.363 510.276Z" fill="#AE8763"/>
<path d="M396.487 624.39L403.851 628.642L404.624 356.097L397.259 351.845L396.487 624.39Z" fill="#896B4E"/>
<path d="M201.184 510.601L208.548 514.853L209.32 242.309L201.955 238.057L201.184 510.601Z" fill="#896B4E"/>
<path d="M403.852 628.643L404.438 633.172L405.21 360.627L404.624 356.099L403.852 628.643Z" fill="#806449"/>
<path d="M208.547 514.854L209.133 519.383L209.906 246.838L209.32 242.31L208.547 514.854Z" fill="#806449"/>
<path d="M404.438 633.171L413.884 638.624L414.656 366.08L405.211 360.626L404.438 633.171Z" fill="#896B4E"/>
<path d="M209.134 519.383L218.58 524.836L219.352 252.291L209.906 246.838L209.134 519.383Z" fill="#896B4E"/>
<path d="M413.883 638.623L421.702 638.947L422.474 366.403L414.655 366.078L413.883 638.623Z" fill="#AE8763"/>
<path d="M218.579 524.837L226.398 525.161L227.171 252.617L219.351 252.292L218.579 524.837Z" fill="#AE8763"/>
<path d="M421.703 638.947L429.068 643.199L429.841 370.655L422.476 366.403L421.703 638.947Z" fill="#896B4E"/>
<path d="M226.397 525.16L233.762 529.412L234.535 256.867L227.17 252.616L226.397 525.16Z" fill="#896B4E"/>
<path d="M429.067 643.201L429.654 647.73L430.426 375.184L429.84 370.656L429.067 643.201Z" fill="#806449"/>
<path d="M233.763 529.414L234.349 533.943L235.122 261.397L234.535 256.869L233.763 529.414Z" fill="#806449"/>
<path d="M429.653 647.729L439.098 653.182L439.871 380.637L430.426 375.184L429.653 647.729Z" fill="#896B4E"/>
<path d="M439.099 653.182L446.918 653.507L447.691 380.963L439.871 380.638L439.099 653.182Z" fill="#AE8763"/>
<path d="M446.918 653.508L454.284 657.76L455.057 385.216L447.691 380.963L446.918 653.508Z" fill="#896B4E"/>
<path d="M454.285 657.761L454.87 662.287L455.642 389.743L455.058 385.216L454.285 657.761Z" fill="#806449"/>
<path d="M454.867 662.288L464.314 667.742L465.087 395.198L455.64 389.744L454.867 662.288Z" fill="#896B4E"/>
<path d="M464.314 667.741L472.134 668.066L472.907 395.521L465.087 395.196L464.314 667.741Z" fill="#AE8763"/>
<path d="M472.135 668.066L479.5 672.318L480.272 399.774L472.907 395.521L472.135 668.066Z" fill="#896B4E"/>
<path d="M479.5 672.317L480.085 676.845L480.859 404.301L480.273 399.772L479.5 672.317Z" fill="#806449"/>
<path d="M480.086 676.846L489.532 682.299L490.304 409.754L480.859 404.301L480.086 676.846Z" fill="#896B4E"/>
<path d="M489.531 682.298L497.351 682.623L498.123 410.078L490.303 409.753L489.531 682.298Z" fill="#AE8763"/>
<path d="M497.351 682.623L504.715 686.875L505.487 414.33L498.123 410.078L497.351 682.623Z" fill="#896B4E"/>
<path d="M504.714 686.875L505.3 691.403L506.073 418.858L505.487 414.33L504.714 686.875Z" fill="#806449"/>
<path d="M505.3 691.403L514.745 696.857L515.518 424.312L506.072 418.858L505.3 691.403Z" fill="#896B4E"/>
<path d="M514.747 696.858L522.567 697.182L523.339 424.638L515.52 424.313L514.747 696.858Z" fill="#AE8763"/>
<path d="M522.564 697.181L529.929 701.433L530.702 428.89L523.337 424.637L522.564 697.181Z" fill="#896B4E"/>
<path d="M529.932 701.435L530.518 705.963L531.29 433.419L530.704 428.891L529.932 701.435Z" fill="#806449"/>
<path d="M530.519 705.962L539.964 711.415L540.736 438.871L531.291 433.418L530.519 705.962Z" fill="#896B4E"/>
<path d="M539.962 711.416L547.781 711.741L548.554 439.196L540.735 438.871L539.962 711.416Z" fill="#AE8763"/>
<path d="M547.782 711.741L555.147 715.992L555.92 443.448L548.555 439.196L547.782 711.741Z" fill="#896B4E"/>
<path d="M555.146 715.991L555.733 720.52L556.506 447.975L555.919 443.447L555.146 715.991Z" fill="#806449"/>
<path d="M555.733 720.519L565.179 725.973L565.952 453.428L556.506 447.975L555.733 720.519Z" fill="#896B4E"/>
<path d="M565.179 725.974L572.998 726.299L573.771 453.755L565.951 453.43L565.179 725.974Z" fill="#AE8763"/>
<path d="M572.997 726.3L580.362 730.552L581.134 458.007L573.77 453.755L572.997 726.3Z" fill="#896B4E"/>
<path d="M580.362 730.552L580.948 735.08L581.721 462.535L581.134 458.007L580.362 730.552Z" fill="#806449"/>
<path d="M580.947 735.08L590.392 740.533L591.165 467.988L581.72 462.535L580.947 735.08Z" fill="#896B4E"/>
<path d="M590.395 740.533L598.214 740.858L598.987 468.313L591.167 467.988L590.395 740.533Z" fill="#AE8763"/>
<path d="M598.216 740.857L605.58 745.109L606.352 472.565L598.988 468.312L598.216 740.857Z" fill="#896B4E"/>
<path d="M605.578 745.109L606.164 749.637L606.937 477.093L606.351 472.564L605.578 745.109Z" fill="#806449"/>
<path d="M606.165 749.638L615.61 755.091L616.383 482.546L606.938 477.093L606.165 749.638Z" fill="#896B4E"/>
<path d="M615.609 755.092L623.429 755.417L624.202 482.873L616.382 482.547L615.609 755.092Z" fill="#AE8763"/>
<path d="M623.43 755.416L630.794 759.668L631.567 487.123L624.202 482.872L623.43 755.416Z" fill="#896B4E"/>
<path d="M630.794 759.667L631.38 764.195L632.153 491.65L631.567 487.122L630.794 759.667Z" fill="#806449"/>
<path d="M631.379 764.197L640.824 769.651L641.597 497.106L632.152 491.652L631.379 764.197Z" fill="#896B4E"/>
<path d="M640.826 769.649L648.646 769.973L649.418 497.429L641.599 497.104L640.826 769.649Z" fill="#AE8763"/>
<path d="M648.645 769.974L656.009 774.226L656.782 501.681L649.417 497.429L648.645 769.974Z" fill="#896B4E"/>
<path d="M656.01 774.227L656.596 778.755L657.369 506.211L656.782 501.682L656.01 774.227Z" fill="#806449"/>
<path d="M656.595 778.753L666.041 784.207L666.814 511.662L657.367 506.209L656.595 778.753Z" fill="#896B4E"/>
<path d="M666.042 784.207L673.862 784.532L674.633 511.987L666.815 511.662L666.042 784.207Z" fill="#AE8763"/>
<path d="M673.861 784.532L681.225 788.784L681.998 516.239L674.633 511.987L673.861 784.532Z" fill="#896B4E"/>
<path d="M681.227 788.785L681.814 793.312L682.585 520.768L681.999 516.24L681.227 788.785Z" fill="#806449"/>
<path d="M690.737 798.466L693.509 796.855L694.282 524.311L691.51 525.921L690.737 798.466Z" fill="#C59970"/>
<path d="M681.814 793.312L690.739 798.465L691.512 525.921L682.586 520.768L681.814 793.312Z" fill="#896B4E"/>
<path d="M685.811 515.229L676.366 509.775L668.546 509.451L661.181 505.199L660.595 500.671L651.149 495.217L643.331 494.892L635.966 490.641L635.38 486.113L625.933 480.658L618.115 480.334L610.749 476.082L610.163 471.554L600.717 466.1L592.898 465.776L585.534 461.524L584.948 456.995L575.502 451.542L567.683 451.218L560.318 446.966L559.732 442.437L550.287 436.984L542.467 436.66L535.102 432.408L534.516 427.879L525.071 422.426L517.252 422.102L509.886 417.848L509.301 413.321L499.854 407.867L492.034 407.542L484.67 403.29L484.084 398.763L474.639 393.309L466.819 392.984L459.455 388.732L458.869 384.204L449.423 378.75L441.604 378.426L434.239 374.174L433.653 369.646L424.208 364.193L416.388 363.867L409.022 359.615L408.437 355.088L398.991 349.633L391.172 349.309L383.807 345.057L383.221 340.529L373.775 335.076L365.956 334.751L358.591 330.498L358.005 325.97L348.56 320.518L340.741 320.193L333.376 315.941L332.79 311.412L323.344 305.959L315.525 305.635L308.16 301.383L307.574 296.854L298.127 291.4L290.309 291.076L282.944 286.823L282.358 282.296L272.912 276.842L265.093 276.517L257.728 272.266L257.142 267.737L247.696 262.283L239.877 261.959L232.512 257.707L231.926 253.179L222.481 247.726L214.662 247.401L206.776 242.848L204.004 244.459L212.93 249.612L220.749 249.937L228.113 254.188L228.699 258.717L238.146 264.171L245.964 264.495L253.33 268.748L253.917 273.276L263.362 278.729L271.181 279.054L278.545 283.306L279.132 287.834L288.577 293.288L296.397 293.612L303.761 297.864L304.348 302.392L313.792 307.846L321.612 308.171L328.977 312.423L329.563 316.95L339.009 322.404L346.827 322.729L354.193 326.981L354.778 331.509L364.225 336.963L372.045 337.287L379.409 341.539L379.996 346.068L389.441 351.52L397.26 351.845L404.624 356.097L405.21 360.626L414.656 366.079L422.475 366.404L429.84 370.655L430.426 375.184L439.871 380.637L447.691 380.962L455.057 385.215L455.642 389.742L465.088 395.196L472.908 395.521L480.273 399.773L480.859 404.301L490.303 409.754L498.124 410.079L505.488 414.331L506.074 418.859L515.519 424.313L523.338 424.637L530.703 428.89L531.289 433.418L540.735 438.871L548.554 439.196L555.919 443.448L556.506 447.976L565.952 453.429L573.771 453.754L581.135 458.006L581.722 462.535L591.167 467.987L598.987 468.312L606.351 472.564L606.937 477.093L616.382 482.545L624.202 482.871L631.567 487.122L632.153 491.651L641.598 497.104L649.417 497.428L656.782 501.68L657.368 506.209L666.815 511.663L674.634 511.988L681.999 516.24L682.585 520.768L691.511 525.921L694.283 524.31L686.396 519.757L685.811 515.229Z" fill="#DCAB7D"/>
<path d="M490.507 401.442L481.062 395.988L473.242 395.664L465.878 391.412L465.292 386.884L455.846 381.43L448.027 381.105L440.662 376.854L440.076 372.326L430.629 366.871L422.811 366.547L415.445 362.295L414.859 357.767L405.413 352.313L397.595 351.988L390.23 347.736L389.644 343.208L380.198 337.755L372.379 337.43L365.014 333.178L364.428 328.65L354.983 323.197L347.164 322.872L339.799 318.62L339.213 314.092L329.767 308.639L321.948 308.314L314.582 304.061L313.997 299.533L304.55 294.08L296.731 293.755L289.367 289.503L288.78 284.975L279.335 279.522L271.516 279.197L264.151 274.945L263.565 270.417L254.12 264.963L246.3 264.639L238.935 260.387L238.349 255.859L228.904 250.406L221.085 250.08L213.718 245.828L213.134 241.301L203.688 235.846L195.868 235.521L188.503 231.27L187.917 226.742L178.471 221.288L170.652 220.963L163.288 216.711L162.702 212.183L153.256 206.73L145.437 206.405L138.072 202.153L137.486 197.625L128.041 192.172L120.221 191.847L112.856 187.595L112.27 183.067L102.824 177.613L95.0055 177.289L87.64 173.036L87.0538 168.508L77.6079 163.055L69.7891 162.73L62.4244 158.479L61.8382 153.95L52.3922 148.496L44.5735 148.172L37.2087 143.92L36.6225 139.392L27.1774 133.939L19.3578 133.614L11.4722 129.061L8.7002 130.672L17.626 135.825L25.4448 136.15L32.8095 140.401L33.3957 144.93L42.8425 150.384L50.6604 150.708L58.0268 154.961L58.6129 159.489L68.0581 164.942L75.8768 165.267L83.2416 169.519L83.8278 174.047L93.2737 179.5L101.093 179.825L108.457 184.077L109.044 188.605L118.489 194.058L126.308 194.383L133.673 198.635L134.259 203.163L143.706 208.617L151.524 208.941L158.889 213.194L159.475 217.722L168.921 223.176L176.741 223.5L184.106 227.752L184.692 232.28L194.137 237.733L201.956 238.058L209.321 242.31L209.907 246.838L219.352 252.292L227.171 252.617L234.536 256.868L235.122 261.396L244.568 266.85L252.387 267.175L259.753 271.428L260.338 275.955L269.785 281.409L277.604 281.734L284.969 285.986L285.555 290.514L295 295.967L302.82 296.292L310.184 300.544L310.77 305.072L320.215 310.525L328.035 310.85L335.4 315.102L335.986 319.631L345.431 325.083L353.25 325.408L360.615 329.66L361.202 334.189L370.648 339.642L378.468 339.967L385.832 344.219L386.419 348.747L395.864 354.2L403.683 354.525L411.047 358.777L411.633 363.305L421.079 368.758L428.898 369.084L436.263 373.335L436.849 377.863L446.294 383.317L454.114 383.641L461.478 387.893L462.065 392.422L471.511 397.876L479.33 398.201L486.695 402.453L487.281 406.981L496.207 412.134L498.979 410.523L491.093 405.97L490.507 401.442Z" fill="#DCAB7D"/>
<path d="M204.121 241.156L250.869 268.146L453.583 150.65L406.835 123.66L204.121 241.156Z" fill="#DCAB7D"/>
<path d="M8.81641 127.367L55.5645 154.356L258.279 36.861L211.531 9.87109L8.81641 127.367Z" fill="#DCAB7D"/>
<path d="M250.869 268.144L255.06 274.753L457.774 157.258L453.583 150.648L250.869 268.144Z" fill="#F7C08D"/>
<path d="M55.5654 154.357L59.7561 160.966L262.47 43.4707L258.28 36.8613L55.5654 154.357Z" fill="#F7C08D"/>
<path d="M255.061 274.753L262.427 279.006L465.14 161.511L457.775 157.258L255.061 274.753Z" fill="#DCAB7D"/>
<path d="M59.7559 160.965L67.1222 165.218L269.836 47.7226L262.47 43.4697L59.7559 160.965Z" fill="#DCAB7D"/>
<path d="M262.427 279.006L266.64 277.249L469.354 159.754L465.14 161.511L262.427 279.006Z" fill="#84674B"/>
<path d="M67.123 165.218L71.3365 163.46L274.05 45.9658L269.836 47.7228L67.123 165.218Z" fill="#84674B"/>
<path d="M266.641 277.249L276.087 282.703L478.801 165.207L469.354 159.754L266.641 277.249Z" fill="#DCAB7D"/>
<path d="M71.335 163.46L80.7809 168.915L283.495 51.4194L274.048 45.9658L71.335 163.46Z" fill="#DCAB7D"/>
<path d="M276.086 282.703L280.277 289.313L482.991 171.817L478.8 165.208L276.086 282.703Z" fill="#F7C08D"/>
<path d="M80.7812 168.916L84.9727 175.526L287.686 58.0303L283.495 51.4209L80.7812 168.916Z" fill="#F7C08D"/>
<path d="M280.277 289.313L287.642 293.565L490.355 176.069L482.991 171.817L280.277 289.313Z" fill="#DCAB7D"/>
<path d="M84.9736 175.524L92.3384 179.776L295.052 62.2804L287.687 58.0283L84.9736 175.524Z" fill="#DCAB7D"/>
<path d="M287.643 293.565L291.857 291.809L494.571 174.313L490.356 176.07L287.643 293.565Z" fill="#84674B"/>
<path d="M92.3379 179.776L96.5522 178.02L299.266 60.5244L295.051 62.2806L92.3379 179.776Z" fill="#84674B"/>
<path d="M291.856 291.809L301.302 297.262L504.016 179.766L494.571 174.313L291.856 291.809Z" fill="#DCAB7D"/>
<path d="M96.5508 178.02L105.996 183.473L308.71 65.9772L299.265 60.5244L96.5508 178.02Z" fill="#DCAB7D"/>
<path d="M301.301 297.263L305.492 303.871L508.206 186.376L504.015 179.767L301.301 297.263Z" fill="#F7C08D"/>
<path d="M105.998 183.475L110.19 190.083L312.903 72.5879L308.712 65.9785L105.998 183.475Z" fill="#F7C08D"/>
<path d="M305.493 303.87L312.858 308.122L515.571 190.627L508.207 186.375L305.493 303.87Z" fill="#DCAB7D"/>
<path d="M110.189 190.083L117.554 194.335L320.268 76.8399L312.903 72.5879L110.189 190.083Z" fill="#DCAB7D"/>
<path d="M312.859 308.123L317.074 306.367L519.788 188.871L515.573 190.627L312.859 308.123Z" fill="#84674B"/>
<path d="M117.556 194.336L121.77 192.579L324.484 75.084L320.269 76.8402L117.556 194.336Z" fill="#84674B"/>
<path d="M317.073 306.367L326.518 311.82L529.232 194.324L519.787 188.871L317.073 306.367Z" fill="#DCAB7D"/>
<path d="M121.77 192.579L131.215 198.033L333.929 80.5367L324.484 75.084L121.77 192.579Z" fill="#DCAB7D"/>
<path d="M326.518 311.82L330.708 318.43L533.422 200.934L529.232 194.324L326.518 311.82Z" fill="#F7C08D"/>
<path d="M131.213 198.032L135.404 204.642L338.118 87.1463L333.927 80.5361L131.213 198.032Z" fill="#F7C08D"/>
<path d="M330.708 318.43L338.073 322.682L540.787 205.187L533.422 200.935L330.708 318.43Z" fill="#DCAB7D"/>
<path d="M135.403 204.642L142.768 208.894L345.482 91.3985L338.117 87.1465L135.403 204.642Z" fill="#DCAB7D"/>
<path d="M338.073 322.682L342.288 320.925L545.002 203.43L540.787 205.187L338.073 322.682Z" fill="#84674B"/>
<path d="M142.769 208.894L146.984 207.137L349.698 89.6416L345.483 91.3986L142.769 208.894Z" fill="#84674B"/>
<path d="M342.289 320.925L351.734 326.379L554.448 208.883L545.003 203.43L342.289 320.925Z" fill="#DCAB7D"/>
<path d="M146.983 207.136L156.429 212.59L359.143 95.0942L349.698 89.6406L146.983 207.136Z" fill="#DCAB7D"/>
<path d="M351.733 326.378L355.924 332.988L558.638 215.492L554.448 208.883L351.733 326.378Z" fill="#F7C08D"/>
<path d="M156.429 212.59L160.619 219.2L363.334 101.704L359.143 95.0947L156.429 212.59Z" fill="#F7C08D"/>
<path d="M355.925 332.988L363.291 337.24L566.004 219.745L558.639 215.492L355.925 332.988Z" fill="#DCAB7D"/>
<path d="M160.62 219.199L167.986 223.452L370.7 105.957L363.334 101.704L160.62 219.199Z" fill="#DCAB7D"/>
<path d="M363.289 337.241L367.503 335.484L570.217 217.988L566.002 219.745L363.289 337.241Z" fill="#84674B"/>
<path d="M167.984 223.453L172.198 221.696L374.912 104.2L370.698 105.957L167.984 223.453Z" fill="#84674B"/>
<path d="M367.505 335.484L376.952 340.937L579.665 223.442L570.219 217.988L367.505 335.484Z" fill="#DCAB7D"/>
<path d="M172.199 221.696L181.646 227.149L384.359 109.654L374.913 104.2L172.199 221.696Z" fill="#DCAB7D"/>
<path d="M376.95 340.938L381.141 347.547L583.854 230.052L579.664 223.442L376.95 340.938Z" fill="#F7C08D"/>
<path d="M181.646 227.149L185.836 233.758L388.55 116.263L384.359 109.653L181.646 227.149Z" fill="#F7C08D"/>
<path d="M381.141 347.546L388.505 351.798L591.219 234.303L583.854 230.051L381.141 347.546Z" fill="#DCAB7D"/>
<path d="M185.838 233.758L193.203 238.01L395.916 120.515L388.551 116.263L185.838 233.758Z" fill="#DCAB7D"/>
<path d="M388.505 351.799L392.72 350.042L595.433 232.547L591.218 234.303L388.505 351.799Z" fill="#84674B"/>
<path d="M193.201 238.01L197.416 236.254L400.13 118.759L395.914 120.515L193.201 238.01Z" fill="#84674B"/>
<path d="M392.721 350.042L402.165 355.495L604.879 238L595.434 232.547L392.721 350.042Z" fill="#DCAB7D"/>
<path d="M197.417 236.254L206.861 241.707L409.575 124.212L400.13 118.759L197.417 236.254Z" fill="#DCAB7D"/>
<path d="M402.166 355.494L406.357 362.105L609.071 244.608L604.88 237.999L402.166 355.494Z" fill="#F7C08D"/>
<path d="M206.86 241.706L211.052 248.317L413.765 130.82L409.575 124.211L206.86 241.706Z" fill="#F7C08D"/>
<path d="M406.356 362.105L413.72 366.356L616.435 248.86L609.07 244.608L406.356 362.105Z" fill="#DCAB7D"/>
<path d="M211.054 248.316L218.418 252.567L421.132 135.071L413.767 130.819L211.054 248.316Z" fill="#DCAB7D"/>
<path d="M413.72 366.356L417.935 364.6L620.649 247.104L616.434 248.861L413.72 366.356Z" fill="#84674B"/>
<path d="M218.416 252.568L222.631 250.812L425.345 133.316L421.13 135.073L218.416 252.568Z" fill="#84674B"/>
<path d="M417.937 364.6L427.382 370.053L630.096 252.558L620.651 247.104L417.937 364.6Z" fill="#DCAB7D"/>
<path d="M222.63 250.812L232.075 256.265L434.789 138.77L425.344 133.316L222.63 250.812Z" fill="#DCAB7D"/>
<path d="M427.381 370.053L431.572 376.662L634.286 259.167L630.095 252.558L427.381 370.053Z" fill="#F7C08D"/>
<path d="M232.076 256.265L236.268 262.874L438.981 145.379L434.79 138.77L232.076 256.265Z" fill="#F7C08D"/>
<path d="M431.573 376.663L438.937 380.915L641.651 263.419L634.287 259.168L431.573 376.663Z" fill="#DCAB7D"/>
<path d="M438.938 380.915L443.153 379.159L645.867 261.663L641.652 263.419L438.938 380.915Z" fill="#84674B"/>
<path d="M443.152 379.159L452.597 384.612L655.312 267.117L645.866 261.663L443.152 379.159Z" fill="#DCAB7D"/>
<path d="M452.598 384.613L456.788 391.222L659.502 273.727L655.312 267.117L452.598 384.613Z" fill="#F7C08D"/>
<path d="M456.786 391.222L464.151 395.474L666.865 277.979L659.5 273.727L456.786 391.222Z" fill="#DCAB7D"/>
<path d="M464.152 395.474L468.367 393.717L671.081 276.222L666.866 277.979L464.152 395.474Z" fill="#84674B"/>
<path d="M468.365 393.716L477.812 399.17L680.525 281.675L671.079 276.221L468.365 393.716Z" fill="#DCAB7D"/>
<path d="M477.812 399.171L482.002 405.78L684.716 288.284L680.526 281.676L477.812 399.171Z" fill="#F7C08D"/>
<path d="M482.003 405.78L489.369 410.032L692.083 292.537L684.717 288.284L482.003 405.78Z" fill="#DCAB7D"/>
<path d="M489.37 410.032L493.584 408.276L696.299 290.78L692.083 292.536L489.37 410.032Z" fill="#84674B"/>
<path d="M493.583 408.276L503.028 413.729L705.742 296.233L696.297 290.78L493.583 408.276Z" fill="#DCAB7D"/>
<path d="M503.028 413.73L507.22 420.338L709.933 302.843L705.742 296.233L503.028 413.73Z" fill="#F7C08D"/>
<path d="M507.221 420.337L514.585 424.589L717.299 307.094L709.934 302.842L507.221 420.337Z" fill="#DCAB7D"/>
<path d="M514.585 424.59L518.799 422.833L721.513 305.338L717.298 307.094L514.585 424.59Z" fill="#84674B"/>
<path d="M518.799 422.833L528.244 428.286L730.958 310.791L721.513 305.338L518.799 422.833Z" fill="#DCAB7D"/>
<path d="M528.245 428.286L532.437 434.896L735.15 317.401L730.959 310.791L528.245 428.286Z" fill="#F7C08D"/>
<path d="M532.437 434.896L539.801 439.149L742.515 321.653L735.15 317.401L532.437 434.896Z" fill="#DCAB7D"/>
<path d="M539.799 439.15L544.014 437.393L746.728 319.897L742.513 321.654L539.799 439.15Z" fill="#84674B"/>
<path d="M544.015 437.392L553.46 442.845L756.174 325.35L746.729 319.896L544.015 437.392Z" fill="#DCAB7D"/>
<path d="M553.46 442.846L557.651 449.455L760.365 331.96L756.174 325.351L553.46 442.846Z" fill="#F7C08D"/>
<path d="M557.65 449.454L565.016 453.706L767.729 336.21L760.364 331.959L557.65 449.454Z" fill="#DCAB7D"/>
<path d="M565.017 453.706L569.231 451.949L771.944 334.453L767.73 336.209L565.017 453.706Z" fill="#84674B"/>
<path d="M569.229 451.949L578.675 457.402L781.389 339.907L771.943 334.453L569.229 451.949Z" fill="#DCAB7D"/>
<path d="M578.675 457.404L582.866 464.013L785.58 346.518L781.389 339.908L578.675 457.404Z" fill="#F7C08D"/>
<path d="M582.866 464.012L590.232 468.265L792.946 350.769L785.58 346.517L582.866 464.012Z" fill="#DCAB7D"/>
<path d="M590.232 468.265L594.447 466.509L797.161 349.013L792.947 350.77L590.232 468.265Z" fill="#84674B"/>
<path d="M594.447 466.509L603.892 471.962L806.607 354.466L797.161 349.013L594.447 466.509Z" fill="#DCAB7D"/>
<path d="M603.892 471.961L608.083 478.571L810.796 361.075L806.606 354.466L603.892 471.961Z" fill="#F7C08D"/>
<path d="M608.083 478.571L615.448 482.823L818.161 365.327L810.796 361.075L608.083 478.571Z" fill="#DCAB7D"/>
<path d="M615.449 482.824L619.663 481.068L822.378 363.572L818.163 365.328L615.449 482.824Z" fill="#84674B"/>
<path d="M619.662 481.068L629.107 486.521L831.821 369.026L822.376 363.572L619.662 481.068Z" fill="#DCAB7D"/>
<path d="M629.106 486.521L633.298 493.13L836.011 375.634L831.821 369.025L629.106 486.521Z" fill="#F7C08D"/>
<path d="M633.3 493.131L640.664 497.382L843.378 379.887L836.013 375.635L633.3 493.131Z" fill="#DCAB7D"/>
<path d="M640.664 497.381L644.879 495.624L847.592 378.129L843.378 379.885L640.664 497.381Z" fill="#84674B"/>
<path d="M644.877 495.624L691.626 522.615L894.34 405.12L847.59 378.129L644.877 495.624Z" fill="#DCAB7D"/>
<path d="M640.662 497.381L633.298 493.13L629.107 486.52L619.662 481.067L615.447 482.823L608.083 478.571L603.891 471.962L594.446 466.509L590.232 468.265L582.866 464.012L578.675 457.403L569.23 451.95L565.015 453.706L557.65 449.454L553.459 442.845L544.014 437.391L539.799 439.148L532.435 434.895L528.243 428.286L518.798 422.833L514.584 424.589L507.219 420.337L503.028 413.729L493.583 408.275L489.368 410.031L482.002 405.779L477.813 399.17L468.366 393.716L464.151 395.473L456.786 391.221L452.596 384.611L443.151 379.159L438.935 380.914L431.572 376.663L427.38 370.053L417.935 364.6L413.72 366.356L406.356 362.105L402.164 355.495L392.72 350.042L388.505 351.798L381.14 347.546L376.95 340.937L367.503 335.483L363.289 337.24L355.923 332.987L351.732 326.378L342.287 320.924L338.072 322.681L330.707 318.429L326.517 311.82L317.072 306.366L312.857 308.122L305.493 303.87L301.301 297.262L291.856 291.808L287.642 293.564L280.277 289.312L276.085 282.703L266.64 277.249L262.426 279.006L255.06 274.754L250.869 268.144L204.121 241.154L204.112 244.362L249.82 270.752L254.012 277.36L263.457 282.812L267.671 281.058L275.036 285.31L279.227 291.918L288.672 297.371L292.887 295.616L300.251 299.868L304.443 306.476L313.889 311.93L318.102 310.174L325.468 314.427L329.659 321.034L339.104 326.488L343.319 324.733L350.684 328.985L354.875 335.593L364.32 341.046L368.534 339.291L375.899 343.543L380.091 350.151L389.536 355.604L393.75 353.849L401.115 358.101L405.305 364.709L414.751 370.163L418.966 368.407L426.331 372.66L430.523 379.269L439.968 384.721L444.182 382.966L451.547 387.219L455.738 393.827L465.183 399.279L469.398 397.525L476.762 401.777L480.953 408.385L490.399 413.838L494.613 412.083L501.978 416.335L506.169 422.943L515.614 428.396L519.829 426.641L527.195 430.894L531.384 437.501L540.831 442.955L545.046 441.2L552.41 445.452L556.601 452.06L566.047 457.513L570.262 455.758L577.626 460.01L581.817 466.618L591.262 472.072L595.477 470.316L602.841 474.568L607.033 481.176L616.477 486.63L620.692 484.874L628.057 489.126L632.248 495.734L641.694 501.188L645.909 499.433L691.617 525.823L691.626 522.615L644.877 495.625L640.662 497.381Z" fill="#896B4E"/>
<path d="M445.358 383.593L437.994 379.342L433.803 372.732L424.358 367.279L420.144 369.035L412.779 364.783L408.587 358.173L399.142 352.721L394.928 354.477L387.562 350.224L383.371 343.615L373.926 338.162L369.712 339.918L362.346 335.666L358.155 329.057L348.71 323.603L344.495 325.36L337.131 321.107L332.94 314.498L323.495 309.045L319.28 310.801L311.915 306.549L307.724 299.941L298.279 294.487L294.065 296.243L286.698 291.991L282.509 285.382L273.062 279.928L268.847 281.685L261.483 277.433L257.292 270.823L247.847 265.37L243.632 267.126L236.268 262.875L232.076 256.265L222.631 250.812L218.416 252.568L211.052 248.317L206.861 241.706L197.416 236.254L193.201 238.01L185.837 233.758L181.646 227.148L172.199 221.695L167.986 223.452L160.619 219.199L156.429 212.59L146.984 207.136L142.768 208.893L135.404 204.641L131.213 198.032L121.768 192.578L117.554 194.334L110.189 190.082L105.997 183.474L96.5523 178.02L92.338 179.776L84.9732 175.524L80.7818 168.915L71.3358 163.461L67.1223 165.218L59.756 160.966L55.5654 154.356L8.81725 127.366L8.80859 130.574L54.5165 156.964L58.708 163.572L68.1531 169.024L72.3674 167.27L79.7321 171.522L83.9228 178.13L93.3687 183.583L97.583 181.828L104.948 186.08L109.139 192.688L118.585 198.142L122.799 196.386L130.164 200.638L134.356 207.246L143.801 212.7L148.015 210.945L155.38 215.196L159.571 221.805L169.016 227.258L173.231 225.503L180.595 229.755L184.787 236.363L194.232 241.816L198.446 240.061L205.811 244.313L210.002 250.921L219.448 256.375L223.662 254.619L231.028 258.872L235.219 265.481L244.664 270.933L248.878 269.178L256.243 273.431L260.434 280.039L269.88 285.491L274.094 283.737L281.459 287.989L285.649 294.597L295.095 300.05L299.31 298.295L306.674 302.547L310.865 309.155L320.31 314.608L324.525 312.853L331.891 317.106L336.081 323.713L345.527 329.167L349.742 327.412L357.106 331.663L361.297 338.272L370.743 343.725L374.958 341.97L382.322 346.222L386.514 352.83L395.958 358.284L400.173 356.528L407.538 360.78L411.729 367.388L421.174 372.842L425.389 371.086L432.753 375.338L436.944 381.946L446.391 387.4L450.606 385.645L496.314 412.035L496.322 408.827L449.573 381.837L445.358 383.593Z" fill="#896B4E"/>
<path d="M691.617 525.824L894.331 408.329L894.34 405.121L691.626 522.617L691.617 525.824Z" fill="#C59970"/>
<path d="M793.881 741.573L894.099 683.333L894.245 631.673L794.028 689.913L793.881 741.573Z" fill="#C59970"/>
<path d="M790.928 686.322L794.917 685.245L895.134 627.004L891.146 628.082L790.928 686.322Z" fill="#8A6B4F"/>
<path d="M794.176 637.476L798.145 643.148L898.363 584.908L894.394 579.236L794.176 637.476Z" fill="#F7C08D"/>
<path d="M798.015 688.835L898.233 630.595L898.363 584.909L798.145 643.149L798.015 688.835Z" fill="#C59970"/>
<path d="M794.176 637.476L894.394 579.236L894.609 503.159L794.392 561.4L794.176 637.476Z" fill="#C59970"/>
<path d="M791.292 557.809L795.28 556.731L895.499 498.491L891.51 499.568L791.292 557.809Z" fill="#8A6B4F"/>
<path d="M794.541 508.965L798.509 514.637L898.727 456.397L894.758 450.725L794.541 508.965Z" fill="#F7C08D"/>
<path d="M798.379 560.321L898.597 502.081L898.727 456.396L798.509 514.635L798.379 560.321Z" fill="#C59970"/>
<path d="M791.556 464.776L794.66 466.568L894.879 408.328L891.774 406.535L791.556 464.776Z" fill="#DCAB7D"/>
<path d="M794.541 508.964L894.758 450.723L894.879 408.328L794.661 466.568L794.541 508.964Z" fill="#C59970"/>
<path d="M794.66 466.568L791.555 464.775L791.43 508.972L795.4 514.644L795.28 556.73L791.292 557.808L791.066 637.485L795.036 643.157L794.917 685.244L790.927 686.321L790.776 739.78L793.88 741.572L794.028 689.913L798.014 688.834L798.144 643.148L794.175 637.477L794.392 561.4L798.379 560.321L798.509 514.635L794.541 508.964L794.66 466.568Z" fill="#896B4E"/>
<path d="M693.468 799.987L793.685 741.746L793.832 690.087L693.614 748.327L693.468 799.987Z" fill="#C59970"/>
<path d="M690.515 744.738L694.503 743.66L794.721 685.42L790.732 686.498L690.515 744.738Z" fill="#8A6B4F"/>
<path d="M693.763 695.893L697.731 701.564L797.949 643.324L793.981 637.652L693.763 695.893Z" fill="#F7C08D"/>
<path d="M697.602 747.25L797.82 689.009L797.95 643.323L697.732 701.564L697.602 747.25Z" fill="#C59970"/>
<path d="M693.763 695.892L793.981 637.652L794.196 561.575L693.978 619.816L693.763 695.892Z" fill="#C59970"/>
<path d="M690.879 616.224L694.867 615.146L795.085 556.905L791.096 557.983L690.879 616.224Z" fill="#8A6B4F"/>
<path d="M694.126 567.379L698.094 573.052L798.312 514.811L794.344 509.14L694.126 567.379Z" fill="#F7C08D"/>
<path d="M697.966 618.738L798.184 560.497L798.313 514.812L698.095 573.052L697.966 618.738Z" fill="#C59970"/>
<path d="M691.143 523.192L694.247 524.984L794.465 466.744L791.36 464.951L691.143 523.192Z" fill="#DCAB7D"/>
<path d="M694.126 567.38L794.344 509.14L794.464 466.745L694.246 524.985L694.126 567.38Z" fill="#C59970"/>
<path d="M694.247 524.985L691.142 523.192L691.017 567.389L694.986 573.061L694.867 615.147L690.878 616.225L690.652 695.901L694.622 701.574L694.503 743.66L690.514 744.738L690.362 798.197L693.467 799.989L693.613 748.33L697.6 747.251L697.731 701.565L693.762 695.894L693.978 619.817L697.965 618.738L698.094 573.052L694.127 567.38L694.247 524.985Z" fill="#896B4E"/>
<path d="M795.062 746.032L795.769 744.483L796.064 469.183L795.358 470.732L795.062 746.032Z" fill="#837B66"/>
<path d="M791.428 468.462L790.719 470.012L792.684 471.146L795.358 470.731L796.064 469.182L794.1 468.047L791.428 468.462Z" fill="#AA9F85"/>
<path d="M792.389 746.446L795.062 746.032L795.357 470.731L792.684 471.147L792.389 746.446Z" fill="#928972"/>
<path d="M790.423 745.313L792.388 746.447L792.683 471.147L790.717 470.013L790.423 745.313Z" fill="#6A6353"/>
<path d="M801.156 742.459L801.863 740.91L802.157 465.609L801.451 467.159L801.156 742.459Z" fill="#837B66"/>
<path d="M797.521 464.887L796.812 466.437L798.777 467.572L801.451 467.157L802.157 465.607L800.193 464.473L797.521 464.887Z" fill="#AA9F85"/>
<path d="M798.481 742.873L801.156 742.458L801.45 467.158L798.777 467.574L798.481 742.873Z" fill="#928972"/>
<path d="M796.517 741.739L798.481 742.873L798.776 467.573L796.812 466.438L796.517 741.739Z" fill="#6A6353"/>
<path d="M404.293 121.025L895.252 406.071L896.883 405.13L405.924 120.083L404.293 121.025Z" fill="#DBCDAB"/>
<path d="M208.988 7.23578L699.948 292.282L701.578 291.341L210.619 6.29395L208.988 7.23578Z" fill="#DBCDAB"/>
<path d="M895.251 406.07L890.218 408.977L890.222 410.851L895.257 407.944L896.887 407.003L896.882 405.129L895.251 406.07Z" fill="#C5B99A"/>
<path d="M399.259 123.929L399.264 125.803L890.223 410.85L890.218 408.975L399.259 123.929Z" fill="#88806A"/>
<path d="M203.954 10.1416L203.96 12.0158L694.918 297.063L694.913 295.188L203.954 10.1416Z" fill="#88806A"/>
<path d="M399.259 123.93L890.218 408.977L895.252 406.07L404.293 121.024L399.259 123.93Z" fill="#DBCDAB"/>
<path d="M203.954 10.1421L694.913 295.189L699.948 292.282L208.988 7.23633L203.954 10.1421Z" fill="#DBCDAB"/>
<path d="M202.009 242.854L202.025 248.494L693.068 533.756L693.052 528.118L202.009 242.854Z" fill="#88806A"/>
<path d="M6.7041 129.067L6.71984 134.707L497.763 419.969L497.748 414.331L6.7041 129.067Z" fill="#88806A"/>
<path d="M203.592 240.111L694.635 525.374L699.543 522.541L208.499 237.278L203.592 240.111Z" fill="#DBCDAB"/>
<path d="M8.28809 126.322L499.332 411.585L504.239 408.752L13.1956 123.489L8.28809 126.322Z" fill="#DBCDAB"/>
<path d="M699.544 522.541L694.636 525.374L693.047 526.293L693.052 528.119L693.068 533.757L694.658 532.84L694.642 527.201L699.549 524.368L699.544 522.541Z" fill="#C5B99A"/>
<path d="M202.003 241.029L202.008 242.856L693.052 528.119L693.046 526.292L202.003 241.029Z" fill="#88806A"/>
<path d="M6.69922 127.24L6.70472 129.066L497.748 414.33L497.743 412.503L6.69922 127.24Z" fill="#88806A"/>
<path d="M202.003 241.029L693.046 526.292L694.636 525.373L203.592 240.11L202.003 241.029Z" fill="#DBCDAB"/>
<path d="M6.69922 127.241L497.743 412.505L499.332 411.586L8.28862 126.323L6.69922 127.241Z" fill="#DBCDAB"/>
<path d="M693.446 792.528L691.856 793.447L691.861 795.274L691.878 800.912L693.467 799.994L693.451 794.355L693.446 792.528Z" fill="#C5B99A"/>
<path d="M691.856 793.446L200.812 508.183L200.817 510.01L200.834 515.648L691.877 800.911L691.861 795.273L691.856 793.446Z" fill="#88806A"/>
<path d="M496.552 679.659L5.50781 394.396L5.51332 396.223L5.52984 401.861L496.573 687.124L496.557 681.486L496.552 679.659Z" fill="#88806A"/>
<path d="M200.812 508.183L691.856 793.446L693.445 792.528L202.402 507.266L200.812 508.183Z" fill="#DBCDAB"/>
<path d="M5.50781 394.395L496.552 679.658L498.142 678.74L7.098 393.478L5.50781 394.395Z" fill="#DBCDAB"/>
<path d="M5.38867 130.294L25.423 141.861L28.4885 140.079L8.45418 128.513L5.38867 130.294Z" fill="#DCCEAC"/>
<path d="M24.6465 415.929L27.712 414.148L28.4886 140.079L25.4231 141.861L24.6465 415.929Z" fill="#C5B99A"/>
<path d="M4.61328 404.363L24.6476 415.929L25.4242 141.861L5.38988 130.294L4.61328 404.363Z" fill="#89806B"/>
<path d="M669.567 514.818L689.75 526.47L692.838 524.676L672.655 513.023L669.567 514.818Z" fill="#DCCEAC"/>
<path d="M688.966 802.566L692.054 800.772L692.837 524.677L689.749 526.472L688.966 802.566Z" fill="#C5B99A"/>
<path d="M668.784 790.915L688.966 802.567L689.749 526.473L669.567 514.82L668.784 790.915Z" fill="#89806B"/>
<path d="M670.179 516.451L689.539 527.629L689.549 524.201L670.188 513.023L670.179 516.451Z" fill="#89806B"/>
<path d="M689.538 527.631L896.879 407.138L896.888 403.71L689.548 524.203L689.538 527.631Z" fill="#C5B99A"/>
<path d="M670.188 513.026L689.548 524.203L896.888 403.71L877.528 392.533L670.188 513.026Z" fill="#DCCEAC"/>
<path d="M5.39941 130.138L24.9026 141.399L24.9121 137.946L5.40886 126.686L5.39941 130.138Z" fill="#89806B"/>
<path d="M24.9043 141.399L233.779 20.014L233.788 16.5605L24.9137 137.945L24.9043 141.399Z" fill="#C5B99A"/>
<path d="M5.4082 126.685L24.9114 137.946L233.786 16.5611L214.282 5.30078L5.4082 126.685Z" fill="#DCCEAC"/>
<path d="M689.566 524.201L692.694 526.007L706.749 518.043L703.622 516.237L689.566 524.201Z" fill="#DCCEAC"/>
<path d="M691.905 803.771L705.96 795.808L706.748 518.044L692.693 526.008L691.905 803.771Z" fill="#C5B99A"/>
<path d="M688.777 801.966L691.905 803.772L692.693 526.008L689.565 524.202L688.777 801.966Z" fill="#89806B"/>
<path d="M882.794 411.893L885.921 413.699L899.898 405.516L896.77 403.71L882.794 411.893Z" fill="#DCCEAC"/>
<path d="M885.134 691.462L899.11 683.279L899.898 405.515L885.921 413.698L885.134 691.462Z" fill="#C5B99A"/>
<path d="M882.006 689.657L885.134 691.463L885.92 413.698L882.793 411.893L882.006 689.657Z" fill="#89806B"/>
<mask id="mask0_264_710" style="mask-type:luminance" maskUnits="userSpaceOnUse" x="10" y="401" width="10" height="5">
<path d="M19.7033 402.231L15.1098 404.901C13.8076 405.658 12.0042 405.552 10.0127 404.402L14.6062 401.732C16.5977 402.881 18.4003 402.987 19.7033 402.231Z" fill="white"/>
</mask>
<g mask="url(#mask0_264_710)">
<path d="M10.0127 404.401C10.2377 404.531 10.4596 404.648 10.6799 404.752L15.2735 402.082C15.0539 401.979 14.832 401.862 14.607 401.732L10.0127 404.401Z" fill="#CEC1A1"/>
<path d="M10.6797 404.751C10.9236 404.866 11.1636 404.965 11.3996 405.048L15.9932 402.379C15.7571 402.295 15.5171 402.197 15.2732 402.082L10.6797 404.751Z" fill="#C2B697"/>
<path d="M11.3994 405.05C11.6481 405.137 11.8912 405.207 12.1296 405.26L16.7231 402.59C16.4847 402.537 16.2408 402.467 15.9929 402.38L11.3994 405.05Z" fill="#B6AB8E"/>
<path d="M12.1299 405.258C12.3966 405.317 12.6563 405.355 12.9081 405.372L17.5016 402.703C17.2498 402.685 16.9894 402.647 16.7234 402.588L12.1299 405.258Z" fill="#A99E84"/>
<path d="M12.9072 405.373C13.218 405.394 13.5178 405.385 13.8034 405.345L18.397 402.675C18.1113 402.715 17.8116 402.724 17.5008 402.703L12.9072 405.373Z" fill="#9D937A"/>
<path d="M13.8037 405.344C14.279 405.278 14.7164 405.128 15.1083 404.9L19.7018 402.23C19.3092 402.459 18.8717 402.608 18.3972 402.675L13.8037 405.344Z" fill="#918871"/>
</g>
<mask id="mask1_264_710" style="mask-type:luminance" maskUnits="userSpaceOnUse" x="2" y="384" width="13" height="21">
<path d="M4.96292 387.438L9.55645 384.769C8.27077 385.516 7.47291 387.105 7.46662 389.364C7.45324 393.911 10.6494 399.449 14.6071 401.734L10.0136 404.404C6.05583 402.119 2.85971 396.581 2.87309 392.033C2.87938 389.775 3.67723 388.186 4.96292 387.438Z" fill="white"/>
</mask>
<g mask="url(#mask1_264_710)">
<path d="M3.36133 389.342L7.95486 386.672C8.3168 385.813 8.8668 385.169 9.55685 384.769L4.96332 387.438C4.27326 387.84 3.72327 388.482 3.36133 389.342Z" fill="#918871"/>
<path d="M3.05957 390.291L7.65389 387.621C7.73178 387.28 7.83329 386.963 7.95524 386.672L3.36172 389.342C3.23897 389.634 3.13747 389.95 3.05957 390.291Z" fill="#9D937A"/>
<path d="M2.91895 391.155L7.51247 388.485C7.54395 388.182 7.59116 387.894 7.6541 387.621L3.05979 390.291C2.99763 390.564 2.95042 390.852 2.91895 391.155Z" fill="#A99E84"/>
<path d="M2.87305 392.013L7.46658 389.343C7.46815 389.045 7.4831 388.759 7.51142 388.484L2.9179 391.154C2.88957 391.428 2.87462 391.714 2.87305 392.013Z" fill="#B6AB8E"/>
<path d="M7.46671 389.344L2.87319 392.013C2.87319 392.021 2.87319 392.027 2.87319 392.034C2.87161 392.312 2.88341 392.594 2.90623 392.878L7.49976 390.208C7.47694 389.924 7.46593 389.642 7.46671 389.364C7.46671 389.358 7.46671 389.351 7.46671 389.344Z" fill="#C2B697"/>
<path d="M2.90625 392.878C2.92985 393.172 2.96526 393.469 3.01247 393.768L7.606 391.099C7.55879 390.8 7.52338 390.502 7.49978 390.208L2.90625 392.878Z" fill="#CEC1A1"/>
<path d="M3.01172 393.768C3.06129 394.083 3.12424 394.4 3.19898 394.718L7.79251 392.048C7.71776 391.73 7.65482 391.413 7.60525 391.099L3.01172 393.768Z" fill="#DACCAA"/>
<path d="M3.2002 394.719C3.28439 395.077 3.38431 395.437 3.49919 395.796L8.09272 393.126C7.97785 392.767 7.8787 392.408 7.79372 392.049L3.2002 394.719Z" fill="#E7D9B4"/>
<path d="M3.49902 395.795C3.64223 396.243 3.80747 396.691 3.99395 397.133L8.58747 394.463C8.40178 394.02 8.23576 393.573 8.09334 393.125L3.49902 395.795Z" fill="#F3E4BE"/>
<path d="M3.99316 397.134C4.79023 399.03 5.96418 400.838 7.35608 402.283L11.9496 399.614C10.5577 398.169 9.38297 396.36 8.58591 394.464L3.99316 397.134Z" fill="white"/>
<path d="M7.35645 402.283C7.67669 402.615 8.00794 402.928 8.34864 403.219L12.9422 400.549C12.6015 400.259 12.2694 399.946 11.95 399.614L7.35645 402.283Z" fill="#F3E4BE"/>
<path d="M8.34863 403.22C8.61773 403.449 8.89233 403.664 9.17244 403.863L13.766 401.193C13.4859 400.994 13.2105 400.78 12.9422 400.55L8.34863 403.22Z" fill="#E7D9B4"/>
<path d="M9.17188 403.863C9.42445 404.042 9.68175 404.21 9.94219 404.364L14.5365 401.694C14.2761 401.54 14.0188 401.373 13.7662 401.193L9.17188 403.863Z" fill="#DACCAA"/>
<path d="M9.94238 404.362C9.96599 404.375 9.98959 404.39 10.0132 404.403L14.6067 401.733C14.5831 401.719 14.5595 401.706 14.5359 401.692L9.94238 404.362Z" fill="#CEC1A1"/>
</g>
<path d="M0 407.032L19.9753 418.565L20.0524 391.232L0.0771093 379.699L0 407.032ZM10.0581 387.935C14.0159 390.22 17.212 395.758 17.1986 400.303C17.1852 404.85 13.9694 406.686 10.0117 404.401C6.05389 402.116 2.85778 396.578 2.87115 392.03C2.88374 387.487 6.10032 385.65 10.0581 387.935Z" fill="#8E856F"/>
<path d="M0.0771484 379.699L20.0525 391.232L24.6468 388.562L4.67147 377.029L0.0771484 379.699Z" fill="#DDCFAC"/>
<path d="M19.9756 418.565L24.5691 415.895L24.647 388.562L20.0527 391.232L19.9756 418.565Z" fill="#C7BB9B"/>
<mask id="mask2_264_710" style="mask-type:luminance" maskUnits="userSpaceOnUse" x="677" y="789" width="10" height="5">
<path d="M686.963 789.974L682.37 792.644C681.067 793.401 679.264 793.294 677.272 792.144L681.867 789.475C683.857 790.624 685.661 790.731 686.963 789.974Z" fill="white"/>
</mask>
<g mask="url(#mask2_264_710)">
<path d="M677.272 792.144C677.497 792.273 677.72 792.39 677.94 792.494L682.533 789.824C682.314 789.721 682.091 789.604 681.867 789.475L677.272 792.144Z" fill="#CEC1A1"/>
<path d="M677.938 792.494C678.182 792.609 678.423 792.707 678.659 792.791L683.254 790.121C683.017 790.037 682.777 789.939 682.533 789.824L677.938 792.494Z" fill="#C2B697"/>
<path d="M678.659 792.791C678.908 792.878 679.151 792.948 679.389 793.001L683.983 790.331C683.744 790.278 683.501 790.208 683.253 790.121L678.659 792.791Z" fill="#B6AB8E"/>
<path d="M679.39 793.001C679.656 793.061 679.916 793.098 680.168 793.116L684.761 790.446C684.509 790.429 684.25 790.391 683.983 790.331L679.39 793.001Z" fill="#A99E84"/>
<path d="M680.168 793.116C680.479 793.137 680.779 793.128 681.064 793.088L685.658 790.418C685.371 790.458 685.072 790.468 684.762 790.446L680.168 793.116Z" fill="#9D937A"/>
<path d="M681.064 793.086C681.539 793.02 681.977 792.871 682.369 792.642L686.963 789.973C686.57 790.201 686.132 790.35 685.658 790.417L681.064 793.086Z" fill="#918871"/>
</g>
<mask id="mask3_264_710" style="mask-type:luminance" maskUnits="userSpaceOnUse" x="670" y="772" width="12" height="21">
<path d="M672.221 775.182L676.814 772.513C675.528 773.26 674.731 774.85 674.724 777.108C674.711 781.656 677.908 787.193 681.865 789.478L677.27 792.148C673.313 789.863 670.117 784.325 670.13 779.778C670.137 777.519 670.934 775.929 672.221 775.182Z" fill="white"/>
</mask>
<g mask="url(#mask3_264_710)">
<path d="M670.621 777.084L675.215 774.414C675.577 773.555 676.126 772.912 676.816 772.511L672.222 775.18C671.532 775.582 670.982 776.225 670.621 777.084Z" fill="#918871"/>
<path d="M670.319 778.033L674.914 775.363C674.992 775.022 675.092 774.706 675.216 774.414L670.622 777.084C670.499 777.375 670.397 777.692 670.319 778.033Z" fill="#9D937A"/>
<path d="M670.178 778.897L674.771 776.227C674.803 775.924 674.85 775.636 674.913 775.363L670.319 778.033C670.256 778.306 670.209 778.593 670.178 778.897Z" fill="#A99E84"/>
<path d="M670.133 779.755L674.726 777.085C674.728 776.787 674.743 776.5 674.771 776.227L670.178 778.896C670.149 779.171 670.134 779.457 670.133 779.755Z" fill="#B6AB8E"/>
<path d="M674.726 777.085L670.133 779.755C670.133 779.762 670.133 779.769 670.133 779.775C670.132 780.054 670.143 780.335 670.166 780.619L674.759 777.95C674.737 777.665 674.726 777.383 674.726 777.105C674.726 777.099 674.726 777.092 674.726 777.085Z" fill="#C2B697"/>
<path d="M670.166 780.621C670.19 780.915 670.225 781.213 670.272 781.512L674.866 778.842C674.819 778.543 674.782 778.245 674.76 777.951L670.166 780.621Z" fill="#CEC1A1"/>
<path d="M670.271 781.511C670.321 781.825 670.384 782.142 670.459 782.46L675.052 779.791C674.978 779.473 674.915 779.156 674.865 778.841L670.271 781.511Z" fill="#DACCAA"/>
<path d="M670.46 782.461C670.544 782.82 670.644 783.179 670.759 783.538L675.352 780.868C675.238 780.509 675.138 780.15 675.053 779.791L670.46 782.461Z" fill="#E7D9B4"/>
<path d="M670.759 783.538C670.902 783.986 671.067 784.433 671.253 784.876L675.847 782.207C675.661 781.764 675.495 781.317 675.352 780.868L670.759 783.538Z" fill="#F3E4BE"/>
<path d="M671.253 784.876C672.051 786.772 673.225 788.58 674.617 790.026L679.21 787.356C677.818 785.91 676.644 784.102 675.847 782.206L671.253 784.876Z" fill="white"/>
<path d="M674.616 790.026C674.936 790.358 675.267 790.671 675.608 790.961L680.202 788.291C679.861 788.001 679.53 787.688 679.21 787.355L674.616 790.026Z" fill="#F3E4BE"/>
<path d="M675.608 790.962C675.877 791.191 676.153 791.406 676.432 791.605L681.026 788.936C680.746 788.737 680.47 788.521 680.202 788.292L675.608 790.962Z" fill="#E7D9B4"/>
<path d="M676.432 791.604C676.684 791.784 676.942 791.951 677.202 792.105L681.795 789.435C681.535 789.282 681.278 789.114 681.025 788.935L676.432 791.604Z" fill="#DACCAA"/>
<path d="M677.203 792.104C677.227 792.118 677.25 792.132 677.273 792.145L681.867 789.475C681.844 789.461 681.82 789.448 681.797 789.435L677.203 792.104Z" fill="#CEC1A1"/>
</g>
<path d="M667.262 794.775L687.237 806.308L687.314 778.975L667.339 767.442L667.262 794.775ZM677.32 775.679C681.278 777.964 684.473 783.502 684.46 788.047C684.447 792.595 681.23 794.431 677.273 792.145C673.315 789.86 670.12 784.322 670.132 779.774C670.145 775.23 673.362 773.394 677.32 775.679Z" fill="#8E856F"/>
<path d="M667.339 767.442L687.313 778.974L691.908 776.305L671.932 764.771L667.339 767.442Z" fill="#DDCFAC"/>
<path d="M687.235 806.308L691.829 803.638L691.907 776.306L687.312 778.975L687.235 806.308Z" fill="#C7BB9B"/>
<mask id="mask4_264_710" style="mask-type:luminance" maskUnits="userSpaceOnUse" x="678" y="539" width="10" height="4">
<path d="M687.895 539.687L683.301 542.357C681.999 543.114 680.196 543.007 678.204 541.857L682.798 539.188C684.788 540.338 686.592 540.444 687.895 539.687Z" fill="white"/>
</mask>
<g mask="url(#mask4_264_710)">
<path d="M678.204 541.858C678.429 541.988 678.651 542.105 678.871 542.209L683.464 539.539C683.245 539.436 683.022 539.319 682.797 539.189L678.204 541.858Z" fill="#CEC1A1"/>
<path d="M678.87 542.209C679.114 542.324 679.355 542.422 679.59 542.505L684.184 539.836C683.948 539.753 683.707 539.654 683.463 539.539L678.87 542.209Z" fill="#C2B697"/>
<path d="M679.591 542.505C679.839 542.593 680.083 542.663 680.321 542.716L684.915 540.046C684.676 539.993 684.432 539.923 684.184 539.835L679.591 542.505Z" fill="#B6AB8E"/>
<path d="M680.321 542.716C680.587 542.775 680.847 542.813 681.099 542.831L685.693 540.161C685.441 540.143 685.181 540.106 684.915 540.046L680.321 542.716Z" fill="#A99E84"/>
<path d="M681.1 542.831C681.41 542.852 681.709 542.843 681.996 542.803L686.589 540.133C686.303 540.173 686.004 540.182 685.693 540.161L681.1 542.831Z" fill="#9D937A"/>
<path d="M681.996 542.802C682.471 542.735 682.909 542.585 683.301 542.357L687.895 539.688C687.502 539.916 687.065 540.065 686.59 540.132L681.996 542.802Z" fill="#918871"/>
</g>
<mask id="mask5_264_710" style="mask-type:luminance" maskUnits="userSpaceOnUse" x="671" y="522" width="12" height="20">
<path d="M673.156 524.892L677.75 522.223C676.463 522.97 675.666 524.56 675.66 526.818C675.647 531.365 678.843 536.903 682.801 539.188L678.207 541.858C674.249 539.573 671.054 534.035 671.066 529.487C671.073 527.229 671.87 525.64 673.156 524.892Z" fill="white"/>
</mask>
<g mask="url(#mask5_264_710)">
<path d="M671.553 526.796L676.146 524.126C676.508 523.267 677.057 522.623 677.747 522.223L673.154 524.892C672.465 525.294 671.915 525.937 671.553 526.796Z" fill="#918871"/>
<path d="M671.251 527.745L675.844 525.075C675.922 524.734 676.024 524.418 676.147 524.126L671.553 526.796C671.43 527.088 671.329 527.405 671.251 527.745Z" fill="#9D937A"/>
<path d="M671.11 528.609L675.704 525.939C675.735 525.636 675.783 525.348 675.845 525.075L671.251 527.745C671.189 528.018 671.142 528.306 671.11 528.609Z" fill="#A99E84"/>
<path d="M671.065 529.467L675.66 526.797C675.661 526.499 675.676 526.212 675.705 525.938L671.111 528.608C671.082 528.883 671.067 529.168 671.065 529.467Z" fill="#B6AB8E"/>
<path d="M675.659 526.797L671.064 529.467C671.064 529.474 671.064 529.481 671.064 529.487C671.064 529.765 671.075 530.047 671.098 530.331L675.691 527.662C675.668 527.377 675.657 527.095 675.658 526.817C675.659 526.811 675.659 526.804 675.659 526.797Z" fill="#C2B697"/>
<path d="M671.098 530.332C671.12 530.626 671.157 530.924 671.204 531.223L675.797 528.554C675.75 528.255 675.715 527.957 675.691 527.663L671.098 530.332Z" fill="#CEC1A1"/>
<path d="M671.204 531.223C671.254 531.537 671.317 531.854 671.391 532.172L675.985 529.503C675.91 529.185 675.847 528.868 675.798 528.554L671.204 531.223Z" fill="#DACCAA"/>
<path d="M671.392 532.173C671.476 532.531 671.576 532.891 671.691 533.25L676.284 530.58C676.17 530.221 676.069 529.862 675.986 529.503L671.392 532.173Z" fill="#E7D9B4"/>
<path d="M671.691 533.249C671.835 533.697 672 534.144 672.186 534.587L676.779 531.917C676.593 531.475 676.427 531.028 676.284 530.579L671.691 533.249Z" fill="#F3E4BE"/>
<path d="M672.186 534.588C672.983 536.484 674.157 538.292 675.549 539.738L680.143 537.068C678.751 535.623 677.577 533.814 676.78 531.919L672.186 534.588Z" fill="white"/>
<path d="M675.549 539.738C675.868 540.07 676.2 540.383 676.541 540.674L681.135 538.004C680.794 537.714 680.463 537.4 680.142 537.068L675.549 539.738Z" fill="#F3E4BE"/>
<path d="M676.541 540.673C676.81 540.902 677.085 541.117 677.365 541.316L681.958 538.647C681.679 538.447 681.404 538.232 681.135 538.003L676.541 540.673Z" fill="#E7D9B4"/>
<path d="M677.364 541.315C677.617 541.495 677.874 541.662 678.135 541.816L682.728 539.146C682.468 538.993 682.211 538.826 681.958 538.646L677.364 541.315Z" fill="#DACCAA"/>
<path d="M678.136 541.817C678.159 541.831 678.183 541.845 678.207 541.858L682.8 539.188C682.777 539.174 682.753 539.161 682.729 539.146L678.136 541.817Z" fill="#CEC1A1"/>
</g>
<path d="M668.193 544.489L688.169 556.022L688.247 528.689L668.271 517.156L668.193 544.489ZM678.251 525.392C682.208 527.677 685.405 533.215 685.392 537.76C685.379 542.308 682.162 544.144 678.205 541.858C674.247 539.573 671.051 534.035 671.064 529.487C671.077 524.943 674.294 523.107 678.251 525.392Z" fill="#8E856F"/>
<path d="M668.271 517.157L688.245 528.69L692.839 526.02L672.864 514.487L668.271 517.157Z" fill="#DDCFAC"/>
<path d="M688.167 556.023L692.761 553.354L692.838 526.021L688.244 528.69L688.167 556.023Z" fill="#C7BB9B"/>
<mask id="mask6_264_710" style="mask-type:luminance" maskUnits="userSpaceOnUse" x="10" y="151" width="11" height="5">
<path d="M20.4779 151.885L15.8844 154.555C14.5822 155.312 12.7788 155.205 10.7881 154.055L15.3816 151.386C17.3723 152.536 19.1757 152.642 20.4779 151.885Z" fill="white"/>
</mask>
<g mask="url(#mask6_264_710)">
<path d="M10.7871 154.058C11.0121 154.187 11.234 154.304 11.4543 154.408L16.0479 151.738C15.8283 151.635 15.6057 151.518 15.3806 151.389L10.7871 154.058Z" fill="#CEC1A1"/>
<path d="M11.4541 154.407C11.698 154.522 11.938 154.62 12.1748 154.704L16.7684 152.034C16.5323 151.951 16.2915 151.852 16.0484 151.737L11.4541 154.407Z" fill="#C2B697"/>
<path d="M12.1738 154.704C12.4217 154.791 12.6656 154.861 12.904 154.914L17.4983 152.244C17.2599 152.192 17.016 152.122 16.7681 152.034L12.1738 154.704Z" fill="#B6AB8E"/>
<path d="M12.9043 154.914C13.171 154.973 13.4307 155.011 13.6825 155.029L18.276 152.359C18.0242 152.342 17.7646 152.304 17.4978 152.244L12.9043 154.914Z" fill="#A99E84"/>
<path d="M13.6826 155.028C13.9934 155.049 14.2932 155.04 14.5796 155L19.1731 152.33C18.8875 152.37 18.5877 152.38 18.2769 152.358L13.6826 155.028Z" fill="#9D937A"/>
<path d="M14.5801 154.999C15.0545 154.932 15.492 154.784 15.8847 154.555L20.4782 151.886C20.0855 152.114 19.6481 152.263 19.1736 152.33L14.5801 154.999Z" fill="#918871"/>
</g>
<mask id="mask7_264_710" style="mask-type:luminance" maskUnits="userSpaceOnUse" x="3" y="134" width="13" height="21">
<path d="M5.73928 137.091L10.3328 134.421C9.04635 135.168 8.24928 136.758 8.24298 139.016C8.22961 143.564 11.4265 149.102 15.3835 151.387L10.79 154.056C6.8322 151.771 3.63608 146.234 3.64946 141.686C3.65575 139.428 4.45281 137.838 5.73928 137.091Z" fill="white"/>
</mask>
<g mask="url(#mask7_264_710)">
<path d="M4.1377 138.994L8.73201 136.324C9.09395 135.465 9.64317 134.821 10.3332 134.421L5.73968 137.091C5.04884 137.492 4.49964 138.135 4.1377 138.994Z" fill="#918871"/>
<path d="M3.83594 139.943L8.42947 137.273C8.50737 136.932 8.60887 136.616 8.73161 136.324L4.1373 138.994C4.01455 139.286 3.91383 139.602 3.83594 139.943Z" fill="#9D937A"/>
<path d="M3.69531 140.807L8.28885 138.137C8.31953 137.834 8.36753 137.546 8.42969 137.273L3.83616 139.943C3.77321 140.216 3.726 140.504 3.69531 140.807Z" fill="#A99E84"/>
<path d="M3.64941 141.666L8.24294 138.996C8.24452 138.698 8.25947 138.412 8.28858 138.138L3.69505 140.807C3.66594 141.081 3.65099 141.368 3.64941 141.666Z" fill="#B6AB8E"/>
<path d="M8.24298 138.996L3.64945 141.666C3.64945 141.673 3.64945 141.68 3.64945 141.686C3.64867 141.964 3.65968 142.247 3.6825 142.531L8.27603 139.861C8.25321 139.576 8.2422 139.294 8.24298 139.016C8.24298 139.009 8.24298 139.003 8.24298 138.996Z" fill="#C2B697"/>
<path d="M3.68262 142.53C3.70622 142.824 3.74163 143.122 3.78884 143.421L8.38237 140.751C8.33516 140.452 8.29975 140.155 8.27615 139.86L3.68262 142.53Z" fill="#CEC1A1"/>
<path d="M3.78809 143.421C3.83766 143.736 3.9006 144.053 3.97535 144.371L8.56967 141.701C8.49413 141.383 8.43197 141.066 8.3824 140.752L3.78809 143.421Z" fill="#DACCAA"/>
<path d="M3.97656 144.371C4.06075 144.73 4.16147 145.089 4.27556 145.448L8.86909 142.778C8.75421 142.42 8.65507 142.059 8.57088 141.701L3.97656 144.371Z" fill="#E7D9B4"/>
<path d="M4.27539 145.447C4.41859 145.896 4.58383 146.342 4.77031 146.785L9.36384 144.116C9.17736 143.674 9.01213 143.226 8.86893 142.777L4.27539 145.447Z" fill="#F3E4BE"/>
<path d="M4.76953 146.786C5.56659 148.682 6.74133 150.49 8.13245 151.936L12.726 149.266C11.3341 147.821 10.1601 146.012 9.36306 144.116L4.76953 146.786Z" fill="white"/>
<path d="M8.13281 151.935C8.45305 152.267 8.78431 152.581 9.12501 152.871L13.7185 150.201C13.3771 149.911 13.0466 149.598 12.7263 149.266L8.13281 151.935Z" fill="#F3E4BE"/>
<path d="M9.125 152.872C9.3941 153.101 9.66871 153.316 9.94882 153.515L14.5423 150.845C14.2622 150.646 13.9876 150.431 13.7185 150.202L9.125 152.872Z" fill="#E7D9B4"/>
<path d="M9.94824 153.514C10.2008 153.695 10.4581 153.861 10.7185 154.015L15.3121 151.345C15.0516 151.193 14.7951 151.025 14.5418 150.845L9.94824 153.514Z" fill="#DACCAA"/>
<path d="M10.7197 154.015C10.7433 154.029 10.7669 154.043 10.7905 154.056L15.3841 151.386C15.3605 151.372 15.3369 151.359 15.3133 151.345L10.7197 154.015Z" fill="#CEC1A1"/>
</g>
<path d="M0.780273 156.687L20.7556 168.219L20.8335 140.886L0.858175 129.354L0.780273 156.687ZM10.8384 137.589C14.7953 139.874 17.9915 145.412 17.9789 149.958C17.9663 154.505 14.7489 156.34 10.7919 154.055C6.83417 151.77 3.63805 146.233 3.65143 141.685C3.66323 137.141 6.88059 135.305 10.8384 137.589Z" fill="#8E856F"/>
<path d="M0.856445 129.355L20.8318 140.888L25.4253 138.218L5.44997 126.686L0.856445 129.355Z" fill="#DDCFAC"/>
<path d="M20.7529 168.22L25.3465 165.551L25.4244 138.218L20.8308 140.887L20.7529 168.22Z" fill="#C7BB9B"/>
<mask id="mask8_264_710" style="mask-type:luminance" maskUnits="userSpaceOnUse" x="9" y="118" width="21" height="12">
<path d="M29.8145 124.687L29.7996 129.927C29.8043 128.441 28.8231 126.952 26.8584 125.818C22.9573 123.566 16.6484 123.566 12.7725 125.818C10.8455 126.937 9.88089 128.403 9.87695 129.871L9.89191 124.63C9.89584 123.163 10.8605 121.697 12.7874 120.578C16.6634 118.326 22.9722 118.326 26.8733 120.578C28.8381 121.712 29.8192 123.201 29.8145 124.687Z" fill="white"/>
</mask>
<g mask="url(#mask8_264_710)">
<path d="M26.8742 120.578C25.9332 120.035 24.852 119.623 23.6985 119.341L23.6836 124.581C24.8371 124.862 25.9174 125.274 26.8593 125.818C28.824 126.952 29.8044 128.441 29.8004 129.928L29.8146 124.687C29.8193 123.201 28.8381 121.712 26.8742 120.578Z" fill="#9F957C"/>
<path d="M21.2178 124.187C22.0589 124.257 22.8882 124.388 23.6829 124.582L23.6979 119.341C22.9032 119.148 22.0739 119.016 21.2327 118.946L21.2178 124.187Z" fill="#A99E84"/>
<path d="M18.6898 118.926L18.6748 124.166C19.5191 124.11 20.3744 124.117 21.2171 124.187L21.232 118.946C20.3893 118.877 19.534 118.87 18.6898 118.926Z" fill="#B4A98C"/>
<path d="M14.9541 124.86C16.117 124.483 17.3838 124.252 18.675 124.167L18.69 118.927C17.3988 119.012 16.132 119.242 14.969 119.62L14.9541 124.86Z" fill="#BFB395"/>
<path d="M12.6663 120.65L12.6514 125.89C12.6915 125.867 12.7324 125.842 12.7733 125.819C13.4374 125.433 14.1723 125.114 14.9544 124.859L14.9694 119.619C14.1865 119.873 13.4516 120.192 12.7875 120.578C12.7466 120.602 12.7064 120.625 12.6663 120.65Z" fill="#C9BC9D"/>
<path d="M10.5657 122.553L10.5508 127.794C11.0127 127.104 11.7129 126.456 12.6516 125.891L12.6666 120.65C11.7279 121.215 11.0276 121.864 10.5657 122.553Z" fill="#BFB395"/>
<path d="M9.94434 129.212C10.0411 128.728 10.2433 128.252 10.551 127.793L10.5659 122.552C10.2591 123.01 10.0569 123.488 9.96008 123.97L9.94434 129.212Z" fill="#B4A98C"/>
<path d="M9.87793 129.871C9.87872 129.651 9.90075 129.431 9.94481 129.212L9.95976 123.972C9.9157 124.19 9.89367 124.411 9.89288 124.631L9.87793 129.871Z" fill="#A99E84"/>
</g>
<path d="M0.875977 124.271L20.5775 135.646L43.8843 122.101L24.182 110.727L0.875977 124.271ZM26.9209 128.735C23.0426 130.988 16.7346 130.988 12.8311 128.735C8.93 126.482 8.90875 122.828 12.787 120.575C16.663 118.322 22.9718 118.322 26.8729 120.574C30.7764 122.828 30.7969 126.483 26.9209 128.735Z" fill="#E1D3B0"/>
<path d="M20.5635 140.886L43.8711 127.342L43.886 122.102L20.5784 135.646L20.5635 140.886Z" fill="#CEC1A1"/>
<path d="M0.861328 129.513L20.5628 140.887L20.5778 135.647L0.876282 124.272L0.861328 129.513Z" fill="#9C927A"/>
<mask id="mask9_264_710" style="mask-type:luminance" maskUnits="userSpaceOnUse" x="204" y="5" width="21" height="12">
<path d="M224.807 10.9804L224.792 16.2019C224.796 14.7218 223.819 13.2386 221.862 12.1088C217.973 9.86313 211.69 9.86313 207.827 12.1088C205.908 13.2245 204.947 14.6833 204.943 16.1452L204.958 10.9238C204.962 9.46185 205.923 8.00228 207.842 6.88734C211.706 4.64172 217.988 4.64172 221.877 6.88734C223.834 8.01723 224.811 9.49962 224.807 10.9804Z" fill="white"/>
</mask>
<g mask="url(#mask9_264_710)">
<path d="M221.876 6.88531C220.938 6.34318 219.86 5.93246 218.71 5.65234L218.695 10.8738C219.845 11.1539 220.924 11.5654 221.862 12.1067C223.818 13.2374 224.796 14.7198 224.792 16.1998L224.807 10.9784C224.811 9.49838 223.833 8.01599 221.876 6.88531Z" fill="#9F957C"/>
<path d="M216.241 10.482C217.078 10.5512 217.905 10.6818 218.696 10.8746L218.711 5.65318C217.92 5.45962 217.093 5.32901 216.255 5.25977L216.241 10.482Z" fill="#A99E84"/>
<path d="M213.724 5.2394L213.709 10.4608C214.55 10.4057 215.401 10.4128 216.24 10.4813L216.254 5.25986C215.416 5.19062 214.565 5.18354 213.724 5.2394Z" fill="#B4A98C"/>
<path d="M210.002 11.1505C211.161 10.7752 212.422 10.5447 213.708 10.4597L213.723 5.23828C212.437 5.32326 211.175 5.55301 210.017 5.92912L210.002 11.1505Z" fill="#BFB395"/>
<path d="M207.721 6.95711L207.706 12.1785C207.746 12.1541 207.786 12.1305 207.827 12.1069C208.49 11.7222 209.223 11.4035 210.003 11.1501L210.018 5.92871C209.237 6.18128 208.504 6.50074 207.841 6.8855C207.801 6.90989 207.76 6.9335 207.721 6.95711Z" fill="#C9BC9D"/>
<path d="M205.627 8.85251L205.612 14.0739C206.073 13.387 206.771 12.741 207.705 12.1785L207.72 6.95703C206.785 7.51962 206.088 8.1656 205.627 8.85251Z" fill="#BFB395"/>
<path d="M205.009 15.4881C205.105 15.0073 205.306 14.5321 205.612 14.0749L205.627 8.85352C205.321 9.31067 205.121 9.78592 205.024 10.2667L205.009 15.4881Z" fill="#B4A98C"/>
<path d="M204.942 16.145C204.943 15.9255 204.965 15.706 205.009 15.488L205.024 10.2666C204.98 10.4846 204.958 10.7041 204.957 10.9236L204.942 16.145Z" fill="#A99E84"/>
</g>
<path d="M190.934 13.4958L210.564 24.8293L233.787 11.3335L214.156 0L190.934 13.4958ZM221.873 6.88636C225.763 9.13198 225.783 12.7703 221.919 15.0159C218.057 17.2608 211.774 17.2615 207.884 15.0159C203.995 12.7703 203.977 9.1312 207.839 6.88636C211.702 4.64074 217.984 4.64074 221.873 6.88636Z" fill="#E1D3B0"/>
<path d="M210.551 30.0492L233.773 16.5542L233.788 11.332L210.566 24.8278L210.551 30.0492Z" fill="#CEC1A1"/>
<path d="M190.919 18.7165L210.55 30.0501L210.565 24.8287L190.934 13.4951L190.919 18.7165Z" fill="#9C927A"/>
<mask id="mask10_264_710" style="mask-type:luminance" maskUnits="userSpaceOnUse" x="677" y="506" width="21" height="12">
<path d="M697.192 512.45L697.177 517.69C697.181 516.204 696.2 514.715 694.236 513.58C690.335 511.328 684.026 511.328 680.15 513.58C678.223 514.7 677.259 516.166 677.255 517.632L677.27 512.392C677.274 510.925 678.238 509.459 680.165 508.34C684.041 506.087 690.35 506.087 694.251 508.34C696.216 509.475 697.196 510.963 697.192 512.45Z" fill="white"/>
</mask>
<g mask="url(#mask10_264_710)">
<path d="M694.251 508.34C693.31 507.797 692.229 507.385 691.075 507.104L691.061 512.344C692.214 512.625 693.294 513.037 694.236 513.581C696.201 514.715 697.182 516.204 697.177 517.69L697.192 512.45C697.196 510.963 696.215 509.474 694.251 508.34Z" fill="#9F957C"/>
<path d="M688.597 511.949C689.438 512.019 690.266 512.15 691.062 512.344L691.077 507.103C690.282 506.91 689.453 506.777 688.612 506.709L688.597 511.949Z" fill="#A99E84"/>
<path d="M686.067 506.689L686.052 511.929C686.897 511.873 687.751 511.88 688.595 511.949L688.609 506.709C687.767 506.64 686.913 506.633 686.067 506.689Z" fill="#B4A98C"/>
<path d="M682.332 512.623C683.495 512.246 684.762 512.015 686.053 511.93L686.068 506.689C684.777 506.774 683.511 507.005 682.347 507.383L682.332 512.623Z" fill="#BFB395"/>
<path d="M680.043 508.414L680.028 513.654C680.068 513.63 680.109 513.606 680.15 513.582C680.814 513.196 681.549 512.877 682.331 512.623L682.346 507.383C681.564 507.636 680.829 507.956 680.164 508.342C680.124 508.366 680.083 508.389 680.043 508.414Z" fill="#C9BC9D"/>
<path d="M677.943 510.315L677.928 515.555C678.39 514.865 679.091 514.217 680.029 513.652L680.044 508.412C679.106 508.976 678.405 509.625 677.943 510.315Z" fill="#BFB395"/>
<path d="M677.321 516.973C677.418 516.49 677.62 516.013 677.927 515.555L677.942 510.314C677.634 510.773 677.433 511.25 677.336 511.733L677.321 516.973Z" fill="#B4A98C"/>
<path d="M677.256 517.633C677.256 517.413 677.279 517.192 677.323 516.974L677.338 511.733C677.294 511.952 677.272 512.172 677.271 512.393L677.256 517.633Z" fill="#A99E84"/>
</g>
<path d="M668.254 512.036L687.955 523.41L711.262 509.866L691.561 498.491L668.254 512.036ZM694.299 516.499C690.421 518.753 684.113 518.753 680.208 516.499C676.307 514.248 676.287 510.593 680.164 508.339C684.04 506.087 690.349 506.087 694.25 508.339C698.154 510.593 698.175 514.247 694.299 516.499Z" fill="#E1D3B0"/>
<path d="M687.941 528.65L711.248 515.106L711.263 509.865L687.956 523.409L687.941 528.65Z" fill="#CEC1A1"/>
<path d="M668.239 517.275L687.941 528.65L687.956 523.409L668.254 512.035L668.239 517.275Z" fill="#9C927A"/>
<mask id="mask11_264_710" style="mask-type:luminance" maskUnits="userSpaceOnUse" x="871" y="393" width="21" height="12">
<path d="M891.017 399.18L891.002 404.401C891.006 402.92 890.029 401.438 888.072 400.308C884.182 398.062 877.9 398.062 874.037 400.308C872.118 401.423 871.157 402.883 871.153 404.344L871.168 399.123C871.172 397.661 872.133 396.202 874.052 395.087C877.916 392.841 884.198 392.841 888.087 395.087C890.044 396.216 891.022 397.699 891.017 399.18Z" fill="white"/>
</mask>
<g mask="url(#mask11_264_710)">
<path d="M888.085 395.086C887.146 394.544 886.068 394.133 884.918 393.853L884.904 399.074C886.054 399.354 887.132 399.766 888.071 400.308C890.027 401.438 891.005 402.92 891.001 404.401L891.016 399.179C891.02 397.699 890.042 396.216 888.085 395.086Z" fill="#9F957C"/>
<path d="M882.45 398.681C883.288 398.751 884.114 398.881 884.905 399.075L884.919 393.853C884.128 393.661 883.302 393.529 882.464 393.46L882.45 398.681Z" fill="#A99E84"/>
<path d="M879.933 393.439L879.918 398.66C880.759 398.605 881.61 398.612 882.449 398.681L882.464 393.459C881.625 393.391 880.774 393.384 879.933 393.439Z" fill="#B4A98C"/>
<path d="M876.211 399.352C877.369 398.976 878.631 398.746 879.917 398.661L879.932 393.439C878.646 393.524 877.384 393.754 876.226 394.13L876.211 399.352Z" fill="#BFB395"/>
<path d="M873.93 395.158L873.915 400.38C873.955 400.355 873.995 400.332 874.036 400.308C874.699 399.923 875.432 399.604 876.213 399.351L876.228 394.13C875.447 394.382 874.714 394.702 874.052 395.087C874.009 395.11 873.969 395.135 873.93 395.158Z" fill="#C9BC9D"/>
<path d="M871.836 397.054L871.821 402.275C872.282 401.587 872.979 400.942 873.914 400.38L873.929 395.158C872.994 395.721 872.296 396.366 871.836 397.054Z" fill="#BFB395"/>
<path d="M871.218 403.688C871.315 403.208 871.516 402.732 871.822 402.276L871.837 397.055C871.531 397.511 871.33 397.986 871.234 398.467L871.218 403.688Z" fill="#B4A98C"/>
<path d="M871.151 404.345C871.152 404.126 871.174 403.907 871.217 403.688L871.232 398.467C871.188 398.685 871.167 398.904 871.166 399.124L871.151 404.345Z" fill="#A99E84"/>
</g>
<path d="M857.146 401.697L876.776 413.03L899.999 399.535L880.368 388.201L857.146 401.697ZM888.085 395.088C891.975 397.333 891.995 400.971 888.131 403.217C884.269 405.461 877.986 405.463 874.096 403.217C870.207 400.971 870.188 397.332 874.051 395.088C877.914 392.842 884.196 392.842 888.085 395.088Z" fill="#E1D3B0"/>
<path d="M876.763 418.253L899.986 404.758L900 399.536L876.778 413.032L876.763 418.253Z" fill="#CEC1A1"/>
<path d="M857.133 406.919L876.763 418.252L876.778 413.031L857.147 401.697L857.133 406.919Z" fill="#9C927A"/>
</svg>
