<svg width="470" height="159" viewBox="0 0 470 159" fill="none" xmlns="http://www.w3.org/2000/svg">
<path d="M56 101C56 73.3858 78.3858 51 106 51H470V159H56V101Z" fill="white"/>
<path d="M56 159L56 109.617C56.0104 109.063 56.0102 108.524 56 108V109.617C55.6693 127.2 44.596 159 0 159H56Z" fill="white"/>
<path d="M470 51V1.61703C470.01 1.06345 470.01 0.523964 470 0V1.61703C469.669 19.2005 458.596 51 414 51L470 51Z" fill="white"/>
<rect x="55" y="118" width="2" height="41" fill="white"/>
<rect x="429" y="52" width="2" height="41" transform="rotate(-90 429 52)" fill="white"/>
</svg>
