<svg width="470" height="159" viewBox="0 0 470 159" fill="none" xmlns="http://www.w3.org/2000/svg">
<path d="M56 58C56 85.6142 78.3858 108 106 108H470V0H56V58Z" fill="#E4EFEE"/>
<path d="M56 0L56 49.383C56.0104 49.9366 56.0102 50.476 56 51V49.383C55.6693 31.7995 44.596 0 0 0L56 0Z" fill="#E4EFEE"/>
<path d="M470 108V157.383C470.01 157.937 470.01 158.476 470 159V157.383C469.669 139.8 458.596 108 414 108H470Z" fill="#E4EFEE"/>
<rect width="2" height="41" transform="matrix(1 0 0 -1 55 41)" fill="#E4EFEE"/>
<rect width="2" height="41" transform="matrix(0 1 1 0 429 107)" fill="#E4EFEE"/>
</svg>
