<svg width="120" height="75" viewBox="0 0 120 75" fill="none" xmlns="http://www.w3.org/2000/svg">
<g clip-path="url(#clip0_435_13)">
<path d="M40.9915 19.6757C46.9534 9.49574 57.8549 2.67275 70.3303 2.67275C82.7991 2.67275 93.7007 9.49574 99.6626 19.6757H104.705C98.0822 8.0156 85.1752 0.0917969 70.3303 0.0917969C55.4789 0.0917969 42.5675 8.0156 35.9473 19.6757H40.9915Z" fill="#D70110"/>
<path d="M35.7656 22.959C27.1355 22.959 23.5677 27.0455 23.5677 32.3884C23.5677 37.7422 26.7432 41.8274 35.7656 41.8274H35.7975C44.4189 41.8274 47.9922 37.7422 47.9922 32.3884C47.9922 27.0412 44.8156 22.959 35.7975 22.959H35.7656ZM106.791 22.959C98.1655 22.959 94.5965 27.0455 94.5965 32.3884C94.5965 37.7422 97.7753 41.8274 106.791 41.8274H106.826C115.452 41.8274 119.021 37.7422 119.021 32.3884C119.021 27.0412 115.847 22.959 106.826 22.959H106.791ZM12.7589 23.5082C4.13532 23.5082 1.05273 27.2853 1.05273 32.3884C1.05273 37.5002 3.74077 41.275 12.7589 41.275H21.2431V37.4049H12.8227C8.62214 37.4049 7.91485 35.244 7.91485 32.3884C7.91485 29.5393 8.65368 27.3815 13.0526 27.3815H21.2431V23.5082H12.7589ZM56.8469 23.5082C54.1417 23.5082 50.3169 24.9804 50.3169 28.8344C50.3169 32.6884 54.1417 34.1351 56.8469 34.1351H60.369C62.102 34.1351 62.5467 34.6854 62.5467 35.7732C62.5467 36.8653 62.102 37.4049 60.369 37.4049H51.0673V41.275H63.2205C65.9322 41.275 69.7505 39.8018 69.7505 35.9456C69.7505 32.0938 65.9322 30.6513 63.2205 30.6513H59.2226C57.4853 30.6513 57.0385 30.1095 57.0385 29.0196C57.0385 27.9297 57.4853 27.3815 59.2226 27.3815H68.7063V23.5082H56.8469ZM83.7876 23.5082C75.1641 23.5082 72.0815 27.2853 72.0815 32.3884C72.0815 37.5002 74.7695 41.275 83.7876 41.275H92.2719V37.4049H83.8547C79.6476 37.4049 78.9436 35.244 78.9436 32.3884C78.9436 29.5393 79.6846 27.3815 84.0814 27.3815H92.2719V23.5082H83.7876ZM35.3441 26.9281H36.2191C40.4175 26.9281 41.127 29.9426 41.127 32.3884C41.127 34.8408 40.618 37.8583 36.2191 37.8583H35.3441C31.1392 37.8583 30.433 35.2418 30.433 32.3884C30.433 29.5371 30.943 26.9281 35.3441 26.9281ZM106.373 26.9281H107.245C111.445 26.9281 112.159 29.9426 112.159 32.3884C112.159 34.8408 111.648 37.8583 107.245 37.8583H106.373C102.17 37.8583 101.459 35.2418 101.459 32.3884C101.459 29.5371 101.974 26.9281 106.373 26.9281ZM10.0798 45.4229C8.48633 45.4229 6.24482 46.2905 6.24482 48.5554C6.24482 50.8203 8.48633 51.6687 10.0798 51.6687H12.8068C13.8204 51.6687 14.0777 51.989 14.0777 52.6299C14.0777 53.2729 13.8204 53.5878 12.8068 53.5878H6.6791V55.8677H14.48C16.0691 55.8677 18.3182 55.0001 18.3182 52.7352C18.3182 50.4682 16.0691 49.6251 14.48 49.6251H11.4752C10.4594 49.6251 10.1948 49.307 10.1948 48.664C10.1948 48.0253 10.4594 47.6996 11.4752 47.6996H17.6987V45.4229H10.0798ZM38.5852 45.4229V55.8677H42.302V45.4229H38.5852ZM46.8459 45.4229V55.8677H50.5691V52.5756H52.8331C57.3193 52.5756 58.667 51.3077 58.667 48.9993C58.667 46.6908 57.5285 45.4229 52.8331 45.4229H46.8459ZM62.3104 45.4229V55.8677H66.0304V52.5756H68.3008C72.7848 52.5756 74.1283 51.3077 74.1283 48.9993C74.1283 46.6908 72.9919 45.4229 68.3008 45.4229H62.3104ZM77.7302 45.4229V55.8677H81.4502V45.4229H77.7302ZM108.225 45.4229C103.159 45.4229 101.35 47.6452 101.35 50.6469C101.35 53.6442 102.93 55.8677 108.225 55.8677H113.829V50.6469H110.122V53.5878H108.155C105.691 53.5878 105.271 52.3211 105.271 50.6469C105.271 48.9684 105.713 47.6996 108.292 47.6996H113.829V45.4229H108.225ZM22.2649 45.4262V55.8678H26.0361V51.6816H30.2893V55.8678H34.0445V45.4262H30.2893V49.4336H26.0361V45.4262H22.2649ZM86.1538 45.4262V55.8678H89.877V50.366C89.877 50.366 91.7305 53.0704 92.5784 54.3958C93.2869 55.501 94.1908 55.8678 95.9696 55.8678H97.828V45.4262H94.1239V51.5251C94.1239 51.5251 91.9926 48.253 91.0553 46.7641C90.4776 45.842 89.7123 45.4262 88.0186 45.4262H86.1538ZM50.5691 47.5017H52.7149C54.2365 47.5017 54.7458 47.9377 54.7458 48.9993C54.7458 50.0631 54.2866 50.4969 52.7149 50.4969H50.5691V47.5017ZM66.0304 47.5017H68.1826C69.702 47.5017 70.2071 47.9377 70.2071 48.9993C70.2071 50.0631 69.7522 50.4969 68.1826 50.4969H66.0304V47.5017Z" fill="#00508E"/>
<path d="M49.749 0.0917969C34.8975 0.0917969 21.9862 8.01537 15.3682 19.6755H20.4102C26.3699 9.4955 37.2736 2.67188 49.749 2.67188C62.2178 2.67188 73.1184 9.4955 79.0782 19.6755H84.1298C77.5073 8.01537 64.596 0.0917969 49.749 0.0917969ZM17.9929 59.325C25.095 68.7617 36.6676 74.9077 49.749 74.9077C62.8238 74.9077 74.3988 68.7617 81.4986 59.325H76.348C70.0918 67.2532 60.5001 72.334 49.749 72.334C38.9935 72.334 29.4019 67.2532 23.1435 59.325H17.9929Z" fill="#00508E"/>
<path d="M96.9283 59.3262C90.6677 67.2543 81.0828 72.3334 70.3295 72.3334C59.5697 72.3334 49.9848 67.2543 43.7221 59.3262H38.5732C45.6774 68.7628 57.2438 74.9079 70.3295 74.9079C83.4044 74.9079 94.9795 68.7628 102.079 59.3262H96.9283Z" fill="#D70110"/>
</g>
<defs>
<clipPath id="clip0_435_13">
<rect width="118.182" height="75" fill="white" transform="translate(0.946289)"/>
</clipPath>
</defs>
</svg>
