<svg width="422" height="75" viewBox="0 0 422 75" fill="none" xmlns="http://www.w3.org/2000/svg">
<g clip-path="url(#clip0_435_18)">
<path d="M74.7845 37.3693C74.7845 47.1393 70.9033 56.5092 63.9949 63.4177C57.0864 70.3262 47.7165 74.2073 37.9464 74.2073C28.1764 74.2073 18.8065 70.3262 11.898 63.4177C4.98954 56.5092 1.1084 47.1393 1.1084 37.3693C1.1084 27.5992 4.98954 18.2293 11.898 11.3209C18.8065 4.41239 28.1764 0.53125 37.9464 0.53125C47.7165 0.53125 57.0864 4.41239 63.9949 11.3209C70.9033 18.2293 74.7845 27.5992 74.7845 37.3693Z" fill="white"/>
<path d="M37.9503 0.00390625C28.039 0.00614028 18.5343 3.94437 11.526 10.9527C4.51762 17.9611 0.579382 27.4658 0.577148 37.3771C0.578265 47.2891 4.51601 56.7949 11.5245 63.8041C18.5329 70.8134 28.0383 74.7522 37.9503 74.7544C47.8616 74.7522 57.3663 70.814 64.3746 63.8056C71.383 56.7973 75.3212 47.2926 75.3234 37.3813C75.3223 27.4693 71.3846 17.9635 64.3761 10.9542C57.3677 3.94495 47.8623 0.00614064 37.9503 0.00390625ZM39.425 1.06148C45.118 1.2971 50.6742 2.87818 55.6383 5.67519C54.5127 7.31362 53.1657 8.78828 51.6355 10.0572C48.1148 6.37955 43.9853 3.33768 39.4292 1.06569M36.4714 1.06569C31.9212 3.33406 27.7962 6.37008 24.2777 10.0403C22.7681 8.7615 21.4461 7.27643 20.3508 5.62884C25.2929 2.86287 30.8169 1.29963 36.4756 1.06569M37.0191 1.80304C34.3752 5.47605 32.0975 9.39924 30.2186 13.5164C28.3732 12.8001 26.6372 11.8268 25.0235 10.5754C28.4886 6.98416 32.5465 4.01664 37.0191 1.80304ZM38.8899 1.80304C43.366 4.01687 47.4268 6.98589 50.894 10.5796C49.3041 11.7944 47.5491 12.7762 45.6819 13.4953C43.8043 9.38589 41.5295 5.46984 38.8899 1.80304ZM37.4995 2.73V12.1049C37.5549 12.0403 37.6229 11.9876 37.6992 11.95C37.7756 11.9123 37.8587 11.8905 37.9437 11.8858C38.0287 11.881 38.1138 11.8935 38.1939 11.9225C38.2739 11.9515 38.3473 11.9963 38.4096 12.0543V2.73C40.8975 6.21272 43.0503 9.92303 44.8393 13.8113C42.9807 14.4618 41.0437 14.8614 39.0795 14.9995L39.2396 15.8759C41.2805 15.7223 43.2922 15.3001 45.2227 14.6203C46.6805 17.9658 47.8771 21.4882 48.6019 25.4868L49.4277 25.0949L49.4445 25.0865C48.6988 21.1427 47.5064 17.6287 46.0654 14.3085C48.0035 13.5501 49.8364 12.5389 51.5344 11.2327C54.7382 14.7288 57.2553 18.7968 58.9543 23.2241C56.1342 24.1969 53.2475 24.9643 50.3167 25.5205C50.3462 25.6595 50.3336 25.807 50.2746 25.9418L49.9965 26.519C53.1439 25.9418 56.2324 25.1328 59.2618 24.0837C60.7451 28.2043 61.5326 32.543 61.5919 36.922H58.4192C58.4824 36.9796 58.5332 37.0494 58.5687 37.1272C58.6041 37.205 58.6234 37.2892 58.6254 37.3747C58.6273 37.4601 58.6119 37.5451 58.5801 37.6245C58.5483 37.7038 58.5007 37.7759 58.4402 37.8363H61.5919C61.5834 38.4262 61.5624 39.0077 61.5287 39.5933L62.4303 39.7197C62.4725 39.0877 62.4978 38.4641 62.502 37.8363H74.3712C74.2912 44.1143 72.5257 49.9331 69.6564 55.0693C68.8081 54.5787 67.9454 54.1136 67.0693 53.6746L66.6901 54.5005C67.5455 54.9302 68.3923 55.3811 69.2266 55.8656C66.1307 61.1003 61.7718 65.4752 56.5484 68.5902C56.1565 68.0003 55.7268 67.4483 55.2928 66.9132C55.0189 67.0649 54.7366 67.2082 54.4585 67.3472C54.9126 67.8868 55.3387 68.4494 55.7352 69.0326C50.7475 71.8599 45.1577 73.4574 39.4292 73.6926C41.4517 72.673 43.314 71.5438 45.0541 70.3345C44.3741 70.4447 43.6913 70.5375 43.0064 70.6126C41.6747 71.4625 40.3008 72.2444 38.8899 72.9553C39.3955 72.2432 39.8674 71.5354 40.3393 70.8233C39.9601 70.8444 39.5809 70.857 39.1933 70.8654C38.932 71.2531 38.6877 71.6407 38.4096 72.0241V70.8865L38.0177 70.8907L37.4995 70.8781V72.0241C37.2256 71.6407 36.977 71.2531 36.7158 70.8654C36.3281 70.8528 35.9447 70.8359 35.5613 70.8149C36.0374 71.5311 36.5093 72.239 37.0191 72.9553C35.5962 72.2373 34.211 71.447 32.8689 70.5873C32.1667 70.5029 31.467 70.399 30.7706 70.2755C32.536 71.5101 34.4279 72.6561 36.4756 73.6884C30.7829 73.4541 25.2268 71.8745 20.2623 69.0789C20.6822 68.4439 21.138 67.8334 21.6275 67.2503C21.3494 67.107 21.0797 66.9554 20.8058 66.8037C20.3222 67.3912 19.8707 68.0044 19.4533 68.6407C14.1913 65.5235 9.80037 61.1297 6.68663 55.8656C7.53774 55.3811 8.40571 54.9302 9.28631 54.4962C9.15148 54.2224 9.03351 53.9401 8.90711 53.6662C8.00837 54.1056 7.12315 54.5721 6.25264 55.065C3.37908 49.9331 1.61787 44.1143 1.5336 37.8321H13.4071C13.4113 38.4388 13.4365 39.0372 13.4703 39.6397L14.3761 39.547C14.3466 38.9739 14.3214 38.4093 14.3172 37.8321H17.393C17.3326 37.7723 17.2849 37.701 17.2528 37.6223C17.2206 37.5437 17.2047 37.4593 17.2058 37.3744C17.207 37.2894 17.2253 37.2056 17.2596 37.1278C17.294 37.0501 17.3436 36.9801 17.4056 36.922H14.3129C14.3715 32.5236 15.1647 28.1658 16.6598 24.0289C19.6809 25.0738 22.7735 25.887 25.9378 26.4769L25.685 25.9376C25.6161 25.7959 25.6026 25.6336 25.6471 25.4825C22.7033 24.9172 19.8029 24.1457 16.9674 23.1736C18.6678 18.7603 21.1819 14.7055 24.3788 11.2201C26.0353 12.5164 27.8739 13.5613 29.8352 14.3212C28.3111 17.764 27.1817 21.3684 26.4687 25.0654L26.5235 25.0907L27.3072 25.4657C28.0007 21.7398 29.1292 18.1083 30.6695 14.6456C32.6168 15.3326 34.6476 15.7549 36.7073 15.9012L36.8674 15.0206C34.8845 14.8915 32.9284 14.4932 31.0529 13.8366C32.7846 10.0403 34.8956 6.39568 37.4952 2.73M19.5376 6.07125C20.7174 7.87039 22.1078 9.38722 23.6331 10.6934C20.3918 14.255 17.8415 18.3884 16.1121 22.8828C12.8898 21.7545 9.7703 20.3519 6.78775 18.6905C9.91817 13.4836 14.303 9.14369 19.5418 6.06704M56.4515 6.1176C61.6502 9.19248 66.0016 13.5134 69.1129 18.6905C66.1417 20.3779 63.027 21.7991 59.8054 22.9376C58.0793 18.4293 55.5272 14.2825 52.2802 10.7102C53.8774 9.38075 55.2813 7.83498 56.4515 6.1176ZM6.34955 19.491C9.34952 21.1933 12.5349 22.5668 15.8045 23.7466C14.2734 27.9735 13.4602 32.4268 13.3986 36.922H1.5336C1.61365 30.5597 3.417 24.6651 6.35798 19.491M69.5468 19.491C72.4836 24.6736 74.2912 30.5639 74.3712 36.922H62.502C62.4396 32.4462 61.6322 28.012 60.113 23.8014C63.3573 22.6216 66.5342 21.2312 69.5468 19.491ZM28.3858 25.9797L31.1119 27.2732C32.258 27.4081 33.404 27.5218 34.5543 27.5935L34.7228 26.6834C32.595 26.557 30.4841 26.3042 28.3858 25.9755M47.4937 26.0134C45.4123 26.3252 43.3224 26.5612 41.2284 26.6792L41.3969 27.5893C42.5345 27.5218 43.6721 27.4207 44.8013 27.2943L47.4937 26.0134ZM26.1232 26.8603C25.7353 29.4916 25.506 32.1438 25.4364 34.8027L26.3591 34.5667C26.4308 32.3757 26.5909 30.3111 26.8353 28.3645L26.119 26.8603M49.79 26.9446L49.0738 28.4446C49.3139 30.3743 49.474 32.4052 49.5457 34.5667L50.4642 34.8027C50.3799 31.9923 50.1566 29.3842 49.79 26.9446ZM25.4364 39.9725C25.5291 42.7997 25.7608 45.4289 26.1358 47.8811L26.8521 46.3727C26.6035 44.4303 26.4308 42.3868 26.3591 40.2043L25.4364 39.9725ZM50.4642 39.9725L49.5415 40.2085C49.4656 42.3573 49.3013 44.3756 49.0569 46.2927L49.7732 47.7969C50.1398 45.3657 50.3757 42.7703 50.4642 39.9725ZM34.5079 46.9121C33.6287 46.9681 32.7507 47.0426 31.8745 47.1354L29.2201 48.3994C31.0276 48.1382 32.8436 47.9359 34.6765 47.8222L34.5079 46.9121ZM41.4432 46.9163L41.2747 47.8306C43.078 47.9317 44.873 48.1171 46.6595 48.3657L44.0513 47.1269C43.1834 47.0385 42.3154 46.971 41.4432 46.9163ZM49.849 47.957L50.2704 48.8334C50.2872 48.8839 50.3041 48.9303 50.3125 48.9851C52.7984 49.457 55.238 50.0806 57.6439 50.8516C57.7745 50.5862 57.8967 50.2954 58.0231 50.0174C55.3476 49.1473 52.6168 48.4575 49.849 47.9528M26.0811 47.9949C23.3316 48.504 20.6181 49.1908 17.9576 50.0511C18.0924 50.3292 18.2356 50.5988 18.3789 50.8727C20.7568 50.1178 23.1766 49.5016 25.626 49.0272C25.6344 48.9598 25.6513 48.8966 25.6808 48.8334L26.0811 47.9949ZM48.6061 49.2927C47.9136 52.9761 46.7981 56.5673 45.2817 59.9948C43.3387 59.304 41.3126 58.8747 39.2565 58.7181L39.0921 59.5945C40.8449 59.7083 42.5682 60.0706 44.2578 60.6057C44.9235 60.4793 45.564 60.3487 46.1749 60.1844C47.5654 56.94 48.7198 53.5271 49.4488 49.6929C49.4402 49.6889 49.4318 49.6847 49.4235 49.6803L48.6061 49.2927ZM27.2945 49.3137L26.5235 49.6803L26.4561 49.7098C27.1766 53.4892 28.31 56.8684 29.6751 60.0748C30.3198 60.2602 30.9939 60.4203 31.6976 60.5594C33.3829 60.0327 35.102 59.6746 36.8506 59.5734L36.6863 58.6886C34.6109 58.8409 32.5657 59.2732 30.6063 59.9737C29.0971 56.5592 27.9858 52.9823 27.2945 49.3137Z" fill="#FE3501"/>
<path d="M277.599 18.9744V56.1453H289.341V43.2269H295.754C297.452 43.2269 298.973 44.5626 298.973 46.2606V56.1453H310.725V41.887C310.725 39.637 309.494 39.1104 308.567 39.043C309.494 39.0261 310.725 38.3941 310.725 36.123V24.3044C310.725 19.9519 308.753 18.9744 305.685 18.9744H277.599ZM289.341 28.1723H297.195C298.383 28.1723 298.973 28.8717 298.973 30.0599V33.1273C298.973 34.3113 298.383 34.8632 297.195 34.8632H289.341V28.1723ZM350.794 18.9744H383.082V28.1723H362.537V33.1863H383.082V41.4699H362.537V46.9895H383.082V56.1453H350.794V18.9744ZM314.736 18.9744H347.023V28.1723H326.479V33.1863H347.023V41.4699H326.479V46.9895H347.023V56.1453H314.732V18.9744M91.2847 18.9744H123.572V28.1723H103.028V33.1863H123.572V41.4699H103.028V46.9895H123.572V56.1453H91.2847V18.9744ZM386.697 18.9744H398.789L409.744 38.8365V18.9744H421.921V56.1453H409.744L398.789 35.9082V56.1453H386.697V18.9744ZM242.269 55.4669C241.384 54.9809 240.601 54.3285 239.964 53.5456C239.121 52.408 239.096 51.8771 239.096 37.5767C239.096 17.4491 237.693 18.9702 256.287 18.9702C267.427 18.9702 269.033 19.0544 270.318 19.6991C272.69 20.8915 273.469 22.7285 273.474 27.1232V30.8857L261.815 30.9363V29.7608C261.815 28.9855 260.888 28.1681 260.113 28.1681H252.739C251.892 28.1681 250.915 29.095 250.915 29.9462V45.1019C250.915 45.9783 251.867 46.9895 252.743 46.9895H260.075C260.939 46.9895 261.815 45.9446 261.815 45.0892V42.3884H255.524V34.6821L273.474 34.6441V43.2185C273.474 52.5765 273.305 53.4276 271.038 55.1003C269.901 55.9388 269.29 56.0273 256.78 56.1369C244.957 56.238 243.571 56.1326 242.269 55.4627M201.984 18.9744V56.1453H213.727V43.2269H220.14C221.838 43.2269 223.359 44.5626 223.359 46.2606V56.1453H235.11V41.887C235.11 39.637 233.88 39.1104 232.953 39.043C233.88 39.0261 235.11 38.3941 235.11 36.123V24.3044C235.11 19.9519 233.138 18.9744 230.071 18.9744H201.984ZM213.727 28.1723H221.581C222.769 28.1723 223.359 28.8717 223.359 30.0599V33.1273C223.359 34.3113 222.769 34.8632 221.581 34.8632H213.727V28.1723ZM165.926 18.9744H198.213V28.1723H177.669V33.1863H198.213V41.4699H177.669V46.9895H198.213V56.1453H165.926V18.9744ZM125.603 18.9744H138.138L144.496 42.8098L150.88 18.9744H163.465L151.111 56.1453H137.877L125.603 18.9744ZM42.687 61.9893L44.6463 69.8516L47.1322 69.2322L46.4496 66.4977L47.8063 66.1606C48.1645 66.0721 48.5563 66.2744 48.649 66.6325L49.1673 68.7224L51.6532 68.103L50.899 65.0904C50.781 64.6143 50.4945 64.5679 50.2923 64.6016C50.4903 64.5469 50.7136 64.3488 50.5956 63.8685L49.972 61.3699C49.7445 60.4514 49.2768 60.3461 48.6237 60.5104L42.687 61.9893ZM45.6533 63.3165L47.3176 62.8994C47.5704 62.8404 47.7305 62.9542 47.7895 63.207L47.9538 63.8559C48.017 64.1087 47.9201 64.2519 47.6673 64.3193L46.0072 64.728L45.6533 63.3165ZM56.4059 54.502L60.0843 48.5021L61.7949 49.5555L59.4523 53.3686L60.3834 53.9417L62.7261 50.1243L64.264 51.0681L61.9213 54.8855L62.9494 55.5133L65.2921 51.6959L66.9901 52.7408L63.3118 58.7365L56.4059 54.502ZM50.1616 59.4065L55.8076 55.2015L57 56.811L53.4102 59.4865L54.0633 60.3629L57.6573 57.6874L58.7318 59.1326L55.1419 61.8081L55.8582 62.7772L59.4523 60.0975L60.6447 61.6986L54.9987 65.9036L50.1616 59.4065ZM14.3348 40.4123L15.2281 47.394L13.2393 47.6468L12.6705 43.2058L11.5877 43.3449L12.1523 47.7858L10.3616 48.0134L9.79695 43.5724L8.60034 43.7241L9.16915 48.165L7.18884 48.4178L6.2998 41.4404L14.3348 40.4123ZM60.3792 47.7732L60.8006 45.1693L65.4606 43.5092L61.1882 42.814L61.6095 40.1974L69.6066 41.4994L69.1853 44.1159L64.4452 45.7634L68.7977 46.4712L68.3763 49.0751L60.3792 47.7732ZM34.791 69.8726C34.6225 69.7842 34.395 69.5946 34.2939 69.4513C34.1085 69.2069 34.1042 69.0889 34.1042 65.9752C34.1042 61.589 33.7967 61.9177 37.85 61.9177C40.2769 61.9177 40.6309 61.9345 40.9089 62.0778C41.423 62.339 41.5957 62.7393 41.5957 63.6958V64.5174L39.055 64.5258V64.273C39.055 64.1045 38.8528 63.9233 38.6843 63.9233H37.0789C36.8935 63.9233 36.6787 64.1255 36.6787 64.3109V67.6142C36.6787 67.8039 36.8893 68.0229 37.0789 68.0229H38.68C38.8654 68.0229 39.055 67.7996 39.055 67.61V67.0202H37.6857V65.3432L41.5957 65.3348V67.2055C41.5957 69.2448 41.5578 69.4302 41.0648 69.7926C40.8162 69.978 40.6856 69.9948 37.9553 70.0201C35.3809 70.0412 35.0776 70.0201 34.7953 69.8726M26.3642 60.0848L24.4344 67.9513L26.9203 68.5623L27.5903 65.8277L28.947 66.1606C29.3051 66.2491 29.5622 66.6114 29.4737 66.9696L28.9596 69.0637L31.4456 69.6704L32.1871 66.6536C32.3009 66.1775 32.0692 66.0047 31.8753 65.9373C32.0734 65.9836 32.3683 65.9162 32.4863 65.4317L33.0972 62.9331C33.3248 62.0104 32.9582 61.7028 32.3093 61.5427L26.3642 60.0848ZM28.3698 62.6424L30.0341 63.0469C30.2869 63.1101 30.3711 63.287 30.3122 63.5399L30.152 64.1887C30.0931 64.4415 29.9414 64.5258 29.6886 64.4668L28.0243 64.0581L28.3698 62.6424ZM20.1831 55.1678L25.7996 59.4065L24.5903 61.0076L21.0173 58.311L20.36 59.1832L23.933 61.8798L22.846 63.3208L19.273 60.6242L18.5483 61.5848L22.1212 64.2814L20.9162 65.8741L15.3039 61.6312L20.1831 55.1678ZM15.641 48.026L16.9766 50.4108L13.1256 54.1608L18.3334 52.8293L19.6775 55.2225L11.2927 56.8363L9.88544 54.3209L15.641 48.026ZM49.1336 48.5442L41.0227 44.689L38.0143 60.9233L35.0059 44.689L26.8951 48.5442L30.7504 40.4334L18.9106 37.425L30.7504 34.4166L26.8951 26.3057L35.0059 30.161L38.0143 13.834L41.0269 30.161L49.1378 26.3057L45.2825 34.4166L57.0043 37.425L45.2825 40.4334L49.1378 48.5442" fill="#008738"/>
</g>
<defs>
<clipPath id="clip0_435_18">
<rect width="421.5" height="75" fill="white" transform="translate(0.433594)"/>
</clipPath>
</defs>
</svg>
