<svg width="490" height="75" viewBox="0 0 490 75" fill="none" xmlns="http://www.w3.org/2000/svg">
<g clip-path="url(#clip0_435_5)">
<path fill-rule="evenodd" clip-rule="evenodd" d="M30.04 0.0722656H62.8425L42.4074 34.1798H47.7708L68.2587 0.0722656H101.261L80.826 34.1798H103.705L94.4645 49.3081L71.6042 49.3006L89.3953 73.7903H56.4382L38.6734 49.3119H33.031L50.807 73.7903H18.2421L0.390625 49.3119L30.04 0.0722656Z" fill="#111465"/>
<path fill-rule="evenodd" clip-rule="evenodd" d="M143.097 62.2912H153.224V42.4294H171.86V62.2912H181.983V16.2538H171.86V33.9242H153.224V16.25H143.097V62.2912ZM206.563 49.3958C206.563 51.3948 206.307 57.0712 199.148 57.0712C196.18 57.0712 193.536 56.2301 193.536 52.8092C193.536 49.4599 196.116 48.4943 198.952 47.9135C201.788 47.3968 205.017 47.3289 206.563 45.9786V49.3958ZM194.569 39.2046C194.89 35.5951 197.149 34.1769 200.63 34.1769C203.855 34.1769 206.563 34.7578 206.563 38.6917C206.563 42.4294 201.339 42.2371 195.731 43.0744C190.054 43.8513 184.378 45.6542 184.378 53.1976C184.378 60.0357 189.409 63.1927 195.731 63.1927C199.793 63.1927 204.047 62.0989 206.952 59.0664C207.034 60.1633 207.249 61.2462 207.593 62.2912H216.886C216.045 60.9372 215.725 57.9085 215.725 54.876V37.5262C215.725 29.534 207.729 28.0517 201.087 28.0517C193.604 28.0517 185.932 30.6315 185.415 39.2046H194.569ZM218.697 74.0288H227.851V58.165H227.983C230.17 61.4539 233.98 63.1964 237.978 63.1964C247.712 63.1964 252.612 54.876 252.612 45.9786C252.612 36.5003 247.909 28.0517 237.461 28.0517C233.335 28.0517 229.721 29.6622 227.53 33.2114H227.402V28.9531H218.697V74.0288ZM235.526 56.2942C229.593 56.2942 227.53 51.1345 227.53 45.7183C227.53 40.3022 229.465 34.9501 235.462 34.9501C241.331 34.9501 243.458 40.4304 243.458 45.7183C243.458 51.1345 241.523 56.2942 235.526 56.2942ZM276.027 49.3958C276.027 51.3948 275.77 57.0712 268.612 57.0712C265.647 57.0712 262.999 56.2301 262.999 52.8092C262.999 49.4599 265.579 48.4943 268.419 47.9135C271.256 47.3968 274.48 47.3289 276.027 45.9786V49.3958ZM264.033 39.2046C264.357 35.5951 266.613 34.1769 270.094 34.1769C273.319 34.1769 276.027 34.7578 276.027 38.6917C276.027 42.4294 270.803 42.2371 265.194 43.0744C259.518 43.8513 253.845 45.6542 253.845 53.1976C253.845 60.0357 258.873 63.1927 265.194 63.1927C269.256 63.1927 273.515 62.0989 276.415 59.0664C276.479 60.1602 276.736 61.2615 277.056 62.2912H286.346C285.509 60.9372 285.184 57.9085 285.184 54.876V37.5262C285.184 29.534 277.188 28.0517 270.546 28.0517C263.067 28.0517 255.392 30.6315 254.875 39.2046H264.033ZM321.498 28.9531H312.793V33.4037H312.665C310.47 29.5339 307.121 28.0479 302.734 28.0479C293.38 28.0479 288.417 35.9157 288.417 44.5604C288.417 53.7144 292.671 61.3257 302.67 61.3257C306.668 61.3257 310.666 59.6473 312.665 56.166H312.793V60.5487C312.857 65.3237 310.538 68.805 305.438 68.805C302.217 68.805 299.441 67.6433 298.608 64.2261H289.514C289.967 71.8374 297.639 74.9302 304.216 74.9302C319.567 74.9302 321.498 65.6443 321.498 60.164V28.9531ZM304.99 54.4234C299.381 54.4234 297.574 49.2034 297.574 44.4284C297.574 39.4649 299.83 34.9501 304.99 34.9501C310.923 34.9501 312.793 39.7892 312.793 45.2016C312.793 49.9766 310.217 54.4234 304.99 54.4234ZM324.018 48.6188H343.431V40.751H324.018V48.6188ZM345.882 62.2912H378.447V53.7822H356.006V16.25H345.882V62.2912ZM380.578 62.2912H389.736V16.2538H380.578V62.2912ZM391.795 45.6542C391.795 56.2301 398.569 63.1927 409.013 63.1927C419.525 63.1927 426.295 56.2301 426.295 45.6542C426.295 35.018 419.525 28.0517 409.013 28.0517C398.566 28.0517 391.795 35.0142 391.795 45.6542ZM400.953 45.6542C400.953 40.3022 402.824 34.9501 409.013 34.9501C415.271 34.9501 417.141 40.3022 417.141 45.6542C417.141 50.9422 415.271 56.2942 409.013 56.2942C402.824 56.2942 400.953 50.9422 400.953 45.658V45.6542Z" fill="black"/>
<path fill-rule="evenodd" clip-rule="evenodd" d="M458.48 28.9532H449.001L441.714 51.7834H441.586L434.043 28.9532H424.236L435.978 60.2282C437.007 62.8722 435.978 66.1611 432.817 66.4855C431.01 66.5496 429.204 66.2894 427.461 66.1611V73.7045C429.336 73.9007 431.203 74.0289 433.073 74.0289C439.391 74.0289 442.556 71.8375 444.551 66.4855L458.48 28.9532ZM481.242 62.2914H489.947V16.2539H480.789V33.0191H480.661H480.725C478.598 29.7302 474.728 28.0556 470.794 28.0556C460.992 28.0556 456.024 36.3722 456.024 45.3375C456.024 54.5594 460.927 63.2003 470.987 63.2003C475.245 63.2003 478.983 61.6539 481.11 58.0406H481.242V62.2914ZM481.11 45.5261C481.11 51.0064 479.307 56.2943 473.246 56.2943C467.569 56.2943 465.182 50.814 465.182 45.5902C465.182 40.1099 467.249 34.9503 473.246 34.9503C479.179 34.9503 481.11 40.1099 481.11 45.5261Z" fill="black"/>
</g>
<defs>
<clipPath id="clip0_435_5">
<rect width="489.556" height="75" fill="white" transform="translate(0.390625)"/>
</clipPath>
</defs>
</svg>
