<svg width="331" height="75" viewBox="0 0 331 75" fill="none" xmlns="http://www.w3.org/2000/svg">
<g clip-path="url(#clip0_435_23)">
<path d="M101.586 53.5775V21.3672H110.162L121.022 45.2603L131.726 21.3678H139.934V53.5775H132.866V35.1404L124.707 53.5775H117.174L108.917 35.2359V53.5775H101.586ZM151.466 53.5775H143.151L157.438 21.3672H167.679L182.066 53.5775H173.856L171.026 47.135L154.21 47.1853L151.466 53.5775ZM168.376 41.1092L162.532 27.8053L156.82 41.1092H168.376ZM185.442 53.5775V21.3672H216.216V27.8059H192.875V34.2533H212.886V40.6443H192.875V47.1394H216.216V53.5775H185.442Z" fill="black"/>
<path d="M222.187 53.578V21.3676H248.531C248.531 21.3676 250.228 21.1758 252.02 22.9194C253.626 24.4789 253.36 26.7681 253.36 26.7681V37.591C253.36 37.591 253.677 39.5788 251.78 41.2794C249.948 42.9191 247.284 42.5633 247.284 42.5633L253.415 53.578H245.362L239.279 42.5633H229.724V53.578H222.187ZM229.725 36.1231H245.882V27.8077H229.725V36.1231ZM266.911 53.578H264.36C264.36 53.578 262.12 53.535 260.849 52.194C259.377 50.6345 259.427 48.8499 259.427 48.8499V44.6416H266.911V47.1407H282.81V40.6423H264.564C264.564 40.6423 262.315 40.8703 260.929 39.4462C259.388 37.8696 259.555 35.9686 259.555 35.9686V26.3055C259.555 26.3055 259.523 24.6811 260.617 23.238C262.19 21.1625 264.617 21.3695 264.617 21.3695L285.463 21.3847C285.463 21.3847 287.163 21.2646 288.828 22.8775C290.652 24.6372 290.231 26.5124 290.231 26.5124V30.3573H282.803V27.8096H266.903V34.2536H285.088C285.088 34.2536 287.222 34.0972 288.723 35.8122C290.231 37.5281 290.231 39.4472 290.231 39.4472V48.5399C290.231 48.5399 290.475 50.3245 289.046 51.945C287.426 53.7916 285.245 53.5799 285.245 53.5799H266.904" fill="black"/>
<path d="M297.356 53.5692V21.3496H304.987V34.2351L319.533 21.3496H329.882L312.532 36.315L330.502 53.5692H319.8L304.987 38.9088V53.5692H297.356Z" fill="black"/>
<path d="M63.3045 0.287505C68.4698 0.265807 71.7976 4.46343 71.8138 8.78566L71.8293 66.1525C71.8045 70.799 68.1282 74.6687 63.2654 74.6829H9.69441C4.70698 74.6736 1.18262 70.5727 1.18262 66.1203L1.1851 8.78566C1.18138 3.99785 5.22215 0.22923 9.71673 0.254028L63.3063 0.287505" fill="#4DC7E4"/>
<path d="M63.305 0.287351C68.4706 0.26606 71.7985 4.46328 71.8143 8.78593L71.83 66.1529C71.8055 70.7995 68.1285 74.669 63.2661 74.6834H9.69467C4.70735 74.6741 1.18359 70.5732 1.18359 66.1205L1.18544 8.78593C1.18174 3.9981 5.22251 0.229494 9.71735 0.254025L63.3073 0.287351H63.305Z" stroke="white" stroke-width="1.59024"/>
<path d="M41.6524 27.2027L61.4992 17.8379C61.5791 17.7963 61.6231 17.9178 61.6827 17.9371L47.959 35.0939L68.0079 44.7836C68.1096 44.8431 68.21 44.9243 68.0724 45.0242L46.0558 45.0459L51.091 66.9211L50.9496 67.0451L36.5509 49.4487H36.3674L22.1161 67.0687C22.0356 67.1306 21.9946 67.1306 21.9134 67.0699L26.8779 45.1165L4.9041 45.0583C4.82227 44.9963 4.82227 44.9361 4.82227 44.8748L24.8005 35.2576L24.9394 35.1169L11.1698 17.9854C11.1295 17.885 11.2101 17.8428 11.2721 17.7622L31.1388 27.1277L36.3395 5.82031H36.4802L41.6462 27.2021" fill="white"/>
</g>
<defs>
<clipPath id="clip0_435_23">
<rect width="329.587" height="75" fill="white" transform="translate(0.933594)"/>
</clipPath>
</defs>
</svg>
