<svg width="86" height="75" viewBox="0 0 86 75" fill="none" xmlns="http://www.w3.org/2000/svg">
<g clip-path="url(#clip0_435_11)">
<path d="M36.7765 0.0761719C32.7741 0.0761719 29.0176 1.67026 26.1849 4.42329V1.67159V0.992249H25.5673H11.7162H11.0987V1.67159V39.183H11.0368C5.74082 39.183 1.73874 36.9151 1.73874 36.9151L0.078125 39.979C0.078125 39.979 4.50975 42.6793 11.0986 42.6793C17.8713 42.6793 20.7039 39.6737 26.9225 39.6737C33.2035 39.6737 35.3573 42.6793 42.7464 42.6793C50.074 42.6793 52.2927 39.6737 58.5737 39.6737C64.8539 39.6737 67.6258 42.6793 74.3976 42.6793C80.6114 42.6793 85.3564 39.9207 85.3564 39.9207L83.6923 36.8534C83.6923 36.8534 79.692 39.183 74.3976 39.183V14.9703C74.3976 6.75206 67.6853 0.0761719 59.4967 0.0761719C55.0634 0.0761719 51.0001 1.91419 48.1674 5.2227C45.274 1.91419 41.2098 0.0761719 36.7765 0.0761719ZM30.8031 12.8224C33.0817 12.8224 34.9272 14.6583 34.9272 16.9294V37.6528C32.5878 36.9168 30.2478 36.1809 26.9226 36.1809H26.7373V16.9294C26.7373 14.6583 28.5868 12.8224 30.8031 12.8224ZM54.6933 12.8224C56.9711 12.8224 58.7591 14.6583 58.7591 16.9294V36.1809H58.5738C55.2486 36.1809 52.9086 36.9168 50.5692 37.6528V16.9294C50.5692 14.6583 52.4147 12.8224 54.6933 12.8224ZM26.7991 41.8181C22.7967 41.8181 19.4737 42.8632 17.0103 44.5183C14.3008 46.3572 12.7627 48.9931 12.7627 52.3033C12.7627 57.0234 16.2111 59.8424 24.339 61.8038C29.0186 62.9075 29.9421 63.2754 30.0036 64.6241C30.0036 65.053 29.8791 65.36 29.5713 65.6672C28.8941 66.3411 27.7233 66.5867 26.7991 66.5867C26.4297 66.5867 25.3858 66.5245 24.4008 66.0343C23.4773 65.4828 22.9214 64.6847 22.7367 63.5811L11.7162 63.6429C11.7162 66.8305 13.4997 69.7112 16.7633 71.9185C19.596 73.7574 23.227 74.9241 26.6138 74.9241C33.9414 74.9241 41.8235 71.3669 41.8235 63.6429C41.8235 57.6966 36.1603 55.3045 34.4365 54.7531C32.7743 54.1396 30.5566 53.7135 28.5866 53.2846C27.1699 52.9775 25.8764 52.7298 24.8914 52.4235C24.1526 52.2397 23.7214 51.6881 23.7214 51.0133C23.7214 49.2357 25.8139 49.0542 26.7373 49.0542C28.6465 49.0542 30.1855 50.4008 30.1855 51.9946H40.9006C40.9006 45.0058 33.5726 41.8181 26.7991 41.8181ZM58.5738 41.8799C53.5864 41.8799 49.9535 43.5369 47.0593 46.7245C44.3497 49.6671 42.9317 53.8336 42.9317 58.4312C42.9317 62.9675 44.3497 67.1378 47.0593 70.0795C49.9535 73.268 53.5247 74.9241 58.512 74.9241C63.0644 74.9241 67.1939 73.698 69.7796 71.1843C72.1189 68.9778 73.539 65.8506 74.0889 61.8656L74.1541 61.3133H73.5365H63.2537H62.818L62.7597 61.7421C62.0784 64.6847 60.299 65.6055 58.7591 65.6055C55.2492 65.6055 54.4463 60.5764 54.4463 58.4312C54.4463 56.2247 55.2492 51.1986 58.7591 51.1986C60.2333 51.1986 62.0784 52.1811 62.7597 55.1237L62.818 55.4908H63.2537H73.5365H74.1541L74.0889 54.9384C73.539 50.9535 72.1189 47.8262 69.7796 45.6197C67.1939 43.1673 63.0646 41.8799 58.5738 41.8799Z" fill="black"/>
</g>
<defs>
<clipPath id="clip0_435_11">
<rect width="85.4339" height="75" fill="white"/>
</clipPath>
</defs>
</svg>
