<svg width="164" height="158" viewBox="0 0 164 158" fill="none" xmlns="http://www.w3.org/2000/svg">
<path d="M56 100C56 72.3858 78.3858 50 106 50H164V158H56V100Z" fill="white"/>
<path d="M56 158L56 108.617C56.0104 108.063 56.0102 107.524 56 107V108.617C55.6693 126.2 44.596 158 0 158H56Z" fill="white"/>
<path d="M164 51V1.61703C164.01 1.06345 164.01 0.523964 164 0V1.61703C163.669 19.2005 152.596 51 108 51L164 51Z" fill="white"/>
<rect x="55" y="117" width="2" height="41" fill="white"/>
<rect x="123" y="52" width="2" height="41" transform="rotate(-90 123 52)" fill="white"/>
</svg>
